<svg xmlns="http://www.w3.org/2000/svg" xmlns:xlink="http://www.w3.org/1999/xlink" width="250" zoomAndPan="magnify" viewBox="0 0 187.5 74.999997" height="100" preserveAspectRatio="xMidYMid meet" version="1.0"><defs><g/><clipPath id="588fca38ec"><path d="M 3.414062 0.804688 L 76.808594 0.804688 L 76.808594 74.195312 L 3.414062 74.195312 Z M 3.414062 0.804688 " clip-rule="nonzero"/></clipPath><clipPath id="d313944fad"><path d="M 40.109375 0.804688 C 19.84375 0.804688 3.414062 17.234375 3.414062 37.5 C 3.414062 57.765625 19.84375 74.195312 40.109375 74.195312 C 60.378906 74.195312 76.808594 57.765625 76.808594 37.5 C 76.808594 17.234375 60.378906 0.804688 40.109375 0.804688 Z M 40.109375 0.804688 " clip-rule="nonzero"/></clipPath><clipPath id="f02e618d8e"><path d="M 5.34375 2.597656 L 74.875 2.597656 L 74.875 72.125 L 5.34375 72.125 Z M 5.34375 2.597656 " clip-rule="nonzero"/></clipPath><clipPath id="b8a24c4012"><path d="M 40.109375 2.597656 C 20.910156 2.597656 5.34375 18.160156 5.34375 37.363281 C 5.34375 56.5625 20.910156 72.125 40.109375 72.125 C 59.308594 72.125 74.875 56.5625 74.875 37.363281 C 74.875 18.160156 59.308594 2.597656 40.109375 2.597656 Z M 40.109375 2.597656 " clip-rule="nonzero"/></clipPath><clipPath id="c295c96c20"><path d="M 23.925781 19.671875 L 59.582031 19.671875 L 59.582031 55.328125 L 23.925781 55.328125 Z M 23.925781 19.671875 " clip-rule="nonzero"/></clipPath><clipPath id="4282e03700"><path d="M 41.753906 19.671875 C 31.90625 19.671875 23.925781 27.652344 23.925781 37.5 C 23.925781 47.347656 31.90625 55.328125 41.753906 55.328125 C 51.597656 55.328125 59.582031 47.347656 59.582031 37.5 C 59.582031 27.652344 51.597656 19.671875 41.753906 19.671875 Z M 41.753906 19.671875 " clip-rule="nonzero"/></clipPath><clipPath id="898276190b"><path d="M 32.667969 28.277344 L 50.835938 28.277344 L 50.835938 46.445312 L 32.667969 46.445312 Z M 32.667969 28.277344 " clip-rule="nonzero"/></clipPath><clipPath id="88a9a97043"><path d="M 41.753906 28.277344 C 36.734375 28.277344 32.667969 32.34375 32.667969 37.363281 C 32.667969 42.378906 36.734375 46.445312 41.753906 46.445312 C 46.769531 46.445312 50.835938 42.378906 50.835938 37.363281 C 50.835938 32.34375 46.769531 28.277344 41.753906 28.277344 Z M 41.753906 28.277344 " clip-rule="nonzero"/></clipPath></defs><g clip-path="url(#588fca38ec)"><g clip-path="url(#d313944fad)"><path fill="#51998c" d="M 3.414062 0.804688 L 76.808594 0.804688 L 76.808594 74.195312 L 3.414062 74.195312 Z M 3.414062 0.804688 " fill-opacity="1" fill-rule="nonzero"/></g></g><g clip-path="url(#f02e618d8e)"><g clip-path="url(#b8a24c4012)"><path fill="#90c6cd" d="M 5.34375 2.597656 L 74.875 2.597656 L 74.875 72.125 L 5.34375 72.125 Z M 5.34375 2.597656 " fill-opacity="1" fill-rule="nonzero"/></g></g><g clip-path="url(#c295c96c20)"><g clip-path="url(#4282e03700)"><path fill="#18abbc" d="M 23.925781 19.671875 L 59.582031 19.671875 L 59.582031 55.328125 L 23.925781 55.328125 Z M 23.925781 19.671875 " fill-opacity="1" fill-rule="nonzero"/></g></g><g clip-path="url(#898276190b)"><g clip-path="url(#88a9a97043)"><path fill="#000000" d="M 32.667969 28.277344 L 50.835938 28.277344 L 50.835938 46.445312 L 32.667969 46.445312 Z M 32.667969 28.277344 " fill-opacity="1" fill-rule="nonzero"/></g></g><g fill="#1cbccf" fill-opacity="1"><g transform="translate(105.736144, 49.797157)"><g><path d="M 6.6875 0.328125 C 5.59375 0.328125 4.640625 0.125 3.828125 -0.28125 C 3.015625 -0.6875 2.390625 -1.28125 1.953125 -2.0625 C 1.523438 -2.84375 1.3125 -3.785156 1.3125 -4.890625 C 1.3125 -5.898438 1.523438 -6.75 1.953125 -7.4375 C 2.390625 -8.132812 3.0625 -8.703125 3.96875 -9.140625 C 4.882812 -9.578125 6.082031 -9.914062 7.5625 -10.15625 C 8.582031 -10.320312 9.359375 -10.503906 9.890625 -10.703125 C 10.429688 -10.898438 10.796875 -11.125 10.984375 -11.375 C 11.171875 -11.625 11.265625 -11.941406 11.265625 -12.328125 C 11.265625 -12.867188 11.070312 -13.285156 10.6875 -13.578125 C 10.300781 -13.867188 9.664062 -14.015625 8.78125 -14.015625 C 7.820312 -14.015625 6.910156 -13.800781 6.046875 -13.375 C 5.191406 -12.945312 4.445312 -12.390625 3.8125 -11.703125 L 3.5 -11.703125 L 1.703125 -14.421875 C 2.566406 -15.390625 3.625 -16.140625 4.875 -16.671875 C 6.132812 -17.210938 7.503906 -17.484375 8.984375 -17.484375 C 11.253906 -17.484375 12.898438 -17 13.921875 -16.03125 C 14.941406 -15.070312 15.453125 -13.707031 15.453125 -11.9375 L 15.453125 -4.484375 C 15.453125 -3.710938 15.785156 -3.328125 16.453125 -3.328125 C 16.710938 -3.328125 16.96875 -3.375 17.21875 -3.46875 L 17.4375 -3.40625 L 17.75 -0.40625 C 17.507812 -0.25 17.175781 -0.117188 16.75 -0.015625 C 16.320312 0.078125 15.859375 0.125 15.359375 0.125 C 14.328125 0.125 13.523438 -0.0703125 12.953125 -0.46875 C 12.378906 -0.863281 11.96875 -1.476562 11.71875 -2.3125 L 11.390625 -2.34375 C 10.546875 -0.5625 8.976562 0.328125 6.6875 0.328125 Z M 8.0625 -2.890625 C 9.050781 -2.890625 9.84375 -3.222656 10.4375 -3.890625 C 11.039062 -4.566406 11.34375 -5.5 11.34375 -6.6875 L 11.34375 -8.4375 L 11.046875 -8.5 C 10.785156 -8.289062 10.441406 -8.113281 10.015625 -7.96875 C 9.597656 -7.832031 9 -7.695312 8.21875 -7.5625 C 7.28125 -7.40625 6.601562 -7.132812 6.1875 -6.75 C 5.78125 -6.375 5.578125 -5.84375 5.578125 -5.15625 C 5.578125 -4.414062 5.796875 -3.851562 6.234375 -3.46875 C 6.671875 -3.082031 7.28125 -2.890625 8.0625 -2.890625 Z M 8.0625 -2.890625 "/></g></g></g><g fill="#1cbccf" fill-opacity="1"><g transform="translate(123.828716, 49.797157)"><g><path d="M 2.46875 0 L 2.46875 -24.046875 L 6.78125 -24.046875 L 6.78125 -10.703125 L 7.203125 -10.703125 L 12.171875 -17.15625 L 16.53125 -17.15625 L 16.53125 -16.796875 L 10.703125 -9.265625 L 17.1875 -0.390625 L 17.1875 0 L 12.640625 0 L 7.203125 -7.234375 L 6.78125 -7.234375 L 6.78125 0 Z M 2.46875 0 "/></g></g></g><g fill="#1cbccf" fill-opacity="1"><g transform="translate(141.050106, 49.797157)"><g><path d="M 4.625 -19.21875 C 3.84375 -19.21875 3.207031 -19.453125 2.71875 -19.921875 C 2.226562 -20.390625 1.984375 -21 1.984375 -21.75 C 1.984375 -22.488281 2.226562 -23.09375 2.71875 -23.5625 C 3.207031 -24.03125 3.84375 -24.265625 4.625 -24.265625 C 5.132812 -24.265625 5.59375 -24.15625 6 -23.9375 C 6.40625 -23.71875 6.71875 -23.421875 6.9375 -23.046875 C 7.164062 -22.671875 7.28125 -22.238281 7.28125 -21.75 C 7.28125 -21.257812 7.164062 -20.820312 6.9375 -20.4375 C 6.71875 -20.050781 6.40625 -19.75 6 -19.53125 C 5.59375 -19.320312 5.132812 -19.21875 4.625 -19.21875 Z M 2.46875 0 L 2.46875 -17.15625 L 6.78125 -17.15625 L 6.78125 0 Z M 2.46875 0 "/></g></g></g><g fill="#1cbccf" fill-opacity="1"><g transform="translate(150.290852, 49.797157)"><g><path d="M 2.46875 0 L 2.46875 -17.15625 L 6.609375 -17.15625 L 6.609375 -14.859375 L 6.9375 -14.796875 C 7.5 -15.710938 8.15625 -16.390625 8.90625 -16.828125 C 9.65625 -17.265625 10.617188 -17.484375 11.796875 -17.484375 C 13.085938 -17.484375 14.125 -17.222656 14.90625 -16.703125 C 15.695312 -16.191406 16.273438 -15.445312 16.640625 -14.46875 L 16.96875 -14.46875 C 17.5 -15.488281 18.179688 -16.242188 19.015625 -16.734375 C 19.847656 -17.234375 20.890625 -17.484375 22.140625 -17.484375 C 25.691406 -17.484375 27.46875 -15.503906 27.46875 -11.546875 L 27.46875 0 L 23.15625 0 L 23.15625 -11 C 23.15625 -12 22.957031 -12.722656 22.5625 -13.171875 C 22.175781 -13.617188 21.546875 -13.84375 20.671875 -13.84375 C 18.304688 -13.84375 17.125 -12.257812 17.125 -9.09375 L 17.125 0 L 12.8125 0 L 12.8125 -11 C 12.8125 -12 12.613281 -12.722656 12.21875 -13.171875 C 11.820312 -13.617188 11.1875 -13.84375 10.3125 -13.84375 C 9.207031 -13.84375 8.34375 -13.472656 7.71875 -12.734375 C 7.09375 -11.992188 6.78125 -10.8125 6.78125 -9.1875 L 6.78125 0 Z M 2.46875 0 "/></g></g></g><g fill="#000000" fill-opacity="1"><g transform="translate(81.026847, 49.797157)"><g><path d="M 17.640625 -14.1875 L 17.640625 -22.75 L 22.125 -22.75 L 22.125 0 L 17.640625 0 L 17.640625 -10.359375 L 7.453125 -10.359375 L 7.453125 0 L 2.953125 0 L 2.953125 -22.75 L 7.453125 -22.75 L 7.453125 -14.1875 Z M 17.640625 -14.1875 "/></g></g></g><g fill="#000000" fill-opacity="1"><g transform="translate(25.276502, 57.28655)"><g><path d="M -1.078125 -1 L -0.625 -0.578125 L -4.484375 3.578125 L -5.203125 2.90625 L -3.203125 -1.78125 L -3.265625 -1.84375 L -7.78125 0.515625 L -8.484375 -0.140625 L -4.625 -4.296875 L -4.171875 -3.875 L -7.3125 -0.484375 L -7.25 -0.390625 L -2.859375 -2.65625 L -2.375 -2.21875 L -4.296875 2.34375 L -4.21875 2.390625 Z M -1.078125 -1 "/></g></g></g><g fill="#000000" fill-opacity="1"><g transform="translate(20.467556, 52.712163)"><g><path d="M -3.984375 -2.1875 L -2.28125 0.203125 C -1.875 -0.0859375 -1.632812 -0.398438 -1.5625 -0.734375 C -1.5 -1.066406 -1.582031 -1.398438 -1.8125 -1.734375 C -1.988281 -1.984375 -2.171875 -2.148438 -2.359375 -2.234375 C -2.554688 -2.316406 -2.785156 -2.335938 -3.046875 -2.296875 L -3.09375 -2.359375 L -3.140625 -2.828125 C -2.816406 -2.910156 -2.503906 -2.890625 -2.203125 -2.765625 C -1.898438 -2.648438 -1.617188 -2.414062 -1.359375 -2.0625 C -1.117188 -1.71875 -0.976562 -1.378906 -0.9375 -1.046875 C -0.894531 -0.710938 -0.960938 -0.378906 -1.140625 -0.046875 C -1.316406 0.273438 -1.609375 0.578125 -2.015625 0.859375 C -2.398438 1.140625 -2.78125 1.304688 -3.15625 1.359375 C -3.53125 1.410156 -3.867188 1.363281 -4.171875 1.21875 C -4.484375 1.070312 -4.75 0.847656 -4.96875 0.546875 C -5.28125 0.0859375 -5.394531 -0.351562 -5.3125 -0.78125 C -5.238281 -1.207031 -4.953125 -1.597656 -4.453125 -1.953125 C -4.265625 -2.085938 -4.132812 -2.175781 -4.0625 -2.21875 Z M -4.09375 -1.4375 C -4.46875 -1.15625 -4.679688 -0.875 -4.734375 -0.59375 C -4.796875 -0.320312 -4.726562 -0.0390625 -4.53125 0.25 C -4.3125 0.550781 -4.050781 0.726562 -3.75 0.78125 C -3.457031 0.832031 -3.113281 0.742188 -2.71875 0.515625 Z M -4.09375 -1.4375 "/></g></g></g><g fill="#000000" fill-opacity="1"><g transform="translate(18.035011, 49.385081)"><g><path d="M -0.875 -2.03125 C -0.726562 -1.71875 -0.671875 -1.410156 -0.703125 -1.109375 C -0.742188 -0.804688 -0.878906 -0.515625 -1.109375 -0.234375 C -1.347656 0.046875 -1.691406 0.289062 -2.140625 0.5 C -2.578125 0.71875 -2.976562 0.828125 -3.34375 0.828125 C -3.707031 0.828125 -4.019531 0.738281 -4.28125 0.5625 C -4.550781 0.394531 -4.769531 0.144531 -4.9375 -0.1875 C -5.050781 -0.4375 -5.109375 -0.6875 -5.109375 -0.9375 C -5.109375 -1.195312 -5.035156 -1.445312 -4.890625 -1.6875 L -4.9375 -1.765625 L -7 -0.765625 L -7.28125 -1.34375 L -1.890625 -3.9375 L -1.609375 -3.359375 L -2.171875 -3.09375 L -2.15625 -3 C -1.90625 -2.96875 -1.664062 -2.875 -1.4375 -2.71875 C -1.207031 -2.5625 -1.019531 -2.332031 -0.875 -2.03125 Z M -1.484375 -1.984375 C -1.648438 -2.335938 -1.90625 -2.5625 -2.25 -2.65625 C -2.601562 -2.75 -3.035156 -2.675781 -3.546875 -2.4375 C -4.035156 -2.195312 -4.351562 -1.910156 -4.5 -1.578125 C -4.644531 -1.242188 -4.632812 -0.898438 -4.46875 -0.546875 C -4.289062 -0.171875 -4.03125 0.0546875 -3.6875 0.140625 C -3.34375 0.234375 -2.921875 0.15625 -2.421875 -0.09375 C -1.421875 -0.570312 -1.109375 -1.203125 -1.484375 -1.984375 Z M -1.484375 -1.984375 "/></g></g></g><g fill="#000000" fill-opacity="1"><g transform="translate(16.039997, 45.056427)"><g><path d="M -5.15625 0.59375 C -5.113281 0.726562 -5.125 0.847656 -5.1875 0.953125 C -5.25 1.054688 -5.335938 1.128906 -5.453125 1.171875 C -5.566406 1.210938 -5.675781 1.207031 -5.78125 1.15625 C -5.882812 1.101562 -5.957031 1.007812 -6 0.875 C -6.050781 0.75 -6.050781 0.632812 -6 0.53125 C -5.945312 0.425781 -5.863281 0.351562 -5.75 0.3125 C -5.632812 0.269531 -5.519531 0.273438 -5.40625 0.328125 C -5.289062 0.378906 -5.207031 0.46875 -5.15625 0.59375 Z M -0.234375 -0.71875 L -4.296875 0.625 L -4.5 0.03125 L -0.4375 -1.3125 Z M -0.234375 -0.71875 "/></g></g></g><g fill="#000000" fill-opacity="1"><g transform="translate(15.386335, 43.352645)"><g><path d="M -0.421875 -2.421875 C -0.347656 -2.046875 -0.363281 -1.691406 -0.46875 -1.359375 C -0.570312 -1.035156 -0.769531 -0.753906 -1.0625 -0.515625 C -1.351562 -0.273438 -1.726562 -0.109375 -2.1875 -0.015625 C -2.644531 0.078125 -3.054688 0.0703125 -3.421875 -0.03125 C -3.785156 -0.132812 -4.082031 -0.3125 -4.3125 -0.5625 C -4.539062 -0.820312 -4.691406 -1.140625 -4.765625 -1.515625 C -4.859375 -1.953125 -4.847656 -2.320312 -4.734375 -2.625 C -4.628906 -2.925781 -4.445312 -3.15625 -4.1875 -3.3125 L -3.796875 -2.96875 L -3.78125 -2.890625 C -3.988281 -2.734375 -4.128906 -2.550781 -4.203125 -2.34375 C -4.273438 -2.144531 -4.28125 -1.90625 -4.21875 -1.625 C -4.164062 -1.363281 -4.054688 -1.148438 -3.890625 -0.984375 C -3.722656 -0.816406 -3.503906 -0.703125 -3.234375 -0.640625 C -2.972656 -0.578125 -2.671875 -0.582031 -2.328125 -0.65625 C -1.972656 -0.726562 -1.6875 -0.847656 -1.46875 -1.015625 C -1.25 -1.179688 -1.097656 -1.375 -1.015625 -1.59375 C -0.929688 -1.8125 -0.914062 -2.050781 -0.96875 -2.3125 C -1.03125 -2.601562 -1.148438 -2.828125 -1.328125 -2.984375 C -1.503906 -3.140625 -1.742188 -3.25 -2.046875 -3.3125 L -2.0625 -3.390625 L -1.90625 -3.828125 C -1.519531 -3.804688 -1.195312 -3.675781 -0.9375 -3.4375 C -0.6875 -3.195312 -0.515625 -2.859375 -0.421875 -2.421875 Z M -0.421875 -2.421875 "/></g></g></g><g fill="#000000" fill-opacity="1"><g transform="translate(14.53597, 39.441081)"><g><path d="M -0.015625 -1.765625 C 0.00390625 -1.335938 -0.0820312 -1 -0.28125 -0.75 C -0.488281 -0.507812 -0.796875 -0.378906 -1.203125 -0.359375 C -1.453125 -0.347656 -1.664062 -0.390625 -1.84375 -0.484375 C -2.03125 -0.578125 -2.1875 -0.726562 -2.3125 -0.9375 C -2.4375 -1.15625 -2.535156 -1.441406 -2.609375 -1.796875 C -2.679688 -2.097656 -2.75 -2.328125 -2.8125 -2.484375 C -2.882812 -2.648438 -2.960938 -2.757812 -3.046875 -2.8125 C -3.128906 -2.863281 -3.234375 -2.882812 -3.359375 -2.875 C -3.554688 -2.863281 -3.703125 -2.785156 -3.796875 -2.640625 C -3.898438 -2.503906 -3.941406 -2.289062 -3.921875 -2 C -3.910156 -1.71875 -3.84375 -1.484375 -3.71875 -1.296875 C -3.601562 -1.109375 -3.4375 -0.941406 -3.21875 -0.796875 L -3.21875 -0.71875 L -3.640625 -0.375 C -3.878906 -0.539062 -4.070312 -0.757812 -4.21875 -1.03125 C -4.375 -1.3125 -4.457031 -1.628906 -4.46875 -1.984375 C -4.5 -2.484375 -4.40625 -2.859375 -4.1875 -3.109375 C -3.976562 -3.359375 -3.679688 -3.492188 -3.296875 -3.515625 L -1.03125 -3.625 C -0.789062 -3.632812 -0.675781 -3.738281 -0.6875 -3.9375 C -0.6875 -4.007812 -0.703125 -4.078125 -0.734375 -4.140625 L -0.71875 -4.1875 L -0.28125 -4.296875 C -0.25 -4.253906 -0.222656 -4.191406 -0.203125 -4.109375 C -0.179688 -4.035156 -0.171875 -3.957031 -0.171875 -3.875 C -0.160156 -3.644531 -0.203125 -3.46875 -0.296875 -3.34375 C -0.390625 -3.21875 -0.535156 -3.128906 -0.734375 -3.078125 L -0.75 -3 C -0.507812 -2.894531 -0.328125 -2.738281 -0.203125 -2.53125 C -0.0859375 -2.332031 -0.0234375 -2.078125 -0.015625 -1.765625 Z M -0.515625 -1.890625 C -0.523438 -2.128906 -0.585938 -2.332031 -0.703125 -2.5 C -0.828125 -2.664062 -0.988281 -2.789062 -1.1875 -2.875 C -1.394531 -2.957031 -1.628906 -2.988281 -1.890625 -2.96875 L -2.4375 -2.9375 L -2.453125 -2.859375 C -2.378906 -2.773438 -2.316406 -2.664062 -2.265625 -2.53125 C -2.210938 -2.394531 -2.160156 -2.203125 -2.109375 -1.953125 C -2.066406 -1.710938 -2.003906 -1.519531 -1.921875 -1.375 C -1.847656 -1.226562 -1.753906 -1.125 -1.640625 -1.0625 C -1.535156 -1.007812 -1.40625 -0.988281 -1.25 -1 C -1 -1.007812 -0.8125 -1.09375 -0.6875 -1.25 C -0.5625 -1.414062 -0.503906 -1.628906 -0.515625 -1.890625 Z M -0.515625 -1.890625 "/></g></g></g><g fill="#000000" fill-opacity="1"><g transform="translate(14.366471, 35.335251)"><g><path d="M 0.1875 -1.703125 C 0.164062 -1.398438 0.0664062 -1.164062 -0.109375 -1 C -0.296875 -0.84375 -0.5625 -0.773438 -0.90625 -0.796875 L -5.921875 -1.140625 L -5.875 -1.765625 L -0.890625 -1.421875 C -0.710938 -1.410156 -0.582031 -1.4375 -0.5 -1.5 C -0.414062 -1.5625 -0.367188 -1.664062 -0.359375 -1.8125 C -0.359375 -1.90625 -0.367188 -1.992188 -0.390625 -2.078125 L -0.375 -2.140625 L 0.125 -2.171875 C 0.15625 -2.128906 0.175781 -2.0625 0.1875 -1.96875 C 0.195312 -1.882812 0.195312 -1.796875 0.1875 -1.703125 Z M 0.1875 -1.703125 "/></g></g></g><g fill="#000000" fill-opacity="1"><g transform="translate(14.50874, 33.214339)"><g/></g></g><g fill="#000000" fill-opacity="1"><g transform="translate(14.751557, 31.466726)"><g/></g></g><g fill="#000000" fill-opacity="1"><g transform="translate(15.112912, 29.739725)"><g/></g></g><g fill="#000000" fill-opacity="1"><g transform="translate(15.591123, 28.041364)"><g/></g></g><g fill="#000000" fill-opacity="1"><g transform="translate(16.183971, 26.379542)"><g/></g></g><g fill="#000000" fill-opacity="1"><g transform="translate(16.716871, 24.846705)"><g><path d="M 2.625 -4.359375 L 2.265625 -3.765625 L 0.65625 -4.109375 L -0.578125 -2.046875 L 0.46875 -0.796875 L 0.109375 -0.1875 L -3.71875 -4.8125 L -3.25 -5.59375 Z M -2.921875 -4.8125 L -0.96875 -2.5 L 0.078125 -4.234375 L -2.875 -4.890625 Z M -2.921875 -4.8125 "/></g></g></g><g fill="#000000" fill-opacity="1"><g transform="translate(19.261308, 20.660319)"><g><path d="M 1.328125 -1.4375 C 1.148438 -1.226562 0.960938 -1.054688 0.765625 -0.921875 C 0.566406 -0.796875 0.367188 -0.710938 0.171875 -0.671875 C -0.0234375 -0.640625 -0.207031 -0.644531 -0.375 -0.6875 L -0.4375 -1.234375 L -0.375 -1.3125 C -0.125 -1.269531 0.101562 -1.285156 0.3125 -1.359375 C 0.519531 -1.441406 0.710938 -1.585938 0.890625 -1.796875 C 1.085938 -2.035156 1.191406 -2.257812 1.203125 -2.46875 C 1.222656 -2.675781 1.148438 -2.847656 0.984375 -2.984375 C 0.859375 -3.097656 0.71875 -3.148438 0.5625 -3.140625 C 0.414062 -3.128906 0.253906 -3.054688 0.078125 -2.921875 L -0.515625 -2.5 C -0.835938 -2.257812 -1.132812 -2.140625 -1.40625 -2.140625 C -1.675781 -2.140625 -1.925781 -2.234375 -2.15625 -2.421875 C -2.332031 -2.578125 -2.445312 -2.753906 -2.5 -2.953125 C -2.550781 -3.160156 -2.539062 -3.378906 -2.46875 -3.609375 C -2.394531 -3.835938 -2.265625 -4.066406 -2.078125 -4.296875 C -1.816406 -4.597656 -1.570312 -4.796875 -1.34375 -4.890625 C -1.113281 -4.992188 -0.878906 -5.035156 -0.640625 -5.015625 L -0.609375 -4.53125 L -0.65625 -4.46875 C -0.863281 -4.457031 -1.046875 -4.410156 -1.203125 -4.328125 C -1.359375 -4.253906 -1.515625 -4.128906 -1.671875 -3.953125 C -1.847656 -3.742188 -1.945312 -3.546875 -1.96875 -3.359375 C -1.988281 -3.179688 -1.925781 -3.03125 -1.78125 -2.90625 C -1.65625 -2.800781 -1.515625 -2.753906 -1.359375 -2.765625 C -1.203125 -2.773438 -1.015625 -2.859375 -0.796875 -3.015625 L -0.21875 -3.4375 C 0.09375 -3.675781 0.378906 -3.789062 0.640625 -3.78125 C 0.898438 -3.78125 1.148438 -3.675781 1.390625 -3.46875 C 1.578125 -3.3125 1.707031 -3.125 1.78125 -2.90625 C 1.851562 -2.6875 1.847656 -2.453125 1.765625 -2.203125 C 1.691406 -1.953125 1.546875 -1.695312 1.328125 -1.4375 Z M 1.328125 -1.4375 "/></g></g></g><g fill="#000000" fill-opacity="1"><g transform="translate(21.567568, 17.908065)"><g><path d="M 1.5 -1.234375 C 1.300781 -1.054688 1.09375 -0.914062 0.875 -0.8125 C 0.664062 -0.71875 0.460938 -0.664062 0.265625 -0.65625 C 0.0664062 -0.644531 -0.109375 -0.675781 -0.265625 -0.75 L -0.265625 -1.28125 L -0.1875 -1.34375 C 0.0507812 -1.28125 0.28125 -1.269531 0.5 -1.3125 C 0.71875 -1.363281 0.925781 -1.476562 1.125 -1.65625 C 1.363281 -1.863281 1.503906 -2.066406 1.546875 -2.265625 C 1.585938 -2.472656 1.535156 -2.660156 1.390625 -2.828125 C 1.285156 -2.953125 1.15625 -3.019531 1 -3.03125 C 0.851562 -3.039062 0.679688 -2.992188 0.484375 -2.890625 L -0.171875 -2.546875 C -0.523438 -2.359375 -0.832031 -2.28125 -1.09375 -2.3125 C -1.363281 -2.34375 -1.597656 -2.472656 -1.796875 -2.703125 C -1.953125 -2.867188 -2.039062 -3.054688 -2.0625 -3.265625 C -2.09375 -3.484375 -2.054688 -3.695312 -1.953125 -3.90625 C -1.847656 -4.125 -1.679688 -4.332031 -1.453125 -4.53125 C -1.160156 -4.800781 -0.894531 -4.96875 -0.65625 -5.03125 C -0.414062 -5.101562 -0.175781 -5.109375 0.0625 -5.046875 L 0.03125 -4.5625 L -0.03125 -4.5 C -0.238281 -4.53125 -0.425781 -4.515625 -0.59375 -4.453125 C -0.757812 -4.398438 -0.925781 -4.296875 -1.09375 -4.140625 C -1.3125 -3.960938 -1.441406 -3.785156 -1.484375 -3.609375 C -1.523438 -3.429688 -1.484375 -3.269531 -1.359375 -3.125 C -1.242188 -3 -1.109375 -2.929688 -0.953125 -2.921875 C -0.804688 -2.910156 -0.613281 -2.96875 -0.375 -3.09375 L 0.265625 -3.4375 C 0.609375 -3.625 0.90625 -3.695312 1.15625 -3.65625 C 1.414062 -3.613281 1.648438 -3.476562 1.859375 -3.25 C 2.023438 -3.0625 2.125 -2.851562 2.15625 -2.625 C 2.195312 -2.40625 2.160156 -2.175781 2.046875 -1.9375 C 1.941406 -1.695312 1.757812 -1.460938 1.5 -1.234375 Z M 1.5 -1.234375 "/></g></g></g><g fill="#000000" fill-opacity="1"><g transform="translate(24.174156, 15.494464)"><g><path d="M 2.109375 -1.265625 C 1.765625 -1.046875 1.421875 -0.925781 1.078125 -0.90625 C 0.734375 -0.894531 0.40625 -0.976562 0.09375 -1.15625 C -0.21875 -1.34375 -0.503906 -1.640625 -0.765625 -2.046875 C -1.023438 -2.441406 -1.175781 -2.820312 -1.21875 -3.1875 C -1.257812 -3.5625 -1.203125 -3.898438 -1.046875 -4.203125 C -0.890625 -4.515625 -0.640625 -4.78125 -0.296875 -5 C 0.046875 -5.21875 0.390625 -5.332031 0.734375 -5.34375 C 1.078125 -5.363281 1.40625 -5.273438 1.71875 -5.078125 C 2.03125 -4.890625 2.316406 -4.597656 2.578125 -4.203125 C 2.835938 -3.796875 2.988281 -3.410156 3.03125 -3.046875 C 3.070312 -2.691406 3.015625 -2.359375 2.859375 -2.046875 C 2.703125 -1.742188 2.453125 -1.484375 2.109375 -1.265625 Z M 1.796875 -1.734375 C 2.148438 -1.960938 2.347656 -2.253906 2.390625 -2.609375 C 2.441406 -2.960938 2.316406 -3.375 2.015625 -3.84375 C 1.710938 -4.320312 1.390625 -4.609375 1.046875 -4.703125 C 0.703125 -4.804688 0.351562 -4.742188 0 -4.515625 C -0.351562 -4.285156 -0.550781 -3.992188 -0.59375 -3.640625 C -0.632812 -3.296875 -0.503906 -2.882812 -0.203125 -2.40625 C 0.0976562 -1.9375 0.414062 -1.648438 0.75 -1.546875 C 1.09375 -1.441406 1.441406 -1.503906 1.796875 -1.734375 Z M 1.796875 -1.734375 "/></g></g></g><g fill="#000000" fill-opacity="1"><g transform="translate(27.933381, 13.054776)"><g><path d="M 2.28125 -0.890625 C 1.9375 -0.742188 1.59375 -0.691406 1.25 -0.734375 C 0.90625 -0.773438 0.585938 -0.910156 0.296875 -1.140625 C 0.00390625 -1.378906 -0.234375 -1.71875 -0.421875 -2.15625 C -0.597656 -2.582031 -0.675781 -2.984375 -0.65625 -3.359375 C -0.632812 -3.734375 -0.519531 -4.054688 -0.3125 -4.328125 C -0.101562 -4.609375 0.171875 -4.820312 0.515625 -4.96875 C 0.921875 -5.15625 1.28125 -5.222656 1.59375 -5.171875 C 1.914062 -5.117188 2.1875 -4.988281 2.40625 -4.78125 L 2.15625 -4.328125 L 2.078125 -4.296875 C 1.878906 -4.472656 1.671875 -4.570312 1.453125 -4.59375 C 1.242188 -4.625 1.003906 -4.578125 0.734375 -4.453125 C 0.492188 -4.359375 0.304688 -4.210938 0.171875 -4.015625 C 0.046875 -3.816406 -0.015625 -3.582031 -0.015625 -3.3125 C -0.0234375 -3.039062 0.0351562 -2.742188 0.171875 -2.421875 C 0.316406 -2.085938 0.488281 -1.828125 0.6875 -1.640625 C 0.894531 -1.453125 1.113281 -1.34375 1.34375 -1.3125 C 1.582031 -1.28125 1.820312 -1.3125 2.0625 -1.40625 C 2.34375 -1.53125 2.539062 -1.691406 2.65625 -1.890625 C 2.78125 -2.097656 2.835938 -2.359375 2.828125 -2.671875 L 2.890625 -2.703125 L 3.375 -2.625 C 3.414062 -2.25 3.34375 -1.910156 3.15625 -1.609375 C 2.976562 -1.316406 2.6875 -1.078125 2.28125 -0.890625 Z M 2.28125 -0.890625 "/></g></g></g><g fill="#000000" fill-opacity="1"><g transform="translate(31.716036, 11.466911)"><g><path d="M -0.46875 -5.1875 C -0.59375 -5.144531 -0.707031 -5.148438 -0.8125 -5.203125 C -0.925781 -5.265625 -1 -5.359375 -1.03125 -5.484375 C -1.070312 -5.597656 -1.0625 -5.707031 -1 -5.8125 C -0.9375 -5.914062 -0.84375 -5.988281 -0.71875 -6.03125 C -0.582031 -6.070312 -0.460938 -6.0625 -0.359375 -6 C -0.265625 -5.945312 -0.195312 -5.863281 -0.15625 -5.75 C -0.125 -5.625 -0.132812 -5.507812 -0.1875 -5.40625 C -0.238281 -5.300781 -0.332031 -5.226562 -0.46875 -5.1875 Z M 0.71875 -0.21875 L -0.53125 -4.3125 L 0.0625 -4.5 L 1.3125 -0.40625 Z M 0.71875 -0.21875 "/></g></g></g><g fill="#000000" fill-opacity="1"><g transform="translate(33.434651, 10.857994)"><g><path d="M 1.75 -0.234375 C 1.332031 -0.160156 0.988281 -0.207031 0.71875 -0.375 C 0.445312 -0.550781 0.273438 -0.84375 0.203125 -1.25 C 0.160156 -1.488281 0.171875 -1.703125 0.234375 -1.890625 C 0.304688 -2.085938 0.441406 -2.257812 0.640625 -2.40625 C 0.835938 -2.550781 1.101562 -2.6875 1.4375 -2.8125 C 1.738281 -2.914062 1.960938 -3.015625 2.109375 -3.109375 C 2.253906 -3.203125 2.347656 -3.289062 2.390625 -3.375 C 2.429688 -3.46875 2.441406 -3.578125 2.421875 -3.703125 C 2.390625 -3.890625 2.296875 -4.019531 2.140625 -4.09375 C 1.984375 -4.175781 1.765625 -4.191406 1.484375 -4.140625 C 1.203125 -4.085938 0.972656 -3.988281 0.796875 -3.84375 C 0.628906 -3.707031 0.488281 -3.523438 0.375 -3.296875 L 0.296875 -3.28125 L -0.09375 -3.640625 C 0.0390625 -3.898438 0.234375 -4.117188 0.484375 -4.296875 C 0.734375 -4.484375 1.035156 -4.609375 1.390625 -4.671875 C 1.878906 -4.765625 2.257812 -4.722656 2.53125 -4.546875 C 2.8125 -4.367188 2.984375 -4.09375 3.046875 -3.71875 L 3.453125 -1.484375 C 3.492188 -1.242188 3.613281 -1.140625 3.8125 -1.171875 C 3.882812 -1.191406 3.953125 -1.21875 4.015625 -1.25 L 4.0625 -1.234375 L 4.21875 -0.828125 C 4.1875 -0.796875 4.128906 -0.765625 4.046875 -0.734375 C 3.972656 -0.703125 3.894531 -0.675781 3.8125 -0.65625 C 3.582031 -0.613281 3.398438 -0.632812 3.265625 -0.71875 C 3.140625 -0.800781 3.035156 -0.9375 2.953125 -1.125 L 2.875 -1.125 C 2.800781 -0.882812 2.671875 -0.691406 2.484375 -0.546875 C 2.304688 -0.398438 2.0625 -0.296875 1.75 -0.234375 Z M 1.796875 -0.765625 C 2.035156 -0.804688 2.226562 -0.894531 2.375 -1.03125 C 2.519531 -1.164062 2.625 -1.335938 2.6875 -1.546875 C 2.75 -1.765625 2.753906 -2 2.703125 -2.25 L 2.609375 -2.796875 L 2.53125 -2.796875 C 2.445312 -2.722656 2.335938 -2.648438 2.203125 -2.578125 C 2.078125 -2.503906 1.898438 -2.425781 1.671875 -2.34375 C 1.429688 -2.257812 1.242188 -2.171875 1.109375 -2.078125 C 0.984375 -1.984375 0.898438 -1.878906 0.859375 -1.765625 C 0.816406 -1.648438 0.804688 -1.515625 0.828125 -1.359375 C 0.878906 -1.109375 0.988281 -0.929688 1.15625 -0.828125 C 1.320312 -0.734375 1.535156 -0.710938 1.796875 -0.765625 Z M 1.796875 -0.765625 "/></g></g></g><g fill="#000000" fill-opacity="1"><g transform="translate(37.438917, 10.14425)"><g><path d="M 2.859375 -0.796875 L 3.078125 -0.359375 C 2.984375 -0.265625 2.851562 -0.1875 2.6875 -0.125 C 2.53125 -0.0625 2.351562 -0.0234375 2.15625 -0.015625 C 1.34375 0.015625 0.921875 -0.378906 0.890625 -1.203125 L 0.765625 -3.8125 L 0.015625 -3.78125 L 0 -4.296875 L 0.75 -4.328125 L 0.703125 -5.234375 L 1.328125 -5.359375 L 1.375 -4.359375 L 2.765625 -4.421875 L 2.78125 -3.90625 L 1.390625 -3.84375 L 1.5 -1.296875 C 1.53125 -0.804688 1.757812 -0.566406 2.1875 -0.578125 C 2.425781 -0.585938 2.625 -0.660156 2.78125 -0.796875 Z M 2.859375 -0.796875 "/></g></g></g><g fill="#000000" fill-opacity="1"><g transform="translate(40.441827, 10.022335)"><g><path d="M 1.3125 -5.046875 C 1.175781 -5.046875 1.066406 -5.09375 0.984375 -5.1875 C 0.910156 -5.28125 0.875 -5.390625 0.875 -5.515625 C 0.882812 -5.640625 0.929688 -5.738281 1.015625 -5.8125 C 1.109375 -5.894531 1.222656 -5.9375 1.359375 -5.9375 C 1.492188 -5.925781 1.597656 -5.875 1.671875 -5.78125 C 1.753906 -5.695312 1.789062 -5.59375 1.78125 -5.46875 C 1.78125 -5.34375 1.734375 -5.238281 1.640625 -5.15625 C 1.554688 -5.070312 1.445312 -5.035156 1.3125 -5.046875 Z M 0.75 0.03125 L 0.953125 -4.25 L 1.578125 -4.21875 L 1.375 0.0625 Z M 0.75 0.03125 "/></g></g></g><g fill="#000000" fill-opacity="1"><g transform="translate(42.24598, 10.004451)"><g><path d="M 2.40625 0.5 C 2 0.425781 1.664062 0.273438 1.40625 0.046875 C 1.144531 -0.171875 0.960938 -0.453125 0.859375 -0.796875 C 0.765625 -1.148438 0.753906 -1.5625 0.828125 -2.03125 C 0.910156 -2.488281 1.054688 -2.867188 1.265625 -3.171875 C 1.484375 -3.472656 1.753906 -3.679688 2.078125 -3.796875 C 2.398438 -3.921875 2.765625 -3.945312 3.171875 -3.875 C 3.566406 -3.800781 3.894531 -3.65625 4.15625 -3.4375 C 4.414062 -3.21875 4.597656 -2.925781 4.703125 -2.5625 C 4.804688 -2.207031 4.816406 -1.800781 4.734375 -1.34375 C 4.660156 -0.875 4.515625 -0.492188 4.296875 -0.203125 C 4.078125 0.0859375 3.804688 0.296875 3.484375 0.421875 C 3.160156 0.546875 2.800781 0.570312 2.40625 0.5 Z M 2.5 -0.0625 C 2.914062 0.0078125 3.253906 -0.0664062 3.515625 -0.296875 C 3.785156 -0.523438 3.96875 -0.914062 4.0625 -1.46875 C 4.164062 -2.019531 4.128906 -2.445312 3.953125 -2.75 C 3.785156 -3.050781 3.492188 -3.238281 3.078125 -3.3125 C 2.648438 -3.382812 2.300781 -3.304688 2.03125 -3.078125 C 1.757812 -2.859375 1.570312 -2.472656 1.46875 -1.921875 C 1.375 -1.367188 1.414062 -0.9375 1.59375 -0.625 C 1.769531 -0.320312 2.070312 -0.132812 2.5 -0.0625 Z M 2.5 -0.0625 "/></g></g></g><g fill="#000000" fill-opacity="1"><g transform="translate(46.648148, 10.728245)"><g><path d="M 0.703125 0.25 L 2.140625 -3.78125 L 2.703125 -3.578125 L 2.484375 -2.9375 L 2.546875 -2.890625 C 2.773438 -3.085938 3.007812 -3.207031 3.25 -3.25 C 3.5 -3.300781 3.78125 -3.273438 4.09375 -3.171875 C 4.570312 -2.992188 4.875 -2.738281 5 -2.40625 C 5.132812 -2.082031 5.109375 -1.664062 4.921875 -1.15625 L 4 1.4375 L 3.390625 1.21875 L 4.3125 -1.359375 C 4.394531 -1.597656 4.4375 -1.800781 4.4375 -1.96875 C 4.4375 -2.144531 4.378906 -2.289062 4.265625 -2.40625 C 4.160156 -2.519531 4 -2.617188 3.78125 -2.703125 C 3.414062 -2.828125 3.082031 -2.804688 2.78125 -2.640625 C 2.476562 -2.484375 2.226562 -2.132812 2.03125 -1.59375 L 1.296875 0.46875 Z M 0.703125 0.25 "/></g></g></g><g fill="#000000" fill-opacity="1"><g transform="translate(50.955578, 12.346668)"><g/></g></g><g fill="#000000" fill-opacity="1"><g transform="translate(52.535827, 13.131488)"><g/></g></g><g fill="#000000" fill-opacity="1"><g transform="translate(54.058909, 14.02218)"><g/></g></g><g fill="#000000" fill-opacity="1"><g transform="translate(55.517751, 15.014601)"><g/></g></g><g fill="#000000" fill-opacity="1"><g transform="translate(56.883771, 16.051879)"><g><path d="M 0.6875 0.65625 L 3.265625 -2.078125 L 2.71875 -2.59375 L 3.078125 -2.96875 L 3.625 -2.453125 C 3.71875 -2.617188 3.820312 -2.765625 3.9375 -2.890625 C 4.125 -3.085938 4.328125 -3.21875 4.546875 -3.28125 C 4.765625 -3.34375 4.984375 -3.332031 5.203125 -3.25 C 5.421875 -3.175781 5.628906 -3.046875 5.828125 -2.859375 C 6.140625 -2.566406 6.3125 -2.273438 6.34375 -1.984375 L 5.859375 -1.828125 L 5.8125 -1.875 C 5.757812 -2.082031 5.640625 -2.273438 5.453125 -2.453125 C 5.273438 -2.617188 5.097656 -2.703125 4.921875 -2.703125 C 4.742188 -2.703125 4.570312 -2.613281 4.40625 -2.4375 C 4.300781 -2.332031 4.191406 -2.195312 4.078125 -2.03125 L 5.078125 -1.078125 L 4.71875 -0.703125 L 3.71875 -1.65625 L 1.140625 1.078125 Z M 0.6875 0.65625 "/></g></g></g><g fill="#000000" fill-opacity="1"><g transform="translate(58.898845, 17.829858)"><g><path d="M 1.46875 1.96875 C 1.21875 1.644531 1.066406 1.316406 1.015625 0.984375 C 0.960938 0.648438 1.015625 0.316406 1.171875 -0.015625 C 1.328125 -0.359375 1.59375 -0.679688 1.96875 -0.984375 C 2.332031 -1.273438 2.691406 -1.457031 3.046875 -1.53125 C 3.410156 -1.613281 3.753906 -1.59375 4.078125 -1.46875 C 4.398438 -1.34375 4.6875 -1.117188 4.9375 -0.796875 C 5.1875 -0.484375 5.335938 -0.160156 5.390625 0.171875 C 5.441406 0.515625 5.382812 0.851562 5.21875 1.1875 C 5.0625 1.519531 4.800781 1.832031 4.4375 2.125 C 4.0625 2.425781 3.695312 2.617188 3.34375 2.703125 C 2.988281 2.785156 2.648438 2.757812 2.328125 2.625 C 2.003906 2.5 1.71875 2.28125 1.46875 1.96875 Z M 1.90625 1.625 C 2.175781 1.957031 2.488281 2.125 2.84375 2.125 C 3.195312 2.125 3.59375 1.945312 4.03125 1.59375 C 4.46875 1.25 4.722656 0.90625 4.796875 0.5625 C 4.867188 0.21875 4.769531 -0.117188 4.5 -0.453125 C 4.226562 -0.785156 3.914062 -0.957031 3.5625 -0.96875 C 3.207031 -0.976562 2.8125 -0.8125 2.375 -0.46875 C 1.9375 -0.113281 1.679688 0.238281 1.609375 0.59375 C 1.535156 0.945312 1.632812 1.289062 1.90625 1.625 Z M 1.90625 1.625 "/></g></g></g><g fill="#000000" fill-opacity="1"><g transform="translate(61.703222, 21.383901)"><g><path d="M 0.375 0.640625 L 4.0625 -1.53125 L 4.375 -1.015625 L 3.796875 -0.671875 L 3.796875 -0.59375 C 4.328125 -0.664062 4.734375 -0.460938 5.015625 0.015625 C 5.160156 0.265625 5.222656 0.476562 5.203125 0.65625 L 4.671875 0.796875 L 4.609375 0.734375 C 4.585938 0.554688 4.53125 0.390625 4.4375 0.234375 C 4.257812 -0.0664062 4.015625 -0.234375 3.703125 -0.265625 C 3.398438 -0.296875 3.003906 -0.164062 2.515625 0.125 L 0.703125 1.1875 Z M 0.375 0.640625 "/></g></g></g><g fill="#000000" fill-opacity="1"><g transform="translate(63.234557, 24.029949)"><g/></g></g><g fill="#000000" fill-opacity="1"><g transform="translate(63.990019, 25.624439)"><g/></g></g><g fill="#000000" fill-opacity="1"><g transform="translate(64.635056, 27.266709)"><g/></g></g><g fill="#000000" fill-opacity="1"><g transform="translate(65.166667, 28.949118)"><g/></g></g><g fill="#000000" fill-opacity="1"><g transform="translate(65.582384, 30.663846)"><g/></g></g><g fill="#000000" fill-opacity="1"><g transform="translate(65.958278, 32.259188)"><g><path d="M 0.03125 2.484375 C 0.0195312 2.117188 0.0507812 1.789062 0.125 1.5 C 0.207031 1.21875 0.328125 0.976562 0.484375 0.78125 C 0.640625 0.59375 0.804688 0.445312 0.984375 0.34375 L 1.4375 0.6875 L 1.453125 0.78125 C 0.867188 1.15625 0.59375 1.710938 0.625 2.453125 C 0.644531 2.867188 0.75 3.175781 0.9375 3.375 C 1.125 3.582031 1.378906 3.675781 1.703125 3.65625 C 1.890625 3.65625 2.046875 3.613281 2.171875 3.53125 C 2.304688 3.457031 2.410156 3.34375 2.484375 3.1875 C 2.566406 3.03125 2.640625 2.8125 2.703125 2.53125 L 2.828125 1.859375 C 2.929688 1.359375 3.101562 0.984375 3.34375 0.734375 C 3.59375 0.492188 3.921875 0.363281 4.328125 0.34375 C 4.609375 0.332031 4.859375 0.394531 5.078125 0.53125 C 5.304688 0.664062 5.488281 0.867188 5.625 1.140625 C 5.757812 1.421875 5.835938 1.753906 5.859375 2.140625 C 5.878906 2.566406 5.835938 2.925781 5.734375 3.21875 C 5.628906 3.519531 5.460938 3.765625 5.234375 3.953125 L 4.78125 3.640625 L 4.765625 3.546875 C 4.960938 3.367188 5.101562 3.164062 5.1875 2.9375 C 5.269531 2.71875 5.300781 2.457031 5.28125 2.15625 C 5.257812 1.757812 5.164062 1.46875 5 1.28125 C 4.84375 1.09375 4.632812 1.003906 4.375 1.015625 C 4.113281 1.023438 3.910156 1.109375 3.765625 1.265625 C 3.617188 1.421875 3.515625 1.671875 3.453125 2.015625 L 3.328125 2.703125 C 3.210938 3.265625 3.023438 3.671875 2.765625 3.921875 C 2.515625 4.179688 2.179688 4.320312 1.765625 4.34375 C 1.441406 4.363281 1.15625 4.304688 0.90625 4.171875 C 0.65625 4.035156 0.453125 3.820312 0.296875 3.53125 C 0.140625 3.25 0.0507812 2.898438 0.03125 2.484375 Z M 0.03125 2.484375 "/></g></g></g><g fill="#000000" fill-opacity="1"><g transform="translate(66.136077, 36.738826)"><g><path d="M 0.390625 2.9375 L -0.078125 3.09375 C -0.160156 2.976562 -0.21875 2.835938 -0.25 2.671875 C -0.289062 2.515625 -0.300781 2.335938 -0.28125 2.140625 C -0.207031 1.335938 0.238281 0.972656 1.0625 1.046875 L 3.65625 1.296875 L 3.734375 0.546875 L 4.25 0.59375 L 4.171875 1.34375 L 5.0625 1.4375 L 5.09375 2.0625 L 4.109375 1.96875 L 3.984375 3.34375 L 3.46875 3.296875 L 3.59375 1.921875 L 1.0625 1.671875 C 0.570312 1.628906 0.3125 1.816406 0.28125 2.234375 C 0.25 2.472656 0.289062 2.679688 0.40625 2.859375 Z M 0.390625 2.9375 "/></g></g></g><g fill="#000000" fill-opacity="1"><g transform="translate(65.946831, 39.619336)"><g><path d="M -0.578125 2.03125 C -0.460938 1.570312 -0.253906 1.253906 0.046875 1.078125 C 0.359375 0.898438 0.75 0.867188 1.21875 0.984375 L 4 1.65625 L 3.84375 2.28125 L 1.078125 1.625 C 0.453125 1.46875 0.0703125 1.679688 -0.0625 2.265625 C -0.15625 2.648438 -0.101562 2.984375 0.09375 3.265625 C 0.289062 3.546875 0.660156 3.75 1.203125 3.875 L 3.34375 4.390625 L 3.1875 5 L -0.96875 4 L -0.828125 3.421875 L -0.171875 3.578125 L -0.140625 3.5 C -0.359375 3.289062 -0.503906 3.070312 -0.578125 2.84375 C -0.648438 2.613281 -0.648438 2.34375 -0.578125 2.03125 Z M -0.578125 2.03125 "/></g></g></g><g fill="#000000" fill-opacity="1"><g transform="translate(64.956952, 43.915375)"><g><path d="M -0.96875 2 C -0.832031 1.6875 -0.632812 1.441406 -0.375 1.265625 C -0.125 1.085938 0.179688 0.992188 0.546875 0.984375 C 0.910156 0.984375 1.320312 1.082031 1.78125 1.28125 C 2.226562 1.476562 2.566406 1.710938 2.796875 1.984375 C 3.035156 2.265625 3.175781 2.5625 3.21875 2.875 C 3.269531 3.195312 3.222656 3.523438 3.078125 3.859375 C 2.960938 4.109375 2.804688 4.316406 2.609375 4.484375 C 2.421875 4.648438 2.1875 4.753906 1.90625 4.796875 L 1.890625 4.890625 L 4 5.796875 L 3.734375 6.390625 L -1.75 4 L -1.484375 3.40625 L -0.90625 3.65625 L -0.859375 3.578125 C -1.003906 3.378906 -1.09375 3.140625 -1.125 2.859375 C -1.15625 2.585938 -1.101562 2.300781 -0.96875 2 Z M -0.53125 2.40625 C -0.6875 2.769531 -0.6875 3.113281 -0.53125 3.4375 C -0.375 3.757812 -0.0351562 4.035156 0.484375 4.265625 C 0.984375 4.484375 1.40625 4.539062 1.75 4.4375 C 2.101562 4.332031 2.359375 4.097656 2.515625 3.734375 C 2.679688 3.347656 2.679688 3 2.515625 2.6875 C 2.359375 2.382812 2.023438 2.117188 1.515625 1.890625 C 0.492188 1.441406 -0.1875 1.613281 -0.53125 2.40625 Z M -0.53125 2.40625 "/></g></g></g><g fill="#000000" fill-opacity="1"><g transform="translate(63.102041, 48.194716)"><g><path d="M -0.578125 4.5 L 1.03125 2.046875 C 0.59375 1.773438 0.210938 1.664062 -0.109375 1.71875 C -0.441406 1.78125 -0.722656 1.984375 -0.953125 2.328125 C -1.117188 2.578125 -1.207031 2.8125 -1.21875 3.03125 C -1.226562 3.25 -1.164062 3.46875 -1.03125 3.6875 L -1.078125 3.75 L -1.5 3.953125 C -1.6875 3.679688 -1.78125 3.378906 -1.78125 3.046875 C -1.78125 2.722656 -1.660156 2.378906 -1.421875 2.015625 C -1.191406 1.671875 -0.925781 1.414062 -0.625 1.25 C -0.332031 1.09375 -0.00390625 1.035156 0.359375 1.078125 C 0.734375 1.128906 1.125 1.289062 1.53125 1.5625 C 1.9375 1.832031 2.226562 2.128906 2.40625 2.453125 C 2.582031 2.785156 2.660156 3.113281 2.640625 3.4375 C 2.628906 3.769531 2.519531 4.097656 2.3125 4.421875 C 2.007812 4.878906 1.644531 5.148438 1.21875 5.234375 C 0.789062 5.328125 0.320312 5.203125 -0.1875 4.859375 C -0.394531 4.734375 -0.523438 4.640625 -0.578125 4.578125 Z M 0.15625 4.34375 C 0.539062 4.59375 0.875 4.691406 1.15625 4.640625 C 1.4375 4.597656 1.675781 4.429688 1.875 4.140625 C 2.082031 3.816406 2.15625 3.507812 2.09375 3.21875 C 2.03125 2.925781 1.820312 2.632812 1.46875 2.34375 Z M 0.15625 4.34375 "/></g></g></g><g fill="#000000" fill-opacity="1"><g transform="translate(60.879114, 51.671932)"><g><path d="M -0.515625 0.546875 L 2.625 3.453125 L 2.234375 3.890625 L 1.734375 3.4375 L 1.65625 3.484375 C 1.75 3.765625 1.769531 4.03125 1.71875 4.28125 C 1.664062 4.53125 1.53125 4.773438 1.3125 5.015625 C 0.96875 5.378906 0.613281 5.554688 0.25 5.546875 C -0.101562 5.535156 -0.476562 5.347656 -0.875 4.984375 L -2.890625 3.109375 L -2.453125 2.640625 L -0.453125 4.5 C -0.253906 4.675781 -0.078125 4.796875 0.078125 4.859375 C 0.234375 4.921875 0.382812 4.925781 0.53125 4.875 C 0.675781 4.820312 0.828125 4.710938 0.984375 4.546875 C 1.253906 4.265625 1.375 3.953125 1.34375 3.609375 C 1.3125 3.265625 1.085938 2.894531 0.671875 2.5 L -0.9375 1.015625 Z M -0.515625 0.546875 "/></g></g></g><g fill="#000000" fill-opacity="1"><g transform="translate(57.764029, 54.982715)"><g><path d="M -1.828125 2.328125 L -2.265625 2.109375 C -2.242188 1.972656 -2.1875 1.832031 -2.09375 1.6875 C -2 1.550781 -1.875 1.421875 -1.71875 1.296875 C -1.09375 0.785156 -0.519531 0.851562 0 1.5 L 1.640625 3.515625 L 2.234375 3.046875 L 2.546875 3.453125 L 1.953125 3.921875 L 2.53125 4.625 L 2.09375 5.09375 L 1.46875 4.3125 L 0.390625 5.1875 L 0.078125 4.78125 L 1.15625 3.90625 L -0.453125 1.9375 C -0.765625 1.550781 -1.085938 1.492188 -1.421875 1.765625 C -1.609375 1.910156 -1.722656 2.082031 -1.765625 2.28125 Z M -1.828125 2.328125 "/></g></g></g></svg>