<svg xmlns="http://www.w3.org/2000/svg" xmlns:xlink="http://www.w3.org/1999/xlink" width="100" zoomAndPan="magnify" viewBox="0 0 75 74.999997" height="100" preserveAspectRatio="xMidYMid meet" version="1.0"><defs><g/><clipPath id="a7d00306e4"><path d="M 0 17.105469 L 34.523438 17.105469 L 34.523438 51.625 L 0 51.625 Z M 0 17.105469 " clip-rule="nonzero"/></clipPath><clipPath id="7bfe08ce2d"><path d="M 17.261719 17.105469 C 7.726562 17.105469 0 24.832031 0 34.367188 C 0 43.898438 7.726562 51.625 17.261719 51.625 C 26.792969 51.625 34.523438 43.898438 34.523438 34.367188 C 34.523438 24.832031 26.792969 17.105469 17.261719 17.105469 Z M 17.261719 17.105469 " clip-rule="nonzero"/></clipPath><clipPath id="f41338009e"><path d="M 1.238281 18.34375 L 33.285156 18.34375 L 33.285156 50.390625 L 1.238281 50.390625 Z M 1.238281 18.34375 " clip-rule="nonzero"/></clipPath><clipPath id="5ef16a0de9"><path d="M 17.261719 18.34375 C 8.410156 18.34375 1.238281 25.515625 1.238281 34.367188 C 1.238281 43.214844 8.410156 50.390625 17.261719 50.390625 C 26.109375 50.390625 33.285156 43.214844 33.285156 34.367188 C 33.285156 25.515625 26.109375 18.34375 17.261719 18.34375 Z M 17.261719 18.34375 " clip-rule="nonzero"/></clipPath><clipPath id="8661d5d750"><path d="M 9.761719 26.132812 L 24.757812 26.132812 L 24.757812 41.132812 L 9.761719 41.132812 Z M 9.761719 26.132812 " clip-rule="nonzero"/></clipPath><clipPath id="3cac9fa2d3"><path d="M 17.261719 26.132812 C 13.121094 26.132812 9.761719 29.492188 9.761719 33.632812 C 9.761719 37.773438 13.121094 41.132812 17.261719 41.132812 C 21.402344 41.132812 24.757812 37.773438 24.757812 33.632812 C 24.757812 29.492188 21.402344 26.132812 17.261719 26.132812 Z M 17.261719 26.132812 " clip-rule="nonzero"/></clipPath><clipPath id="5eeff2e471"><path d="M 12.308594 28.679688 L 22.214844 28.679688 L 22.214844 38.585938 L 12.308594 38.585938 Z M 12.308594 28.679688 " clip-rule="nonzero"/></clipPath><clipPath id="0a94eebdd5"><path d="M 17.261719 28.679688 C 14.523438 28.679688 12.308594 30.898438 12.308594 33.632812 C 12.308594 36.367188 14.523438 38.585938 17.261719 38.585938 C 19.996094 38.585938 22.214844 36.367188 22.214844 33.632812 C 22.214844 30.898438 19.996094 28.679688 17.261719 28.679688 Z M 17.261719 28.679688 " clip-rule="nonzero"/></clipPath></defs><g clip-path="url(#a7d00306e4)"><g clip-path="url(#7bfe08ce2d)"><path fill="#51998c" d="M 0 17.105469 L 34.523438 17.105469 L 34.523438 51.625 L 0 51.625 Z M 0 17.105469 " fill-opacity="1" fill-rule="nonzero"/></g></g><g clip-path="url(#f41338009e)"><g clip-path="url(#5ef16a0de9)"><path fill="#90c6cd" d="M 1.238281 18.34375 L 33.285156 18.34375 L 33.285156 50.390625 L 1.238281 50.390625 Z M 1.238281 18.34375 " fill-opacity="1" fill-rule="nonzero"/></g></g><g clip-path="url(#8661d5d750)"><g clip-path="url(#3cac9fa2d3)"><path fill="#18abbc" d="M 9.761719 26.132812 L 24.757812 26.132812 L 24.757812 41.132812 L 9.761719 41.132812 Z M 9.761719 26.132812 " fill-opacity="1" fill-rule="nonzero"/></g></g><g clip-path="url(#5eeff2e471)"><g clip-path="url(#0a94eebdd5)"><path fill="#000000" d="M 12.308594 28.679688 L 22.214844 28.679688 L 22.214844 38.585938 L 12.308594 38.585938 Z M 12.308594 28.679688 " fill-opacity="1" fill-rule="nonzero"/></g></g><g fill="#90c6cd" fill-opacity="1"><g transform="translate(48.452074, 38.638834)"><g><path d="M 2.390625 0.109375 C 1.992188 0.109375 1.648438 0.0390625 1.359375 -0.09375 C 1.078125 -0.238281 0.859375 -0.453125 0.703125 -0.734375 C 0.546875 -1.015625 0.46875 -1.351562 0.46875 -1.75 C 0.46875 -2.113281 0.546875 -2.414062 0.703125 -2.65625 C 0.859375 -2.90625 1.097656 -3.109375 1.421875 -3.265625 C 1.742188 -3.421875 2.171875 -3.539062 2.703125 -3.625 C 3.066406 -3.6875 3.34375 -3.753906 3.53125 -3.828125 C 3.726562 -3.898438 3.859375 -3.976562 3.921875 -4.0625 C 3.992188 -4.15625 4.03125 -4.269531 4.03125 -4.40625 C 4.03125 -4.601562 3.957031 -4.753906 3.8125 -4.859375 C 3.675781 -4.960938 3.453125 -5.015625 3.140625 -5.015625 C 2.796875 -5.015625 2.46875 -4.9375 2.15625 -4.78125 C 1.851562 -4.632812 1.585938 -4.4375 1.359375 -4.1875 L 1.25 -4.1875 L 0.609375 -5.15625 C 0.921875 -5.5 1.300781 -5.765625 1.75 -5.953125 C 2.195312 -6.148438 2.6875 -6.25 3.21875 -6.25 C 4.03125 -6.25 4.613281 -6.078125 4.96875 -5.734375 C 5.332031 -5.390625 5.515625 -4.898438 5.515625 -4.265625 L 5.515625 -1.609375 C 5.515625 -1.328125 5.640625 -1.1875 5.890625 -1.1875 C 5.984375 -1.1875 6.070312 -1.203125 6.15625 -1.234375 L 6.234375 -1.21875 L 6.34375 -0.140625 C 6.257812 -0.0859375 6.140625 -0.0390625 5.984375 0 C 5.835938 0.03125 5.671875 0.046875 5.484375 0.046875 C 5.117188 0.046875 4.832031 -0.0195312 4.625 -0.15625 C 4.425781 -0.300781 4.28125 -0.523438 4.1875 -0.828125 L 4.078125 -0.84375 C 3.773438 -0.207031 3.210938 0.109375 2.390625 0.109375 Z M 2.875 -1.03125 C 3.238281 -1.03125 3.523438 -1.148438 3.734375 -1.390625 C 3.941406 -1.628906 4.046875 -1.960938 4.046875 -2.390625 L 4.046875 -3.015625 L 3.953125 -3.03125 C 3.859375 -2.957031 3.734375 -2.894531 3.578125 -2.84375 C 3.429688 -2.800781 3.21875 -2.753906 2.9375 -2.703125 C 2.601562 -2.648438 2.363281 -2.554688 2.21875 -2.421875 C 2.070312 -2.285156 2 -2.09375 2 -1.84375 C 2 -1.582031 2.078125 -1.378906 2.234375 -1.234375 C 2.390625 -1.097656 2.601562 -1.03125 2.875 -1.03125 Z M 2.875 -1.03125 "/></g></g></g><g fill="#90c6cd" fill-opacity="1"><g transform="translate(54.921796, 38.638834)"><g><path d="M 0.890625 0 L 0.890625 -8.59375 L 2.421875 -8.59375 L 2.421875 -3.828125 L 2.578125 -3.828125 L 4.34375 -6.140625 L 5.90625 -6.140625 L 5.90625 -6 L 3.828125 -3.3125 L 6.140625 -0.140625 L 6.140625 0 L 4.515625 0 L 2.578125 -2.59375 L 2.421875 -2.59375 L 2.421875 0 Z M 0.890625 0 "/></g></g></g><g fill="#90c6cd" fill-opacity="1"><g transform="translate(61.079992, 38.638834)"><g><path d="M 1.65625 -6.875 C 1.375 -6.875 1.144531 -6.957031 0.96875 -7.125 C 0.800781 -7.289062 0.71875 -7.507812 0.71875 -7.78125 C 0.71875 -8.039062 0.800781 -8.253906 0.96875 -8.421875 C 1.144531 -8.585938 1.375 -8.671875 1.65625 -8.671875 C 1.84375 -8.671875 2.003906 -8.628906 2.140625 -8.546875 C 2.285156 -8.472656 2.398438 -8.367188 2.484375 -8.234375 C 2.566406 -8.097656 2.609375 -7.945312 2.609375 -7.78125 C 2.609375 -7.601562 2.566406 -7.445312 2.484375 -7.3125 C 2.398438 -7.175781 2.285156 -7.066406 2.140625 -6.984375 C 2.003906 -6.910156 1.84375 -6.875 1.65625 -6.875 Z M 0.890625 0 L 0.890625 -6.140625 L 2.421875 -6.140625 L 2.421875 0 Z M 0.890625 0 "/></g></g></g><g fill="#90c6cd" fill-opacity="1"><g transform="translate(64.384389, 38.638834)"><g><path d="M 0.890625 0 L 0.890625 -6.140625 L 2.359375 -6.140625 L 2.359375 -5.3125 L 2.484375 -5.296875 C 2.679688 -5.617188 2.914062 -5.859375 3.1875 -6.015625 C 3.457031 -6.171875 3.800781 -6.25 4.21875 -6.25 C 4.675781 -6.25 5.046875 -6.15625 5.328125 -5.96875 C 5.609375 -5.789062 5.816406 -5.523438 5.953125 -5.171875 L 6.0625 -5.171875 C 6.257812 -5.535156 6.503906 -5.804688 6.796875 -5.984375 C 7.097656 -6.160156 7.472656 -6.25 7.921875 -6.25 C 9.191406 -6.25 9.828125 -5.539062 9.828125 -4.125 L 9.828125 0 L 8.28125 0 L 8.28125 -3.9375 C 8.28125 -4.289062 8.207031 -4.546875 8.0625 -4.703125 C 7.925781 -4.867188 7.703125 -4.953125 7.390625 -4.953125 C 6.546875 -4.953125 6.125 -4.382812 6.125 -3.25 L 6.125 0 L 4.578125 0 L 4.578125 -3.9375 C 4.578125 -4.289062 4.503906 -4.546875 4.359375 -4.703125 C 4.222656 -4.867188 4 -4.953125 3.6875 -4.953125 C 3.289062 -4.953125 2.976562 -4.816406 2.75 -4.546875 C 2.53125 -4.285156 2.421875 -3.863281 2.421875 -3.28125 L 2.421875 0 Z M 0.890625 0 "/></g></g></g><g fill="#000000" fill-opacity="1"><g transform="translate(39.477592, 38.638834)"><g><path d="M 6.3125 -5.078125 L 6.3125 -8.125 L 7.90625 -8.125 L 7.90625 0 L 6.3125 0 L 6.3125 -3.703125 L 2.671875 -3.703125 L 2.671875 0 L 1.0625 0 L 1.0625 -8.125 L 2.671875 -8.125 L 2.671875 -5.078125 Z M 6.3125 -5.078125 "/></g></g></g><g fill="#000000" fill-opacity="1"><g transform="translate(10.845934, 44.680105)"><g><path d="M -0.546875 -0.46875 L -0.328125 -0.265625 L -2.09375 1.84375 L -2.453125 1.53125 L -1.578125 -0.78125 L -1.625 -0.8125 L -3.75 0.4375 L -4.109375 0.140625 L -2.34375 -1.96875 L -2.109375 -1.765625 L -3.546875 -0.0625 L -3.515625 -0.015625 L -1.453125 -1.21875 L -1.203125 -1.015625 L -2.046875 1.21875 L -1.984375 1.234375 Z M -0.546875 -0.46875 "/></g></g></g><g fill="#000000" fill-opacity="1"><g transform="translate(8.413765, 42.586591)"><g><path d="M -1.96875 -0.953125 L -1.109375 0.15625 C -0.910156 0 -0.800781 -0.160156 -0.78125 -0.328125 C -0.757812 -0.492188 -0.804688 -0.648438 -0.921875 -0.796875 C -1.003906 -0.910156 -1.09375 -0.988281 -1.1875 -1.03125 C -1.289062 -1.070312 -1.398438 -1.078125 -1.515625 -1.046875 L -1.546875 -1.078125 L -1.578125 -1.3125 C -1.421875 -1.34375 -1.269531 -1.335938 -1.125 -1.296875 C -0.976562 -1.253906 -0.835938 -1.144531 -0.703125 -0.96875 C -0.578125 -0.8125 -0.5 -0.648438 -0.46875 -0.484375 C -0.445312 -0.316406 -0.472656 -0.15625 -0.546875 0 C -0.628906 0.144531 -0.765625 0.296875 -0.953125 0.453125 C -1.140625 0.597656 -1.320312 0.6875 -1.5 0.71875 C -1.675781 0.757812 -1.835938 0.742188 -1.984375 0.671875 C -2.140625 0.609375 -2.269531 0.507812 -2.375 0.375 C -2.539062 0.15625 -2.609375 -0.0546875 -2.578125 -0.265625 C -2.554688 -0.472656 -2.429688 -0.664062 -2.203125 -0.84375 C -2.109375 -0.914062 -2.046875 -0.960938 -2.015625 -0.984375 Z M -2.03125 -0.609375 C -2.1875 -0.460938 -2.273438 -0.320312 -2.296875 -0.1875 C -2.328125 -0.0625 -2.285156 0.0703125 -2.171875 0.21875 C -2.066406 0.351562 -1.941406 0.429688 -1.796875 0.453125 C -1.648438 0.472656 -1.488281 0.425781 -1.3125 0.3125 Z M -2.03125 -0.609375 "/></g></g></g><g fill="#000000" fill-opacity="1"><g transform="translate(7.165404, 41.034486)"><g><path d="M -0.453125 -0.96875 C -0.378906 -0.820312 -0.347656 -0.671875 -0.359375 -0.515625 C -0.367188 -0.367188 -0.425781 -0.226562 -0.53125 -0.09375 C -0.644531 0.0390625 -0.804688 0.164062 -1.015625 0.28125 C -1.234375 0.394531 -1.429688 0.453125 -1.609375 0.453125 C -1.785156 0.460938 -1.9375 0.425781 -2.0625 0.34375 C -2.1875 0.269531 -2.289062 0.15625 -2.375 0 C -2.4375 -0.113281 -2.46875 -0.226562 -2.46875 -0.34375 C -2.476562 -0.46875 -2.457031 -0.59375 -2.40625 -0.71875 L -2.421875 -0.75 L -3.40625 -0.234375 L -3.546875 -0.5 L -0.984375 -1.859375 L -0.84375 -1.59375 L -1.109375 -1.453125 L -1.109375 -1.421875 C -0.984375 -1.398438 -0.859375 -1.351562 -0.734375 -1.28125 C -0.617188 -1.207031 -0.523438 -1.101562 -0.453125 -0.96875 Z M -0.75 -0.921875 C -0.84375 -1.085938 -0.972656 -1.191406 -1.140625 -1.234375 C -1.304688 -1.273438 -1.507812 -1.234375 -1.75 -1.109375 C -1.988281 -0.984375 -2.140625 -0.835938 -2.203125 -0.671875 C -2.265625 -0.503906 -2.25 -0.335938 -2.15625 -0.171875 C -2.0625 0.00390625 -1.929688 0.109375 -1.765625 0.140625 C -1.609375 0.179688 -1.40625 0.132812 -1.15625 0 C -0.6875 -0.25 -0.550781 -0.554688 -0.75 -0.921875 Z M -0.75 -0.921875 "/></g></g></g><g fill="#000000" fill-opacity="1"><g transform="translate(6.114113, 38.983284)"><g><path d="M -2.5 0.390625 C -2.476562 0.453125 -2.476562 0.503906 -2.5 0.546875 C -2.519531 0.597656 -2.5625 0.640625 -2.625 0.671875 C -2.6875 0.691406 -2.742188 0.691406 -2.796875 0.671875 C -2.847656 0.648438 -2.882812 0.609375 -2.90625 0.546875 C -2.925781 0.492188 -2.925781 0.4375 -2.90625 0.375 C -2.882812 0.320312 -2.84375 0.285156 -2.78125 0.265625 C -2.71875 0.234375 -2.660156 0.234375 -2.609375 0.265625 C -2.554688 0.296875 -2.519531 0.335938 -2.5 0.390625 Z M -0.125 -0.34375 L -2.0625 0.390625 L -2.171875 0.109375 L -0.234375 -0.625 Z M -0.125 -0.34375 "/></g></g></g><g fill="#000000" fill-opacity="1"><g transform="translate(5.765406, 38.174307)"><g><path d="M -0.234375 -1.171875 C -0.191406 -0.984375 -0.191406 -0.8125 -0.234375 -0.65625 C -0.285156 -0.5 -0.382812 -0.359375 -0.53125 -0.234375 C -0.675781 -0.117188 -0.851562 -0.0351562 -1.0625 0.015625 C -1.28125 0.0664062 -1.472656 0.0703125 -1.640625 0.03125 C -1.816406 0 -1.960938 -0.0703125 -2.078125 -0.1875 C -2.203125 -0.300781 -2.285156 -0.453125 -2.328125 -0.640625 C -2.378906 -0.847656 -2.378906 -1.023438 -2.328125 -1.171875 C -2.273438 -1.316406 -2.195312 -1.429688 -2.09375 -1.515625 L -1.875 -1.375 L -1.875 -1.34375 C -1.976562 -1.25 -2.039062 -1.148438 -2.0625 -1.046875 C -2.09375 -0.953125 -2.09375 -0.84375 -2.0625 -0.71875 C -2.03125 -0.59375 -1.972656 -0.488281 -1.890625 -0.40625 C -1.816406 -0.320312 -1.710938 -0.269531 -1.578125 -0.25 C -1.453125 -0.226562 -1.300781 -0.238281 -1.125 -0.28125 C -0.96875 -0.320312 -0.835938 -0.378906 -0.734375 -0.453125 C -0.628906 -0.535156 -0.554688 -0.628906 -0.515625 -0.734375 C -0.484375 -0.847656 -0.484375 -0.96875 -0.515625 -1.09375 C -0.554688 -1.226562 -0.617188 -1.332031 -0.703125 -1.40625 C -0.785156 -1.488281 -0.898438 -1.539062 -1.046875 -1.5625 L -1.0625 -1.609375 L -0.984375 -1.828125 C -0.804688 -1.804688 -0.648438 -1.742188 -0.515625 -1.640625 C -0.378906 -1.535156 -0.285156 -1.378906 -0.234375 -1.171875 Z M -0.234375 -1.171875 "/></g></g></g><g fill="#000000" fill-opacity="1"><g transform="translate(5.284151, 36.300438)"><g><path d="M -0.03125 -0.859375 C -0.0078125 -0.648438 -0.046875 -0.484375 -0.140625 -0.359375 C -0.242188 -0.234375 -0.394531 -0.164062 -0.59375 -0.15625 C -0.71875 -0.144531 -0.820312 -0.160156 -0.90625 -0.203125 C -1 -0.242188 -1.078125 -0.316406 -1.140625 -0.421875 C -1.203125 -0.523438 -1.253906 -0.660156 -1.296875 -0.828125 C -1.328125 -0.972656 -1.363281 -1.082031 -1.40625 -1.15625 C -1.445312 -1.238281 -1.488281 -1.289062 -1.53125 -1.3125 C -1.570312 -1.332031 -1.617188 -1.34375 -1.671875 -1.34375 C -1.765625 -1.332031 -1.832031 -1.289062 -1.875 -1.21875 C -1.925781 -1.15625 -1.945312 -1.050781 -1.9375 -0.90625 C -1.925781 -0.769531 -1.890625 -0.65625 -1.828125 -0.5625 C -1.765625 -0.476562 -1.675781 -0.398438 -1.5625 -0.328125 L -1.5625 -0.296875 L -1.765625 -0.109375 C -1.878906 -0.203125 -1.972656 -0.3125 -2.046875 -0.4375 C -2.128906 -0.570312 -2.179688 -0.722656 -2.203125 -0.890625 C -2.222656 -1.140625 -2.179688 -1.320312 -2.078125 -1.4375 C -1.984375 -1.5625 -1.84375 -1.632812 -1.65625 -1.65625 L -0.5625 -1.75 C -0.445312 -1.757812 -0.390625 -1.8125 -0.390625 -1.90625 C -0.398438 -1.9375 -0.410156 -1.96875 -0.421875 -2 L -0.421875 -2.03125 L -0.203125 -2.078125 C -0.191406 -2.054688 -0.179688 -2.023438 -0.171875 -1.984375 C -0.160156 -1.953125 -0.148438 -1.914062 -0.140625 -1.875 C -0.128906 -1.757812 -0.144531 -1.671875 -0.1875 -1.609375 C -0.238281 -1.546875 -0.3125 -1.503906 -0.40625 -1.484375 L -0.40625 -1.4375 C -0.289062 -1.382812 -0.203125 -1.3125 -0.140625 -1.21875 C -0.078125 -1.125 -0.0390625 -1.003906 -0.03125 -0.859375 Z M -0.28125 -0.90625 C -0.289062 -1.019531 -0.320312 -1.113281 -0.375 -1.1875 C -0.4375 -1.269531 -0.519531 -1.328125 -0.625 -1.359375 C -0.726562 -1.398438 -0.84375 -1.414062 -0.96875 -1.40625 L -1.234375 -1.390625 L -1.234375 -1.359375 C -1.191406 -1.304688 -1.15625 -1.25 -1.125 -1.1875 C -1.101562 -1.125 -1.078125 -1.035156 -1.046875 -0.921875 C -1.023438 -0.796875 -0.992188 -0.695312 -0.953125 -0.625 C -0.910156 -0.5625 -0.863281 -0.515625 -0.8125 -0.484375 C -0.757812 -0.460938 -0.695312 -0.457031 -0.625 -0.46875 C -0.5 -0.476562 -0.40625 -0.519531 -0.34375 -0.59375 C -0.289062 -0.675781 -0.269531 -0.78125 -0.28125 -0.90625 Z M -0.28125 -0.90625 "/></g></g></g><g fill="#000000" fill-opacity="1"><g transform="translate(5.13551, 34.31898)"><g><path d="M 0.078125 -0.828125 C 0.0664062 -0.679688 0.0195312 -0.566406 -0.0625 -0.484375 C -0.144531 -0.398438 -0.269531 -0.363281 -0.4375 -0.375 L -2.890625 -0.46875 L -2.890625 -0.765625 L -0.46875 -0.671875 C -0.375 -0.671875 -0.304688 -0.6875 -0.265625 -0.71875 C -0.222656 -0.757812 -0.203125 -0.8125 -0.203125 -0.875 C -0.203125 -0.914062 -0.207031 -0.960938 -0.21875 -1.015625 L -0.21875 -1.03125 L 0.03125 -1.0625 C 0.0390625 -1.03125 0.0507812 -0.992188 0.0625 -0.953125 C 0.0703125 -0.910156 0.078125 -0.867188 0.078125 -0.828125 Z M 0.078125 -0.828125 "/></g></g></g><g fill="#000000" fill-opacity="1"><g transform="translate(5.172085, 33.292172)"><g/></g></g><g fill="#000000" fill-opacity="1"><g transform="translate(5.264134, 32.444466)"><g/></g></g><g fill="#000000" fill-opacity="1"><g transform="translate(5.414934, 31.605219)"><g/></g></g><g fill="#000000" fill-opacity="1"><g transform="translate(5.623752, 30.778495)"><g/></g></g><g fill="#000000" fill-opacity="1"><g transform="translate(5.889578, 29.968302)"><g/></g></g><g fill="#000000" fill-opacity="1"><g transform="translate(6.127124, 29.2223)"><g><path d="M 1.234375 -2.140625 L 1.0625 -1.84375 L 0.28125 -2 L -0.3125 -0.984375 L 0.21875 -0.390625 L 0.046875 -0.09375 L -1.859375 -2.296875 L -1.640625 -2.6875 Z M -1.46875 -2.296875 L -0.484375 -1.1875 L 0.015625 -2.046875 L -1.4375 -2.34375 Z M -1.46875 -2.296875 "/></g></g></g><g fill="#000000" fill-opacity="1"><g transform="translate(7.313502, 27.172486)"><g><path d="M 0.625 -0.6875 C 0.539062 -0.59375 0.453125 -0.515625 0.359375 -0.453125 C 0.265625 -0.398438 0.171875 -0.359375 0.078125 -0.328125 C -0.015625 -0.304688 -0.101562 -0.3125 -0.1875 -0.34375 L -0.21875 -0.59375 L -0.1875 -0.625 C -0.0625 -0.613281 0.046875 -0.628906 0.140625 -0.671875 C 0.234375 -0.710938 0.320312 -0.78125 0.40625 -0.875 C 0.507812 -1 0.5625 -1.109375 0.5625 -1.203125 C 0.570312 -1.296875 0.53125 -1.378906 0.4375 -1.453125 C 0.382812 -1.503906 0.316406 -1.53125 0.234375 -1.53125 C 0.160156 -1.53125 0.0859375 -1.492188 0.015625 -1.421875 L -0.296875 -1.203125 C -0.429688 -1.085938 -0.566406 -1.03125 -0.703125 -1.03125 C -0.835938 -1.03125 -0.957031 -1.070312 -1.0625 -1.15625 C -1.144531 -1.226562 -1.195312 -1.3125 -1.21875 -1.40625 C -1.25 -1.5 -1.25 -1.601562 -1.21875 -1.71875 C -1.1875 -1.84375 -1.125 -1.957031 -1.03125 -2.0625 C -0.914062 -2.207031 -0.800781 -2.304688 -0.6875 -2.359375 C -0.582031 -2.410156 -0.472656 -2.429688 -0.359375 -2.421875 L -0.328125 -2.1875 L -0.359375 -2.15625 C -0.453125 -2.15625 -0.535156 -2.132812 -0.609375 -2.09375 C -0.691406 -2.050781 -0.769531 -1.984375 -0.84375 -1.890625 C -0.925781 -1.785156 -0.96875 -1.691406 -0.96875 -1.609375 C -0.976562 -1.523438 -0.945312 -1.453125 -0.875 -1.390625 C -0.8125 -1.335938 -0.742188 -1.316406 -0.671875 -1.328125 C -0.609375 -1.335938 -0.523438 -1.382812 -0.421875 -1.46875 L -0.125 -1.671875 C 0.0195312 -1.773438 0.15625 -1.828125 0.28125 -1.828125 C 0.414062 -1.828125 0.535156 -1.78125 0.640625 -1.6875 C 0.742188 -1.613281 0.8125 -1.523438 0.84375 -1.421875 C 0.882812 -1.316406 0.882812 -1.203125 0.84375 -1.078125 C 0.8125 -0.960938 0.738281 -0.832031 0.625 -0.6875 Z M 0.625 -0.6875 "/></g></g></g><g fill="#000000" fill-opacity="1"><g transform="translate(8.403568, 25.822081)"><g><path d="M 0.71875 -0.609375 C 0.625 -0.515625 0.523438 -0.441406 0.421875 -0.390625 C 0.316406 -0.347656 0.210938 -0.320312 0.109375 -0.3125 C 0.015625 -0.3125 -0.0664062 -0.328125 -0.140625 -0.359375 L -0.140625 -0.625 L -0.109375 -0.65625 C 0.015625 -0.613281 0.128906 -0.601562 0.234375 -0.625 C 0.335938 -0.65625 0.4375 -0.71875 0.53125 -0.8125 C 0.644531 -0.914062 0.707031 -1.015625 0.71875 -1.109375 C 0.738281 -1.203125 0.710938 -1.289062 0.640625 -1.375 C 0.585938 -1.425781 0.523438 -1.457031 0.453125 -1.46875 C 0.390625 -1.488281 0.304688 -1.46875 0.203125 -1.40625 L -0.125 -1.21875 C -0.269531 -1.132812 -0.410156 -1.097656 -0.546875 -1.109375 C -0.679688 -1.117188 -0.800781 -1.179688 -0.90625 -1.296875 C -0.96875 -1.367188 -1.003906 -1.457031 -1.015625 -1.5625 C -1.035156 -1.664062 -1.019531 -1.769531 -0.96875 -1.875 C -0.914062 -1.976562 -0.835938 -2.082031 -0.734375 -2.1875 C -0.597656 -2.3125 -0.472656 -2.390625 -0.359375 -2.421875 C -0.242188 -2.460938 -0.128906 -2.46875 -0.015625 -2.4375 L -0.03125 -2.203125 L -0.046875 -2.171875 C -0.148438 -2.179688 -0.238281 -2.175781 -0.3125 -2.15625 C -0.394531 -2.132812 -0.476562 -2.085938 -0.5625 -2.015625 C -0.65625 -1.921875 -0.710938 -1.828125 -0.734375 -1.734375 C -0.765625 -1.640625 -0.75 -1.5625 -0.6875 -1.5 C -0.625 -1.4375 -0.554688 -1.40625 -0.484375 -1.40625 C -0.410156 -1.40625 -0.316406 -1.4375 -0.203125 -1.5 L 0.109375 -1.671875 C 0.273438 -1.765625 0.421875 -1.800781 0.546875 -1.78125 C 0.671875 -1.757812 0.78125 -1.691406 0.875 -1.578125 C 0.957031 -1.484375 1.007812 -1.382812 1.03125 -1.28125 C 1.050781 -1.175781 1.035156 -1.066406 0.984375 -0.953125 C 0.941406 -0.835938 0.851562 -0.722656 0.71875 -0.609375 Z M 0.71875 -0.609375 "/></g></g></g><g fill="#000000" fill-opacity="1"><g transform="translate(9.644552, 24.636084)"><g><path d="M 1.015625 -0.609375 C 0.859375 -0.492188 0.695312 -0.4375 0.53125 -0.4375 C 0.363281 -0.4375 0.203125 -0.476562 0.046875 -0.5625 C -0.0976562 -0.65625 -0.234375 -0.796875 -0.359375 -0.984375 C -0.492188 -1.171875 -0.570312 -1.351562 -0.59375 -1.53125 C -0.625 -1.71875 -0.597656 -1.882812 -0.515625 -2.03125 C -0.441406 -2.175781 -0.328125 -2.304688 -0.171875 -2.421875 C -0.00390625 -2.523438 0.160156 -2.582031 0.328125 -2.59375 C 0.492188 -2.601562 0.648438 -2.5625 0.796875 -2.46875 C 0.953125 -2.375 1.097656 -2.234375 1.234375 -2.046875 C 1.359375 -1.859375 1.429688 -1.675781 1.453125 -1.5 C 1.484375 -1.320312 1.457031 -1.15625 1.375 -1 C 1.300781 -0.84375 1.179688 -0.710938 1.015625 -0.609375 Z M 0.859375 -0.859375 C 1.035156 -0.972656 1.132812 -1.113281 1.15625 -1.28125 C 1.175781 -1.445312 1.113281 -1.644531 0.96875 -1.875 C 0.8125 -2.101562 0.648438 -2.238281 0.484375 -2.28125 C 0.316406 -2.332031 0.144531 -2.300781 -0.03125 -2.1875 C -0.195312 -2.070312 -0.289062 -1.925781 -0.3125 -1.75 C -0.332031 -1.582031 -0.265625 -1.382812 -0.109375 -1.15625 C 0.0351562 -0.925781 0.191406 -0.789062 0.359375 -0.75 C 0.523438 -0.707031 0.691406 -0.742188 0.859375 -0.859375 Z M 0.859375 -0.859375 "/></g></g></g><g fill="#000000" fill-opacity="1"><g transform="translate(11.447208, 23.434818)"><g><path d="M 1.09375 -0.4375 C 0.925781 -0.363281 0.757812 -0.335938 0.59375 -0.359375 C 0.4375 -0.378906 0.285156 -0.445312 0.140625 -0.5625 C 0.00390625 -0.675781 -0.109375 -0.832031 -0.203125 -1.03125 C -0.296875 -1.238281 -0.335938 -1.4375 -0.328125 -1.625 C -0.316406 -1.8125 -0.265625 -1.96875 -0.171875 -2.09375 C -0.078125 -2.226562 0.0507812 -2.332031 0.21875 -2.40625 C 0.425781 -2.488281 0.609375 -2.519531 0.765625 -2.5 C 0.921875 -2.476562 1.046875 -2.421875 1.140625 -2.328125 L 1.015625 -2.09375 L 0.984375 -2.078125 C 0.890625 -2.160156 0.789062 -2.207031 0.6875 -2.21875 C 0.582031 -2.226562 0.46875 -2.207031 0.34375 -2.15625 C 0.226562 -2.101562 0.132812 -2.03125 0.0625 -1.9375 C 0 -1.84375 -0.03125 -1.726562 -0.03125 -1.59375 C -0.03125 -1.46875 0.00390625 -1.320312 0.078125 -1.15625 C 0.148438 -1.007812 0.234375 -0.890625 0.328125 -0.796875 C 0.421875 -0.710938 0.523438 -0.660156 0.640625 -0.640625 C 0.753906 -0.628906 0.867188 -0.648438 0.984375 -0.703125 C 1.117188 -0.765625 1.21875 -0.84375 1.28125 -0.9375 C 1.34375 -1.039062 1.363281 -1.160156 1.34375 -1.296875 L 1.390625 -1.3125 L 1.640625 -1.28125 C 1.640625 -1.113281 1.597656 -0.953125 1.515625 -0.796875 C 1.441406 -0.640625 1.300781 -0.519531 1.09375 -0.4375 Z M 1.09375 -0.4375 "/></g></g></g><g fill="#000000" fill-opacity="1"><g transform="translate(13.269869, 22.651764)"><g><path d="M -0.234375 -2.515625 C -0.296875 -2.492188 -0.351562 -2.5 -0.40625 -2.53125 C -0.457031 -2.5625 -0.492188 -2.601562 -0.515625 -2.65625 C -0.535156 -2.71875 -0.53125 -2.773438 -0.5 -2.828125 C -0.46875 -2.878906 -0.421875 -2.914062 -0.359375 -2.9375 C -0.304688 -2.957031 -0.253906 -2.953125 -0.203125 -2.921875 C -0.148438 -2.890625 -0.113281 -2.84375 -0.09375 -2.78125 C -0.0703125 -2.726562 -0.078125 -2.675781 -0.109375 -2.625 C -0.140625 -2.570312 -0.179688 -2.535156 -0.234375 -2.515625 Z M 0.34375 -0.109375 L -0.265625 -2.078125 L 0.03125 -2.171875 L 0.640625 -0.203125 Z M 0.34375 -0.109375 "/></g></g></g><g fill="#000000" fill-opacity="1"><g transform="translate(14.097283, 22.351662)"><g><path d="M 0.859375 -0.109375 C 0.648438 -0.0664062 0.476562 -0.0859375 0.34375 -0.171875 C 0.21875 -0.265625 0.132812 -0.40625 0.09375 -0.59375 C 0.0703125 -0.71875 0.078125 -0.828125 0.109375 -0.921875 C 0.148438 -1.015625 0.210938 -1.097656 0.296875 -1.171875 C 0.390625 -1.242188 0.523438 -1.3125 0.703125 -1.375 C 0.835938 -1.425781 0.9375 -1.472656 1 -1.515625 C 1.070312 -1.554688 1.117188 -1.597656 1.140625 -1.640625 C 1.160156 -1.679688 1.164062 -1.726562 1.15625 -1.78125 C 1.132812 -1.875 1.085938 -1.941406 1.015625 -1.984375 C 0.953125 -2.023438 0.847656 -2.03125 0.703125 -2 C 0.566406 -1.976562 0.457031 -1.929688 0.375 -1.859375 C 0.289062 -1.796875 0.222656 -1.703125 0.171875 -1.578125 L 0.140625 -1.578125 L -0.046875 -1.765625 C 0.0234375 -1.890625 0.117188 -2 0.234375 -2.09375 C 0.347656 -2.1875 0.488281 -2.242188 0.65625 -2.265625 C 0.894531 -2.316406 1.082031 -2.296875 1.21875 -2.203125 C 1.351562 -2.117188 1.4375 -1.984375 1.46875 -1.796875 L 1.671875 -0.734375 C 1.691406 -0.617188 1.75 -0.566406 1.84375 -0.578125 C 1.875 -0.585938 1.90625 -0.601562 1.9375 -0.625 L 1.96875 -0.625 L 2.046875 -0.40625 C 2.023438 -0.394531 1.992188 -0.378906 1.953125 -0.359375 C 1.921875 -0.347656 1.882812 -0.335938 1.84375 -0.328125 C 1.726562 -0.304688 1.632812 -0.316406 1.5625 -0.359375 C 1.5 -0.398438 1.457031 -0.46875 1.4375 -0.5625 L 1.390625 -0.546875 C 1.359375 -0.429688 1.296875 -0.335938 1.203125 -0.265625 C 1.117188 -0.191406 1.003906 -0.140625 0.859375 -0.109375 Z M 0.875 -0.375 C 0.988281 -0.394531 1.082031 -0.4375 1.15625 -0.5 C 1.226562 -0.570312 1.273438 -0.65625 1.296875 -0.75 C 1.316406 -0.851562 1.316406 -0.96875 1.296875 -1.09375 L 1.25 -1.359375 L 1.21875 -1.359375 C 1.1875 -1.316406 1.132812 -1.28125 1.0625 -1.25 C 1 -1.21875 0.914062 -1.179688 0.8125 -1.140625 C 0.6875 -1.109375 0.59375 -1.066406 0.53125 -1.015625 C 0.46875 -0.960938 0.425781 -0.90625 0.40625 -0.84375 C 0.382812 -0.789062 0.378906 -0.726562 0.390625 -0.65625 C 0.410156 -0.539062 0.460938 -0.457031 0.546875 -0.40625 C 0.640625 -0.363281 0.75 -0.351562 0.875 -0.375 Z M 0.875 -0.375 "/></g></g></g><g fill="#000000" fill-opacity="1"><g transform="translate(16.031768, 21.999285)"><g><path d="M 1.390625 -0.390625 L 1.5 -0.171875 C 1.445312 -0.117188 1.378906 -0.078125 1.296875 -0.046875 C 1.222656 -0.0234375 1.140625 -0.0078125 1.046875 0 C 0.648438 0.0195312 0.441406 -0.171875 0.421875 -0.578125 L 0.375 -1.84375 L 0.015625 -1.828125 L 0 -2.078125 L 0.359375 -2.09375 L 0.34375 -2.53125 L 0.640625 -2.59375 L 0.671875 -2.109375 L 1.328125 -2.140625 L 1.34375 -1.890625 L 0.6875 -1.859375 L 0.734375 -0.625 C 0.742188 -0.382812 0.847656 -0.269531 1.046875 -0.28125 C 1.160156 -0.289062 1.257812 -0.328125 1.34375 -0.390625 Z M 1.390625 -0.390625 "/></g></g></g><g fill="#000000" fill-opacity="1"><g transform="translate(17.483523, 21.939007)"><g><path d="M 0.640625 -2.4375 C 0.578125 -2.445312 0.523438 -2.472656 0.484375 -2.515625 C 0.441406 -2.554688 0.425781 -2.609375 0.4375 -2.671875 C 0.4375 -2.734375 0.457031 -2.785156 0.5 -2.828125 C 0.539062 -2.867188 0.59375 -2.882812 0.65625 -2.875 C 0.71875 -2.875 0.769531 -2.851562 0.8125 -2.8125 C 0.851562 -2.769531 0.875 -2.71875 0.875 -2.65625 C 0.863281 -2.59375 0.835938 -2.539062 0.796875 -2.5 C 0.753906 -2.457031 0.703125 -2.4375 0.640625 -2.4375 Z M 0.359375 0.015625 L 0.46875 -2.046875 L 0.78125 -2.03125 L 0.671875 0.03125 Z M 0.359375 0.015625 "/></g></g></g><g fill="#000000" fill-opacity="1"><g transform="translate(18.354253, 21.929816)"><g><path d="M 1.15625 0.25 C 0.957031 0.21875 0.796875 0.144531 0.671875 0.03125 C 0.554688 -0.0703125 0.472656 -0.207031 0.421875 -0.375 C 0.378906 -0.539062 0.378906 -0.738281 0.421875 -0.96875 C 0.453125 -1.195312 0.519531 -1.382812 0.625 -1.53125 C 0.738281 -1.675781 0.867188 -1.773438 1.015625 -1.828125 C 1.171875 -1.890625 1.347656 -1.90625 1.546875 -1.875 C 1.742188 -1.832031 1.90625 -1.757812 2.03125 -1.65625 C 2.15625 -1.550781 2.238281 -1.410156 2.28125 -1.234375 C 2.332031 -1.066406 2.34375 -0.867188 2.3125 -0.640625 C 2.269531 -0.410156 2.191406 -0.222656 2.078125 -0.078125 C 1.972656 0.0546875 1.84375 0.15625 1.6875 0.21875 C 1.53125 0.28125 1.351562 0.289062 1.15625 0.25 Z M 1.21875 -0.03125 C 1.425781 0.0078125 1.59375 -0.0195312 1.71875 -0.125 C 1.84375 -0.238281 1.929688 -0.429688 1.984375 -0.703125 C 2.023438 -0.972656 2.003906 -1.175781 1.921875 -1.3125 C 1.835938 -1.457031 1.691406 -1.550781 1.484375 -1.59375 C 1.273438 -1.625 1.101562 -1.585938 0.96875 -1.484375 C 0.84375 -1.378906 0.757812 -1.191406 0.71875 -0.921875 C 0.664062 -0.648438 0.679688 -0.441406 0.765625 -0.296875 C 0.859375 -0.148438 1.007812 -0.0625 1.21875 -0.03125 Z M 1.21875 -0.03125 "/></g></g></g><g fill="#000000" fill-opacity="1"><g transform="translate(20.480848, 22.286446)"><g><path d="M 0.34375 0.125 L 1.046875 -1.8125 L 1.3125 -1.71875 L 1.21875 -1.421875 L 1.234375 -1.390625 C 1.347656 -1.472656 1.460938 -1.53125 1.578125 -1.5625 C 1.703125 -1.59375 1.835938 -1.578125 1.984375 -1.515625 C 2.210938 -1.429688 2.359375 -1.3125 2.421875 -1.15625 C 2.492188 -1 2.484375 -0.796875 2.390625 -0.546875 L 1.9375 0.703125 L 1.640625 0.609375 L 2.09375 -0.640625 C 2.132812 -0.753906 2.15625 -0.851562 2.15625 -0.9375 C 2.15625 -1.019531 2.128906 -1.085938 2.078125 -1.140625 C 2.023438 -1.203125 1.953125 -1.25 1.859375 -1.28125 C 1.679688 -1.351562 1.515625 -1.347656 1.359375 -1.265625 C 1.203125 -1.179688 1.078125 -1.015625 0.984375 -0.765625 L 0.625 0.234375 Z M 0.34375 0.125 "/></g></g></g><g fill="#000000" fill-opacity="1"><g transform="translate(22.558066, 23.084533)"><g/></g></g><g fill="#000000" fill-opacity="1"><g transform="translate(23.318116, 23.471062)"><g/></g></g><g fill="#000000" fill-opacity="1"><g transform="translate(24.049432, 23.909527)"><g/></g></g><g fill="#000000" fill-opacity="1"><g transform="translate(24.748475, 24.397806)"><g/></g></g><g fill="#000000" fill-opacity="1"><g transform="translate(25.401482, 24.907532)"><g><path d="M 0.328125 0.328125 L 1.609375 -0.984375 L 1.34375 -1.25 L 1.515625 -1.421875 L 1.78125 -1.15625 C 1.8125 -1.238281 1.859375 -1.3125 1.921875 -1.375 C 2.015625 -1.46875 2.113281 -1.523438 2.21875 -1.546875 C 2.332031 -1.578125 2.441406 -1.570312 2.546875 -1.53125 C 2.648438 -1.5 2.75 -1.429688 2.84375 -1.328125 C 2.976562 -1.191406 3.0625 -1.054688 3.09375 -0.921875 L 2.859375 -0.84375 L 2.8125 -0.84375 C 2.800781 -0.957031 2.753906 -1.054688 2.671875 -1.140625 C 2.578125 -1.234375 2.488281 -1.28125 2.40625 -1.28125 C 2.320312 -1.28125 2.238281 -1.238281 2.15625 -1.15625 C 2.101562 -1.101562 2.050781 -1.035156 2 -0.953125 L 2.46875 -0.484375 L 2.296875 -0.3125 L 1.828125 -0.78125 L 0.546875 0.53125 Z M 0.328125 0.328125 "/></g></g></g><g fill="#000000" fill-opacity="1"><g transform="translate(26.362018, 25.780595)"><g><path d="M 0.6875 0.96875 C 0.570312 0.8125 0.5 0.648438 0.46875 0.484375 C 0.445312 0.328125 0.476562 0.164062 0.5625 0 C 0.644531 -0.15625 0.773438 -0.300781 0.953125 -0.4375 C 1.140625 -0.582031 1.316406 -0.671875 1.484375 -0.703125 C 1.660156 -0.742188 1.828125 -0.734375 1.984375 -0.671875 C 2.140625 -0.609375 2.273438 -0.5 2.390625 -0.34375 C 2.515625 -0.1875 2.585938 -0.03125 2.609375 0.125 C 2.628906 0.289062 2.597656 0.453125 2.515625 0.609375 C 2.441406 0.773438 2.3125 0.929688 2.125 1.078125 C 1.945312 1.210938 1.769531 1.296875 1.59375 1.328125 C 1.414062 1.367188 1.25 1.359375 1.09375 1.296875 C 0.945312 1.234375 0.8125 1.125 0.6875 0.96875 Z M 0.90625 0.796875 C 1.039062 0.960938 1.191406 1.050781 1.359375 1.0625 C 1.523438 1.070312 1.710938 0.992188 1.921875 0.828125 C 2.140625 0.660156 2.269531 0.492188 2.3125 0.328125 C 2.351562 0.160156 2.304688 -0.00390625 2.171875 -0.171875 C 2.046875 -0.335938 1.894531 -0.421875 1.71875 -0.421875 C 1.550781 -0.429688 1.359375 -0.351562 1.140625 -0.1875 C 0.929688 -0.0195312 0.804688 0.140625 0.765625 0.296875 C 0.734375 0.460938 0.78125 0.628906 0.90625 0.796875 Z M 0.90625 0.796875 "/></g></g></g><g fill="#000000" fill-opacity="1"><g transform="translate(27.685537, 27.523879)"><g><path d="M 0.171875 0.3125 L 1.96875 -0.6875 L 2.109375 -0.421875 L 1.84375 -0.28125 L 1.84375 -0.25 C 2.101562 -0.28125 2.300781 -0.175781 2.4375 0.0625 C 2.5 0.1875 2.523438 0.285156 2.515625 0.359375 L 2.25 0.421875 L 2.234375 0.390625 C 2.210938 0.304688 2.179688 0.226562 2.140625 0.15625 C 2.054688 0.0078125 1.941406 -0.0664062 1.796875 -0.078125 C 1.648438 -0.0976562 1.457031 -0.0390625 1.21875 0.09375 L 0.328125 0.59375 Z M 0.171875 0.3125 "/></g></g></g><g fill="#000000" fill-opacity="1"><g transform="translate(28.397995, 28.818999)"><g/></g></g><g fill="#000000" fill-opacity="1"><g transform="translate(28.744962, 29.597903)"><g/></g></g><g fill="#000000" fill-opacity="1"><g transform="translate(29.036899, 30.399055)"><g/></g></g><g fill="#000000" fill-opacity="1"><g transform="translate(29.272396, 31.218579)"><g/></g></g><g fill="#000000" fill-opacity="1"><g transform="translate(29.450315, 32.052497)"><g/></g></g><g fill="#000000" fill-opacity="1"><g transform="translate(29.610533, 32.826948)"><g><path d="M -0.03125 1.203125 C -0.03125 1.023438 -0.0078125 0.867188 0.03125 0.734375 C 0.0820312 0.597656 0.144531 0.484375 0.21875 0.390625 C 0.289062 0.296875 0.375 0.226562 0.46875 0.1875 L 0.6875 0.34375 L 0.6875 0.390625 C 0.40625 0.578125 0.265625 0.847656 0.265625 1.203125 C 0.265625 1.410156 0.3125 1.5625 0.40625 1.65625 C 0.5 1.757812 0.617188 1.804688 0.765625 1.796875 C 0.859375 1.796875 0.9375 1.78125 1 1.75 C 1.0625 1.71875 1.113281 1.660156 1.15625 1.578125 C 1.195312 1.503906 1.234375 1.398438 1.265625 1.265625 L 1.34375 0.953125 C 1.394531 0.710938 1.476562 0.53125 1.59375 0.40625 C 1.71875 0.289062 1.878906 0.234375 2.078125 0.234375 C 2.210938 0.234375 2.332031 0.265625 2.4375 0.328125 C 2.550781 0.398438 2.640625 0.5 2.703125 0.625 C 2.765625 0.757812 2.796875 0.921875 2.796875 1.109375 C 2.796875 1.316406 2.769531 1.492188 2.71875 1.640625 C 2.664062 1.785156 2.582031 1.90625 2.46875 2 L 2.25 1.84375 L 2.25 1.796875 C 2.34375 1.710938 2.410156 1.613281 2.453125 1.5 C 2.492188 1.394531 2.515625 1.269531 2.515625 1.125 C 2.515625 0.9375 2.476562 0.796875 2.40625 0.703125 C 2.332031 0.609375 2.226562 0.5625 2.09375 0.5625 C 1.976562 0.5625 1.882812 0.59375 1.8125 0.65625 C 1.738281 0.726562 1.679688 0.851562 1.640625 1.03125 L 1.5625 1.375 C 1.507812 1.632812 1.414062 1.820312 1.28125 1.9375 C 1.15625 2.0625 0.988281 2.125 0.78125 2.125 C 0.632812 2.125 0.5 2.09375 0.375 2.03125 C 0.257812 1.96875 0.160156 1.863281 0.078125 1.71875 C 0.00390625 1.582031 -0.03125 1.410156 -0.03125 1.203125 Z M -0.03125 1.203125 "/></g></g></g><g fill="#000000" fill-opacity="1"><g transform="translate(29.627726, 34.994391)"><g><path d="M 0.140625 1.4375 L -0.078125 1.5 C -0.128906 1.4375 -0.160156 1.363281 -0.171875 1.28125 C -0.191406 1.207031 -0.195312 1.125 -0.1875 1.03125 C -0.132812 0.644531 0.09375 0.476562 0.5 0.53125 L 1.75 0.6875 L 1.796875 0.328125 L 2.046875 0.359375 L 2 0.71875 L 2.4375 0.78125 L 2.453125 1.09375 L 1.96875 1.03125 L 1.875 1.671875 L 1.625 1.640625 L 1.71875 1 L 0.5 0.84375 C 0.257812 0.8125 0.125 0.890625 0.09375 1.078125 C 0.0820312 1.191406 0.101562 1.296875 0.15625 1.390625 Z M 0.140625 1.4375 "/></g></g></g><g fill="#000000" fill-opacity="1"><g transform="translate(29.489333, 36.381981)"><g><path d="M -0.328125 0.96875 C -0.265625 0.738281 -0.15625 0.585938 0 0.515625 C 0.144531 0.441406 0.332031 0.4375 0.5625 0.5 L 1.890625 0.875 L 1.8125 1.171875 L 0.5 0.796875 C 0.195312 0.710938 0.00390625 0.8125 -0.078125 1.09375 C -0.128906 1.28125 -0.109375 1.441406 -0.015625 1.578125 C 0.078125 1.710938 0.257812 1.820312 0.53125 1.90625 L 1.53125 2.1875 L 1.4375 2.46875 L -0.546875 1.90625 L -0.46875 1.640625 L -0.15625 1.734375 L -0.140625 1.6875 C -0.234375 1.582031 -0.296875 1.472656 -0.328125 1.359375 C -0.367188 1.242188 -0.367188 1.113281 -0.328125 0.96875 Z M -0.328125 0.96875 "/></g></g></g><g fill="#000000" fill-opacity="1"><g transform="translate(28.934052, 38.439145)"><g><path d="M -0.515625 0.953125 C -0.441406 0.804688 -0.335938 0.691406 -0.203125 0.609375 C -0.0664062 0.523438 0.0820312 0.484375 0.25 0.484375 C 0.414062 0.492188 0.601562 0.550781 0.8125 0.65625 C 1.03125 0.757812 1.195312 0.878906 1.3125 1.015625 C 1.425781 1.160156 1.488281 1.304688 1.5 1.453125 C 1.507812 1.609375 1.476562 1.765625 1.40625 1.921875 C 1.34375 2.046875 1.265625 2.144531 1.171875 2.21875 C 1.078125 2.289062 0.960938 2.34375 0.828125 2.375 L 0.8125 2.390625 L 1.828125 2.875 L 1.6875 3.15625 L -0.921875 1.890625 L -0.78125 1.609375 L -0.515625 1.734375 L -0.484375 1.734375 C -0.546875 1.609375 -0.582031 1.484375 -0.59375 1.359375 C -0.613281 1.234375 -0.585938 1.097656 -0.515625 0.953125 Z M -0.3125 1.15625 C -0.394531 1.332031 -0.398438 1.5 -0.328125 1.65625 C -0.253906 1.8125 -0.0976562 1.945312 0.140625 2.0625 C 0.390625 2.175781 0.59375 2.210938 0.75 2.171875 C 0.914062 2.128906 1.039062 2.019531 1.125 1.84375 C 1.207031 1.664062 1.21875 1.5 1.15625 1.34375 C 1.101562 1.195312 0.945312 1.0625 0.6875 0.9375 C 0.207031 0.707031 -0.125 0.78125 -0.3125 1.15625 Z M -0.3125 1.15625 "/></g></g></g><g fill="#000000" fill-opacity="1"><g transform="translate(27.953344, 40.469183)"><g><path d="M -0.375 2.15625 L 0.453125 1 C 0.253906 0.863281 0.0703125 0.804688 -0.09375 0.828125 C -0.257812 0.859375 -0.398438 0.953125 -0.515625 1.109375 C -0.597656 1.222656 -0.644531 1.332031 -0.65625 1.4375 C -0.664062 1.550781 -0.640625 1.660156 -0.578125 1.765625 L -0.59375 1.78125 L -0.8125 1.875 C -0.90625 1.738281 -0.945312 1.59375 -0.9375 1.4375 C -0.925781 1.28125 -0.859375 1.113281 -0.734375 0.9375 C -0.609375 0.769531 -0.46875 0.648438 -0.3125 0.578125 C -0.164062 0.515625 -0.0078125 0.5 0.15625 0.53125 C 0.320312 0.5625 0.5 0.648438 0.6875 0.796875 C 0.882812 0.929688 1.023438 1.078125 1.109375 1.234375 C 1.191406 1.390625 1.222656 1.550781 1.203125 1.71875 C 1.179688 1.882812 1.117188 2.039062 1.015625 2.1875 C 0.859375 2.40625 0.675781 2.53125 0.46875 2.5625 C 0.257812 2.59375 0.0351562 2.523438 -0.203125 2.359375 C -0.296875 2.285156 -0.359375 2.238281 -0.390625 2.21875 Z M -0.015625 2.109375 C 0.160156 2.222656 0.316406 2.273438 0.453125 2.265625 C 0.585938 2.253906 0.707031 2.175781 0.8125 2.03125 C 0.914062 1.882812 0.957031 1.738281 0.9375 1.59375 C 0.914062 1.457031 0.820312 1.316406 0.65625 1.171875 Z M -0.015625 2.109375 "/></g></g></g><g fill="#000000" fill-opacity="1"><g transform="translate(26.805619, 42.100441)"><g><path d="M -0.25 0.25 L 1.1875 1.71875 L 0.96875 1.921875 L 0.75 1.703125 L 0.734375 1.71875 C 0.765625 1.863281 0.757812 1.992188 0.71875 2.109375 C 0.6875 2.222656 0.617188 2.332031 0.515625 2.4375 C 0.328125 2.613281 0.15625 2.695312 0 2.6875 C -0.164062 2.675781 -0.347656 2.578125 -0.546875 2.390625 L -1.46875 1.4375 L -1.25 1.21875 L -0.328125 2.171875 C -0.234375 2.253906 -0.148438 2.3125 -0.078125 2.34375 C -0.00390625 2.375 0.0664062 2.378906 0.140625 2.359375 C 0.222656 2.335938 0.300781 2.289062 0.375 2.21875 C 0.507812 2.082031 0.570312 1.929688 0.5625 1.765625 C 0.550781 1.597656 0.453125 1.421875 0.265625 1.234375 L -0.484375 0.46875 Z M -0.25 0.25 "/></g></g></g><g fill="#000000" fill-opacity="1"><g transform="translate(25.224056, 43.626605)"><g><path d="M -0.953125 1.09375 L -1.15625 0.96875 C -1.144531 0.90625 -1.113281 0.835938 -1.0625 0.765625 C -1.007812 0.703125 -0.945312 0.640625 -0.875 0.578125 C -0.550781 0.347656 -0.269531 0.394531 -0.03125 0.71875 L 0.71875 1.75 L 1 1.546875 L 1.140625 1.75 L 0.859375 1.953125 L 1.125 2.296875 L 0.875 2.53125 L 0.59375 2.140625 L 0.0625 2.53125 L -0.078125 2.328125 L 0.453125 1.9375 L -0.28125 0.9375 C -0.414062 0.738281 -0.5625 0.695312 -0.71875 0.8125 C -0.8125 0.875 -0.875 0.957031 -0.90625 1.0625 Z M -0.953125 1.09375 "/></g></g></g></svg>