<svg xmlns="http://www.w3.org/2000/svg" xmlns:xlink="http://www.w3.org/1999/xlink" width="300" zoomAndPan="magnify" viewBox="0 0 224.87999 74.999997" height="100" preserveAspectRatio="xMidYMid meet" version="1.0"><defs><g/><clipPath id="0462904b96"><path d="M 43.523438 0.0195312 L 106.964844 0.0195312 L 106.964844 63.460938 L 43.523438 63.460938 Z M 43.523438 0.0195312 " clip-rule="nonzero"/></clipPath><clipPath id="cad74b460f"><path d="M 75.246094 0.0195312 C 57.726562 0.0195312 43.523438 14.222656 43.523438 31.742188 C 43.523438 49.257812 57.726562 63.460938 75.246094 63.460938 C 92.765625 63.460938 106.964844 49.257812 106.964844 31.742188 C 106.964844 14.222656 92.765625 0.0195312 75.246094 0.0195312 Z M 75.246094 0.0195312 " clip-rule="nonzero"/></clipPath><clipPath id="2056c06855"><path d="M 45.800781 2.296875 L 104.691406 2.296875 L 104.691406 61.1875 L 45.800781 61.1875 Z M 45.800781 2.296875 " clip-rule="nonzero"/></clipPath><clipPath id="3309a9aeee"><path d="M 75.246094 2.296875 C 58.984375 2.296875 45.800781 15.476562 45.800781 31.742188 C 45.800781 48.003906 58.984375 61.1875 75.246094 61.1875 C 91.507812 61.1875 104.691406 48.003906 104.691406 31.742188 C 104.691406 15.476562 91.507812 2.296875 75.246094 2.296875 Z M 75.246094 2.296875 " clip-rule="nonzero"/></clipPath><clipPath id="7c81aacd98"><path d="M 61.464844 16.613281 L 89.027344 16.613281 L 89.027344 44.171875 L 61.464844 44.171875 Z M 61.464844 16.613281 " clip-rule="nonzero"/></clipPath><clipPath id="2c8a9f9253"><path d="M 75.246094 16.613281 C 67.636719 16.613281 61.464844 22.78125 61.464844 30.394531 C 61.464844 38.003906 67.636719 44.171875 75.246094 44.171875 C 82.855469 44.171875 89.027344 38.003906 89.027344 30.394531 C 89.027344 22.78125 82.855469 16.613281 75.246094 16.613281 Z M 75.246094 16.613281 " clip-rule="nonzero"/></clipPath><clipPath id="6b1322c2f1"><path d="M 66.140625 21.289062 L 84.351562 21.289062 L 84.351562 39.496094 L 66.140625 39.496094 Z M 66.140625 21.289062 " clip-rule="nonzero"/></clipPath><clipPath id="230a90bcf1"><path d="M 75.246094 21.289062 C 70.21875 21.289062 66.140625 25.363281 66.140625 30.394531 C 66.140625 35.421875 70.21875 39.496094 75.246094 39.496094 C 80.273438 39.496094 84.351562 35.421875 84.351562 30.394531 C 84.351562 25.363281 80.273438 21.289062 75.246094 21.289062 Z M 75.246094 21.289062 " clip-rule="nonzero"/></clipPath></defs><g clip-path="url(#0462904b96)"><g clip-path="url(#cad74b460f)"><path fill="#51998c" d="M 43.523438 0.0195312 L 106.964844 0.0195312 L 106.964844 63.460938 L 43.523438 63.460938 Z M 43.523438 0.0195312 " fill-opacity="1" fill-rule="nonzero"/></g></g><g clip-path="url(#2056c06855)"><g clip-path="url(#3309a9aeee)"><path fill="#90c6cd" d="M 45.800781 2.296875 L 104.691406 2.296875 L 104.691406 61.1875 L 45.800781 61.1875 Z M 45.800781 2.296875 " fill-opacity="1" fill-rule="nonzero"/></g></g><g clip-path="url(#7c81aacd98)"><g clip-path="url(#2c8a9f9253)"><path fill="#18abbc" d="M 61.464844 16.613281 L 89.027344 16.613281 L 89.027344 44.171875 L 61.464844 44.171875 Z M 61.464844 16.613281 " fill-opacity="1" fill-rule="nonzero"/></g></g><g clip-path="url(#6b1322c2f1)"><g clip-path="url(#230a90bcf1)"><path fill="#000000" d="M 66.140625 21.289062 L 84.351562 21.289062 L 84.351562 39.496094 L 66.140625 39.496094 Z M 66.140625 21.289062 " fill-opacity="1" fill-rule="nonzero"/></g></g><g fill="#90c6cd" fill-opacity="1"><g transform="translate(132.566895, 39.592867)"><g><path d="M 4.390625 0.21875 C 3.671875 0.21875 3.046875 0.0859375 2.515625 -0.171875 C 1.984375 -0.441406 1.570312 -0.832031 1.28125 -1.34375 C 1 -1.863281 0.859375 -2.484375 0.859375 -3.203125 C 0.859375 -3.878906 1 -4.441406 1.28125 -4.890625 C 1.570312 -5.347656 2.015625 -5.71875 2.609375 -6 C 3.210938 -6.289062 4 -6.515625 4.96875 -6.671875 C 5.644531 -6.785156 6.15625 -6.90625 6.5 -7.03125 C 6.851562 -7.164062 7.09375 -7.3125 7.21875 -7.46875 C 7.34375 -7.632812 7.40625 -7.84375 7.40625 -8.09375 C 7.40625 -8.457031 7.273438 -8.734375 7.015625 -8.921875 C 6.765625 -9.117188 6.347656 -9.21875 5.765625 -9.21875 C 5.140625 -9.21875 4.539062 -9.078125 3.96875 -8.796875 C 3.40625 -8.515625 2.914062 -8.144531 2.5 -7.6875 L 2.296875 -7.6875 L 1.109375 -9.484375 C 1.679688 -10.109375 2.378906 -10.597656 3.203125 -10.953125 C 4.035156 -11.304688 4.9375 -11.484375 5.90625 -11.484375 C 7.394531 -11.484375 8.472656 -11.164062 9.140625 -10.53125 C 9.816406 -9.90625 10.15625 -9.007812 10.15625 -7.84375 L 10.15625 -2.9375 C 10.15625 -2.4375 10.375 -2.1875 10.8125 -2.1875 C 10.988281 -2.1875 11.15625 -2.21875 11.3125 -2.28125 L 11.453125 -2.234375 L 11.671875 -0.265625 C 11.515625 -0.160156 11.296875 -0.078125 11.015625 -0.015625 C 10.734375 0.046875 10.425781 0.078125 10.09375 0.078125 C 9.414062 0.078125 8.882812 -0.046875 8.5 -0.296875 C 8.125 -0.554688 7.859375 -0.960938 7.703125 -1.515625 L 7.484375 -1.546875 C 6.929688 -0.367188 5.898438 0.21875 4.390625 0.21875 Z M 5.296875 -1.90625 C 5.953125 -1.90625 6.472656 -2.125 6.859375 -2.5625 C 7.253906 -3 7.453125 -3.609375 7.453125 -4.390625 L 7.453125 -5.546875 L 7.265625 -5.578125 C 7.085938 -5.441406 6.859375 -5.328125 6.578125 -5.234375 C 6.304688 -5.140625 5.910156 -5.050781 5.390625 -4.96875 C 4.785156 -4.863281 4.347656 -4.6875 4.078125 -4.4375 C 3.804688 -4.1875 3.671875 -3.835938 3.671875 -3.390625 C 3.671875 -2.898438 3.8125 -2.53125 4.09375 -2.28125 C 4.382812 -2.03125 4.785156 -1.90625 5.296875 -1.90625 Z M 5.296875 -1.90625 "/></g></g></g><g fill="#90c6cd" fill-opacity="1"><g transform="translate(144.456461, 39.592867)"><g><path d="M 1.625 0 L 1.625 -15.8125 L 4.453125 -15.8125 L 4.453125 -7.03125 L 4.734375 -7.03125 L 8 -11.28125 L 10.875 -11.28125 L 10.875 -11.046875 L 7.03125 -6.09375 L 11.296875 -0.25 L 11.296875 0 L 8.3125 0 L 4.734375 -4.75 L 4.453125 -4.75 L 4.453125 0 Z M 1.625 0 "/></g></g></g><g fill="#90c6cd" fill-opacity="1"><g transform="translate(155.773528, 39.592867)"><g><path d="M 3.03125 -12.625 C 2.519531 -12.625 2.101562 -12.78125 1.78125 -13.09375 C 1.46875 -13.40625 1.3125 -13.804688 1.3125 -14.296875 C 1.3125 -14.773438 1.46875 -15.171875 1.78125 -15.484375 C 2.101562 -15.796875 2.519531 -15.953125 3.03125 -15.953125 C 3.375 -15.953125 3.675781 -15.878906 3.9375 -15.734375 C 4.207031 -15.585938 4.414062 -15.390625 4.5625 -15.140625 C 4.707031 -14.890625 4.78125 -14.609375 4.78125 -14.296875 C 4.78125 -13.972656 4.707031 -13.6875 4.5625 -13.4375 C 4.414062 -13.1875 4.207031 -12.988281 3.9375 -12.84375 C 3.675781 -12.695312 3.375 -12.625 3.03125 -12.625 Z M 1.625 0 L 1.625 -11.28125 L 4.453125 -11.28125 L 4.453125 0 Z M 1.625 0 "/></g></g></g><g fill="#90c6cd" fill-opacity="1"><g transform="translate(161.846099, 39.592867)"><g><path d="M 1.625 0 L 1.625 -11.28125 L 4.34375 -11.28125 L 4.34375 -9.765625 L 4.5625 -9.71875 C 4.925781 -10.320312 5.351562 -10.765625 5.84375 -11.046875 C 6.34375 -11.335938 6.976562 -11.484375 7.75 -11.484375 C 8.601562 -11.484375 9.285156 -11.316406 9.796875 -10.984375 C 10.316406 -10.648438 10.695312 -10.15625 10.9375 -9.5 L 11.15625 -9.5 C 11.5 -10.175781 11.945312 -10.675781 12.5 -11 C 13.050781 -11.320312 13.734375 -11.484375 14.546875 -11.484375 C 16.878906 -11.484375 18.046875 -10.179688 18.046875 -7.578125 L 18.046875 0 L 15.21875 0 L 15.21875 -7.234375 C 15.21875 -7.890625 15.085938 -8.363281 14.828125 -8.65625 C 14.578125 -8.945312 14.164062 -9.09375 13.59375 -9.09375 C 12.03125 -9.09375 11.25 -8.054688 11.25 -5.984375 L 11.25 0 L 8.421875 0 L 8.421875 -7.234375 C 8.421875 -7.890625 8.289062 -8.363281 8.03125 -8.65625 C 7.769531 -8.945312 7.351562 -9.09375 6.78125 -9.09375 C 6.050781 -9.09375 5.476562 -8.847656 5.0625 -8.359375 C 4.65625 -7.878906 4.453125 -7.109375 4.453125 -6.046875 L 4.453125 0 Z M 1.625 0 "/></g></g></g><g fill="#000000" fill-opacity="1"><g transform="translate(116.074262, 39.592867)"><g><path d="M 11.59375 -9.328125 L 11.59375 -14.953125 L 14.53125 -14.953125 L 14.53125 0 L 11.59375 0 L 11.59375 -6.8125 L 4.890625 -6.8125 L 4.890625 0 L 1.9375 0 L 1.9375 -14.953125 L 4.890625 -14.953125 L 4.890625 -9.328125 Z M 11.59375 -9.328125 "/></g></g></g><g fill="#000000" fill-opacity="1"><g transform="translate(63.457174, 50.695057)"><g><path d="M -1 -0.84375 L -0.59375 -0.5 L -3.84375 3.359375 L -4.5 2.796875 L -2.921875 -1.453125 L -2.96875 -1.484375 L -6.90625 0.796875 L -7.5625 0.234375 L -4.3125 -3.625 L -3.875 -3.25 L -6.515625 -0.109375 L -6.453125 -0.046875 L -2.671875 -2.234375 L -2.21875 -1.859375 L -3.71875 2.265625 L -3.640625 2.296875 Z M -1 -0.84375 "/></g></g></g><g fill="#000000" fill-opacity="1"><g transform="translate(58.987517, 46.847755)"><g><path d="M -3.625 -1.78125 L -2.015625 0.28125 C -1.660156 -0.0078125 -1.460938 -0.300781 -1.421875 -0.59375 C -1.378906 -0.894531 -1.46875 -1.179688 -1.6875 -1.453125 C -1.851562 -1.671875 -2.023438 -1.816406 -2.203125 -1.890625 C -2.378906 -1.960938 -2.578125 -1.96875 -2.796875 -1.90625 L -2.84375 -1.96875 L -2.890625 -2.390625 C -2.617188 -2.472656 -2.34375 -2.46875 -2.0625 -2.375 C -1.78125 -2.28125 -1.519531 -2.078125 -1.28125 -1.765625 C -1.0625 -1.484375 -0.925781 -1.191406 -0.875 -0.890625 C -0.820312 -0.597656 -0.867188 -0.300781 -1.015625 0 C -1.171875 0.289062 -1.421875 0.570312 -1.765625 0.84375 C -2.109375 1.101562 -2.441406 1.265625 -2.765625 1.328125 C -3.085938 1.390625 -3.382812 1.359375 -3.65625 1.234375 C -3.9375 1.117188 -4.179688 0.929688 -4.390625 0.671875 C -4.691406 0.285156 -4.816406 -0.09375 -4.765625 -0.46875 C -4.710938 -0.851562 -4.472656 -1.210938 -4.046875 -1.546875 C -3.878906 -1.671875 -3.765625 -1.757812 -3.703125 -1.8125 Z M -3.703125 -1.109375 C -4.023438 -0.859375 -4.203125 -0.601562 -4.234375 -0.34375 C -4.273438 -0.09375 -4.203125 0.148438 -4.015625 0.390625 C -3.804688 0.648438 -3.570312 0.796875 -3.3125 0.828125 C -3.050781 0.867188 -2.75 0.78125 -2.40625 0.5625 Z M -3.703125 -1.109375 "/></g></g></g><g fill="#000000" fill-opacity="1"><g transform="translate(56.693372, 43.995409)"><g><path d="M -0.859375 -1.765625 C -0.722656 -1.503906 -0.660156 -1.234375 -0.671875 -0.953125 C -0.679688 -0.679688 -0.789062 -0.414062 -1 -0.15625 C -1.207031 0.09375 -1.503906 0.316406 -1.890625 0.515625 C -2.265625 0.722656 -2.613281 0.832031 -2.9375 0.84375 C -3.257812 0.863281 -3.539062 0.800781 -3.78125 0.65625 C -4.03125 0.519531 -4.226562 0.3125 -4.375 0.03125 C -4.5 -0.195312 -4.566406 -0.421875 -4.578125 -0.640625 C -4.585938 -0.867188 -4.523438 -1.097656 -4.390625 -1.328125 L -4.453125 -1.375 L -6.265625 -0.421875 L -6.53125 -0.921875 L -1.828125 -3.421875 L -1.5625 -2.921875 L -2.0625 -2.65625 L -2.015625 -2.59375 C -1.796875 -2.582031 -1.582031 -2.507812 -1.375 -2.375 C -1.175781 -2.238281 -1.003906 -2.035156 -0.859375 -1.765625 Z M -1.390625 -1.6875 C -1.554688 -2 -1.796875 -2.191406 -2.109375 -2.265625 C -2.421875 -2.335938 -2.800781 -2.257812 -3.25 -2.03125 C -3.675781 -1.800781 -3.945312 -1.53125 -4.0625 -1.21875 C -4.175781 -0.914062 -4.148438 -0.609375 -3.984375 -0.296875 C -3.816406 0.0234375 -3.578125 0.21875 -3.265625 0.28125 C -2.960938 0.34375 -2.59375 0.253906 -2.15625 0.015625 C -1.289062 -0.441406 -1.035156 -1.007812 -1.390625 -1.6875 Z M -1.390625 -1.6875 "/></g></g></g><g fill="#000000" fill-opacity="1"><g transform="translate(54.761389, 40.225873)"><g><path d="M -4.5625 0.71875 C -4.519531 0.820312 -4.519531 0.921875 -4.5625 1.015625 C -4.613281 1.109375 -4.695312 1.175781 -4.8125 1.21875 C -4.914062 1.257812 -5.015625 1.257812 -5.109375 1.21875 C -5.203125 1.175781 -5.269531 1.101562 -5.3125 1 C -5.351562 0.882812 -5.351562 0.78125 -5.3125 0.6875 C -5.269531 0.59375 -5.195312 0.523438 -5.09375 0.484375 C -4.976562 0.441406 -4.867188 0.441406 -4.765625 0.484375 C -4.671875 0.523438 -4.601562 0.601562 -4.5625 0.71875 Z M -0.234375 -0.609375 L -3.78125 0.734375 L -3.96875 0.203125 L -0.421875 -1.140625 Z M -0.234375 -0.609375 "/></g></g></g><g fill="#000000" fill-opacity="1"><g transform="translate(54.120566, 38.739193)"><g><path d="M -0.453125 -2.140625 C -0.367188 -1.804688 -0.367188 -1.488281 -0.453125 -1.1875 C -0.535156 -0.894531 -0.707031 -0.640625 -0.96875 -0.421875 C -1.226562 -0.203125 -1.554688 -0.046875 -1.953125 0.046875 C -2.359375 0.148438 -2.722656 0.164062 -3.046875 0.09375 C -3.367188 0.0195312 -3.632812 -0.125 -3.84375 -0.34375 C -4.0625 -0.570312 -4.210938 -0.851562 -4.296875 -1.1875 C -4.390625 -1.570312 -4.390625 -1.894531 -4.296875 -2.15625 C -4.210938 -2.425781 -4.054688 -2.644531 -3.828125 -2.8125 L -3.484375 -2.515625 L -3.453125 -2.4375 C -3.628906 -2.289062 -3.742188 -2.125 -3.796875 -1.9375 C -3.859375 -1.757812 -3.863281 -1.550781 -3.8125 -1.3125 C -3.75 -1.082031 -3.640625 -0.894531 -3.484375 -0.75 C -3.335938 -0.601562 -3.144531 -0.503906 -2.90625 -0.453125 C -2.664062 -0.410156 -2.390625 -0.429688 -2.078125 -0.515625 C -1.765625 -0.585938 -1.515625 -0.695312 -1.328125 -0.84375 C -1.148438 -1 -1.023438 -1.175781 -0.953125 -1.375 C -0.890625 -1.570312 -0.890625 -1.785156 -0.953125 -2.015625 C -1.015625 -2.265625 -1.125 -2.457031 -1.28125 -2.59375 C -1.4375 -2.738281 -1.648438 -2.832031 -1.921875 -2.875 L -1.9375 -2.953125 L -1.8125 -3.34375 C -1.488281 -3.332031 -1.203125 -3.222656 -0.953125 -3.015625 C -0.710938 -2.816406 -0.546875 -2.523438 -0.453125 -2.140625 Z M -0.453125 -2.140625 "/></g></g></g><g fill="#000000" fill-opacity="1"><g transform="translate(53.236151, 35.29554)"><g><path d="M -0.0625 -1.5625 C -0.0195312 -1.1875 -0.0859375 -0.882812 -0.265625 -0.65625 C -0.453125 -0.4375 -0.726562 -0.3125 -1.09375 -0.28125 C -1.3125 -0.257812 -1.503906 -0.289062 -1.671875 -0.375 C -1.835938 -0.457031 -1.972656 -0.585938 -2.078125 -0.765625 C -2.191406 -0.953125 -2.285156 -1.207031 -2.359375 -1.53125 C -2.429688 -1.789062 -2.5 -1.988281 -2.5625 -2.125 C -2.632812 -2.269531 -2.707031 -2.359375 -2.78125 -2.390625 C -2.863281 -2.429688 -2.960938 -2.445312 -3.078125 -2.4375 C -3.242188 -2.425781 -3.367188 -2.359375 -3.453125 -2.234375 C -3.535156 -2.117188 -3.566406 -1.929688 -3.546875 -1.671875 C -3.523438 -1.429688 -3.457031 -1.222656 -3.34375 -1.046875 C -3.226562 -0.878906 -3.070312 -0.734375 -2.875 -0.609375 L -2.859375 -0.53125 L -3.234375 -0.234375 C -3.453125 -0.367188 -3.628906 -0.554688 -3.765625 -0.796875 C -3.910156 -1.035156 -4 -1.3125 -4.03125 -1.625 C -4.0625 -2.0625 -3.988281 -2.394531 -3.8125 -2.625 C -3.632812 -2.851562 -3.375 -2.984375 -3.03125 -3.015625 L -1.03125 -3.1875 C -0.820312 -3.207031 -0.722656 -3.304688 -0.734375 -3.484375 C -0.742188 -3.546875 -0.757812 -3.597656 -0.78125 -3.640625 L -0.78125 -3.71875 L -0.390625 -3.8125 C -0.359375 -3.769531 -0.328125 -3.710938 -0.296875 -3.640625 C -0.273438 -3.578125 -0.265625 -3.507812 -0.265625 -3.4375 C -0.242188 -3.226562 -0.273438 -3.066406 -0.359375 -2.953125 C -0.441406 -2.835938 -0.570312 -2.753906 -0.75 -2.703125 L -0.765625 -2.640625 C -0.546875 -2.546875 -0.378906 -2.410156 -0.265625 -2.234375 C -0.148438 -2.066406 -0.0820312 -1.84375 -0.0625 -1.5625 Z M -0.515625 -1.65625 C -0.535156 -1.875 -0.597656 -2.050781 -0.703125 -2.1875 C -0.816406 -2.320312 -0.96875 -2.421875 -1.15625 -2.484375 C -1.34375 -2.554688 -1.550781 -2.585938 -1.78125 -2.578125 L -2.265625 -2.53125 L -2.265625 -2.46875 C -2.203125 -2.382812 -2.144531 -2.285156 -2.09375 -2.171875 C -2.039062 -2.054688 -1.988281 -1.894531 -1.9375 -1.6875 C -1.882812 -1.46875 -1.820312 -1.296875 -1.75 -1.171875 C -1.6875 -1.046875 -1.601562 -0.957031 -1.5 -0.90625 C -1.394531 -0.863281 -1.273438 -0.847656 -1.140625 -0.859375 C -0.910156 -0.878906 -0.742188 -0.957031 -0.640625 -1.09375 C -0.535156 -1.238281 -0.492188 -1.425781 -0.515625 -1.65625 Z M -0.515625 -1.65625 "/></g></g></g><g fill="#000000" fill-opacity="1"><g transform="translate(52.962987, 31.654167)"><g><path d="M 0.125 -1.515625 C 0.125 -1.242188 0.0390625 -1.03125 -0.125 -0.875 C -0.289062 -0.726562 -0.523438 -0.660156 -0.828125 -0.671875 L -5.3125 -0.828125 L -5.28125 -1.390625 L -0.828125 -1.234375 C -0.671875 -1.222656 -0.554688 -1.25 -0.484375 -1.3125 C -0.421875 -1.375 -0.382812 -1.472656 -0.375 -1.609375 C -0.375 -1.679688 -0.382812 -1.757812 -0.40625 -1.84375 L -0.390625 -1.890625 L 0.046875 -1.9375 C 0.078125 -1.894531 0.0976562 -1.832031 0.109375 -1.75 C 0.128906 -1.675781 0.132812 -1.597656 0.125 -1.515625 Z M 0.125 -1.515625 "/></g></g></g><g fill="#000000" fill-opacity="1"><g transform="translate(53.030202, 29.767175)"><g/></g></g><g fill="#000000" fill-opacity="1"><g transform="translate(53.199362, 28.209323)"><g/></g></g><g fill="#000000" fill-opacity="1"><g transform="translate(53.476492, 26.66702)"><g/></g></g><g fill="#000000" fill-opacity="1"><g transform="translate(53.860239, 25.14773)"><g/></g></g><g fill="#000000" fill-opacity="1"><g transform="translate(54.348754, 23.65882)"><g/></g></g><g fill="#000000" fill-opacity="1"><g transform="translate(54.785296, 22.287875)"><g><path d="M 2.25 -3.9375 L 1.9375 -3.390625 L 0.5 -3.671875 L -0.5625 -1.8125 L 0.40625 -0.71875 L 0.09375 -0.171875 L -3.40625 -4.203125 L -2.984375 -4.921875 Z M -2.6875 -4.21875 L -0.90625 -2.203125 L 0 -3.765625 L -2.640625 -4.296875 Z M -2.6875 -4.21875 "/></g></g></g><g fill="#000000" fill-opacity="1"><g transform="translate(56.965535, 18.520878)"><g><path d="M 1.15625 -1.296875 C 1.007812 -1.109375 0.84375 -0.957031 0.65625 -0.84375 C 0.476562 -0.726562 0.300781 -0.648438 0.125 -0.609375 C -0.0390625 -0.566406 -0.191406 -0.570312 -0.328125 -0.625 L -0.40625 -1.09375 L -0.359375 -1.140625 C -0.140625 -1.117188 0.0625 -1.144531 0.25 -1.21875 C 0.4375 -1.300781 0.601562 -1.4375 0.75 -1.625 C 0.925781 -1.84375 1.019531 -2.039062 1.03125 -2.21875 C 1.039062 -2.394531 0.972656 -2.539062 0.828125 -2.65625 C 0.710938 -2.757812 0.585938 -2.804688 0.453125 -2.796875 C 0.328125 -2.785156 0.179688 -2.726562 0.015625 -2.625 L -0.515625 -2.21875 C -0.796875 -2 -1.054688 -1.882812 -1.296875 -1.875 C -1.535156 -1.875 -1.757812 -1.957031 -1.96875 -2.125 C -2.125 -2.257812 -2.222656 -2.414062 -2.265625 -2.59375 C -2.316406 -2.769531 -2.3125 -2.957031 -2.25 -3.15625 C -2.195312 -3.363281 -2.082031 -3.578125 -1.90625 -3.796875 C -1.6875 -4.054688 -1.472656 -4.234375 -1.265625 -4.328125 C -1.054688 -4.429688 -0.851562 -4.472656 -0.65625 -4.453125 L -0.609375 -4 L -0.65625 -3.953125 C -0.832031 -3.941406 -0.992188 -3.898438 -1.140625 -3.828125 C -1.285156 -3.765625 -1.421875 -3.65625 -1.546875 -3.5 C -1.703125 -3.300781 -1.785156 -3.117188 -1.796875 -2.953125 C -1.804688 -2.796875 -1.75 -2.664062 -1.625 -2.5625 C -1.5 -2.46875 -1.375 -2.425781 -1.25 -2.4375 C -1.125 -2.445312 -0.957031 -2.53125 -0.75 -2.6875 L -0.234375 -3.0625 C 0.0234375 -3.28125 0.269531 -3.382812 0.5 -3.375 C 0.738281 -3.375 0.960938 -3.285156 1.171875 -3.109375 C 1.347656 -2.960938 1.46875 -2.796875 1.53125 -2.609375 C 1.59375 -2.429688 1.59375 -2.226562 1.53125 -2 C 1.476562 -1.769531 1.351562 -1.535156 1.15625 -1.296875 Z M 1.15625 -1.296875 "/></g></g></g><g fill="#000000" fill-opacity="1"><g transform="translate(58.968774, 16.03921)"><g><path d="M 1.328125 -1.109375 C 1.148438 -0.953125 0.960938 -0.828125 0.765625 -0.734375 C 0.578125 -0.648438 0.390625 -0.597656 0.203125 -0.578125 C 0.0234375 -0.566406 -0.117188 -0.59375 -0.234375 -0.65625 L -0.234375 -1.140625 L -0.1875 -1.171875 C 0.03125 -1.128906 0.234375 -1.132812 0.421875 -1.1875 C 0.617188 -1.238281 0.804688 -1.34375 0.984375 -1.5 C 1.191406 -1.6875 1.3125 -1.867188 1.34375 -2.046875 C 1.375 -2.222656 1.328125 -2.378906 1.203125 -2.515625 C 1.097656 -2.628906 0.976562 -2.691406 0.84375 -2.703125 C 0.71875 -2.722656 0.566406 -2.679688 0.390625 -2.578125 L -0.1875 -2.265625 C -0.5 -2.097656 -0.773438 -2.023438 -1.015625 -2.046875 C -1.253906 -2.078125 -1.460938 -2.191406 -1.640625 -2.390625 C -1.773438 -2.546875 -1.851562 -2.710938 -1.875 -2.890625 C -1.90625 -3.066406 -1.875 -3.253906 -1.78125 -3.453125 C -1.695312 -3.648438 -1.550781 -3.84375 -1.34375 -4.03125 C -1.09375 -4.257812 -0.859375 -4.40625 -0.640625 -4.46875 C -0.421875 -4.539062 -0.210938 -4.550781 -0.015625 -4.5 L -0.0625 -4.046875 L -0.109375 -4 C -0.273438 -4.019531 -0.429688 -4.003906 -0.578125 -3.953125 C -0.722656 -3.910156 -0.867188 -3.820312 -1.015625 -3.6875 C -1.203125 -3.519531 -1.316406 -3.351562 -1.359375 -3.1875 C -1.398438 -3.03125 -1.363281 -2.890625 -1.25 -2.765625 C -1.144531 -2.648438 -1.023438 -2.585938 -0.890625 -2.578125 C -0.765625 -2.578125 -0.59375 -2.640625 -0.375 -2.765625 L 0.203125 -3.0625 C 0.492188 -3.238281 0.753906 -3.304688 0.984375 -3.265625 C 1.210938 -3.234375 1.421875 -3.117188 1.609375 -2.921875 C 1.765625 -2.753906 1.859375 -2.570312 1.890625 -2.375 C 1.929688 -2.175781 1.90625 -1.96875 1.8125 -1.75 C 1.71875 -1.53125 1.554688 -1.316406 1.328125 -1.109375 Z M 1.328125 -1.109375 "/></g></g></g><g fill="#000000" fill-opacity="1"><g transform="translate(61.249365, 13.859673)"><g><path d="M 1.875 -1.140625 C 1.570312 -0.941406 1.265625 -0.832031 0.953125 -0.8125 C 0.648438 -0.789062 0.359375 -0.863281 0.078125 -1.03125 C -0.203125 -1.207031 -0.457031 -1.472656 -0.6875 -1.828125 C -0.914062 -2.171875 -1.054688 -2.503906 -1.109375 -2.828125 C -1.160156 -3.160156 -1.113281 -3.460938 -0.96875 -3.734375 C -0.832031 -4.003906 -0.613281 -4.238281 -0.3125 -4.4375 C -0.0195312 -4.632812 0.273438 -4.742188 0.578125 -4.765625 C 0.890625 -4.785156 1.1875 -4.710938 1.46875 -4.546875 C 1.757812 -4.378906 2.019531 -4.125 2.25 -3.78125 C 2.476562 -3.425781 2.613281 -3.082031 2.65625 -2.75 C 2.707031 -2.414062 2.660156 -2.113281 2.515625 -1.84375 C 2.378906 -1.570312 2.164062 -1.335938 1.875 -1.140625 Z M 1.59375 -1.5625 C 1.90625 -1.769531 2.078125 -2.03125 2.109375 -2.34375 C 2.148438 -2.65625 2.03125 -3.023438 1.75 -3.453125 C 1.46875 -3.867188 1.175781 -4.117188 0.875 -4.203125 C 0.582031 -4.285156 0.28125 -4.222656 -0.03125 -4.015625 C -0.351562 -3.804688 -0.535156 -3.546875 -0.578125 -3.234375 C -0.617188 -2.921875 -0.5 -2.554688 -0.21875 -2.140625 C 0.0625 -1.710938 0.351562 -1.457031 0.65625 -1.375 C 0.957031 -1.289062 1.269531 -1.351562 1.59375 -1.5625 Z M 1.59375 -1.5625 "/></g></g></g><g fill="#000000" fill-opacity="1"><g transform="translate(64.562142, 11.652077)"><g><path d="M 2.03125 -0.8125 C 1.71875 -0.664062 1.40625 -0.613281 1.09375 -0.65625 C 0.789062 -0.695312 0.507812 -0.820312 0.25 -1.03125 C 0 -1.238281 -0.207031 -1.535156 -0.375 -1.921875 C -0.550781 -2.296875 -0.628906 -2.648438 -0.609375 -2.984375 C -0.597656 -3.316406 -0.5 -3.601562 -0.3125 -3.84375 C -0.132812 -4.09375 0.109375 -4.289062 0.421875 -4.4375 C 0.785156 -4.59375 1.109375 -4.648438 1.390625 -4.609375 C 1.671875 -4.566406 1.910156 -4.453125 2.109375 -4.265625 L 1.875 -3.859375 L 1.796875 -3.828125 C 1.617188 -3.972656 1.4375 -4.054688 1.25 -4.078125 C 1.0625 -4.109375 0.851562 -4.070312 0.625 -3.96875 C 0.40625 -3.863281 0.238281 -3.726562 0.125 -3.5625 C 0.0078125 -3.394531 -0.046875 -3.1875 -0.046875 -2.9375 C -0.0546875 -2.695312 0.00390625 -2.4375 0.140625 -2.15625 C 0.265625 -1.851562 0.414062 -1.625 0.59375 -1.46875 C 0.78125 -1.3125 0.976562 -1.21875 1.1875 -1.1875 C 1.394531 -1.15625 1.609375 -1.191406 1.828125 -1.296875 C 2.066406 -1.398438 2.238281 -1.539062 2.34375 -1.71875 C 2.445312 -1.894531 2.5 -2.117188 2.5 -2.390625 L 2.578125 -2.421875 L 2.984375 -2.375 C 3.015625 -2.039062 2.953125 -1.734375 2.796875 -1.453125 C 2.648438 -1.179688 2.394531 -0.96875 2.03125 -0.8125 Z M 2.03125 -0.8125 "/></g></g></g><g fill="#000000" fill-opacity="1"><g transform="translate(67.911696, 10.213038)"><g><path d="M -0.453125 -4.609375 C -0.554688 -4.578125 -0.65625 -4.582031 -0.75 -4.625 C -0.84375 -4.675781 -0.910156 -4.757812 -0.953125 -4.875 C -0.984375 -4.976562 -0.972656 -5.078125 -0.921875 -5.171875 C -0.867188 -5.273438 -0.789062 -5.34375 -0.6875 -5.375 C -0.5625 -5.40625 -0.453125 -5.394531 -0.359375 -5.34375 C -0.273438 -5.289062 -0.21875 -5.210938 -0.1875 -5.109375 C -0.144531 -4.992188 -0.144531 -4.890625 -0.1875 -4.796875 C -0.238281 -4.703125 -0.328125 -4.640625 -0.453125 -4.609375 Z M 0.625 -0.1875 L -0.5 -3.8125 L 0.03125 -3.984375 L 1.15625 -0.359375 Z M 0.625 -0.1875 "/></g></g></g><g fill="#000000" fill-opacity="1"><g transform="translate(69.432256, 9.661534)"><g><path d="M 1.546875 -0.203125 C 1.179688 -0.140625 0.878906 -0.179688 0.640625 -0.328125 C 0.398438 -0.484375 0.25 -0.742188 0.1875 -1.109375 C 0.144531 -1.316406 0.148438 -1.507812 0.203125 -1.6875 C 0.265625 -1.863281 0.382812 -2.015625 0.5625 -2.140625 C 0.738281 -2.273438 0.976562 -2.398438 1.28125 -2.515625 C 1.539062 -2.609375 1.734375 -2.691406 1.859375 -2.765625 C 1.992188 -2.847656 2.078125 -2.929688 2.109375 -3.015625 C 2.148438 -3.097656 2.160156 -3.195312 2.140625 -3.3125 C 2.109375 -3.476562 2.023438 -3.59375 1.890625 -3.65625 C 1.753906 -3.726562 1.554688 -3.738281 1.296875 -3.6875 C 1.054688 -3.644531 0.859375 -3.554688 0.703125 -3.421875 C 0.554688 -3.296875 0.425781 -3.128906 0.3125 -2.921875 L 0.234375 -2.90625 L -0.09375 -3.25 C 0.0195312 -3.476562 0.1875 -3.671875 0.40625 -3.828125 C 0.632812 -3.992188 0.90625 -4.109375 1.21875 -4.171875 C 1.65625 -4.253906 1.992188 -4.210938 2.234375 -4.046875 C 2.484375 -3.890625 2.640625 -3.644531 2.703125 -3.3125 L 3.0625 -1.328125 C 3.101562 -1.128906 3.210938 -1.046875 3.390625 -1.078125 C 3.453125 -1.085938 3.507812 -1.101562 3.5625 -1.125 L 3.625 -1.140625 L 3.75 -0.765625 C 3.71875 -0.722656 3.664062 -0.6875 3.59375 -0.65625 C 3.53125 -0.632812 3.460938 -0.613281 3.390625 -0.59375 C 3.191406 -0.5625 3.03125 -0.582031 2.90625 -0.65625 C 2.78125 -0.726562 2.6875 -0.84375 2.625 -1 L 2.5625 -1.015625 C 2.476562 -0.796875 2.359375 -0.617188 2.203125 -0.484375 C 2.046875 -0.347656 1.828125 -0.253906 1.546875 -0.203125 Z M 1.59375 -0.6875 C 1.8125 -0.726562 1.984375 -0.804688 2.109375 -0.921875 C 2.234375 -1.046875 2.320312 -1.203125 2.375 -1.390625 C 2.425781 -1.585938 2.429688 -1.796875 2.390625 -2.015625 L 2.296875 -2.5 L 2.234375 -2.5 C 2.160156 -2.425781 2.070312 -2.351562 1.96875 -2.28125 C 1.863281 -2.21875 1.703125 -2.15625 1.484375 -2.09375 C 1.265625 -2.019531 1.097656 -1.941406 0.984375 -1.859375 C 0.878906 -1.773438 0.804688 -1.679688 0.765625 -1.578125 C 0.722656 -1.472656 0.71875 -1.351562 0.75 -1.21875 C 0.789062 -0.988281 0.882812 -0.832031 1.03125 -0.75 C 1.1875 -0.664062 1.375 -0.644531 1.59375 -0.6875 Z M 1.59375 -0.6875 "/></g></g></g><g fill="#000000" fill-opacity="1"><g transform="translate(72.987304, 9.013961)"><g><path d="M 2.546875 -0.734375 L 2.734375 -0.328125 C 2.660156 -0.234375 2.546875 -0.15625 2.390625 -0.09375 C 2.242188 -0.0390625 2.085938 -0.015625 1.921875 -0.015625 C 1.191406 0.0234375 0.8125 -0.320312 0.78125 -1.0625 L 0.671875 -3.375 L 0.015625 -3.359375 L 0 -3.828125 L 0.65625 -3.84375 L 0.609375 -4.640625 L 1.171875 -4.765625 L 1.21875 -3.875 L 2.453125 -3.9375 L 2.46875 -3.46875 L 1.234375 -3.40625 L 1.34375 -1.15625 C 1.363281 -0.71875 1.566406 -0.507812 1.953125 -0.53125 C 2.160156 -0.539062 2.332031 -0.601562 2.46875 -0.71875 Z M 2.546875 -0.734375 "/></g></g></g><g fill="#000000" fill-opacity="1"><g transform="translate(75.655234, 8.90319)"><g><path d="M 1.15625 -4.484375 C 1.039062 -4.492188 0.945312 -4.535156 0.875 -4.609375 C 0.8125 -4.691406 0.785156 -4.789062 0.796875 -4.90625 C 0.796875 -5.019531 0.832031 -5.113281 0.90625 -5.1875 C 0.988281 -5.257812 1.085938 -5.289062 1.203125 -5.28125 C 1.328125 -5.269531 1.421875 -5.226562 1.484375 -5.15625 C 1.554688 -5.082031 1.59375 -4.988281 1.59375 -4.875 C 1.582031 -4.757812 1.535156 -4.660156 1.453125 -4.578125 C 1.378906 -4.503906 1.28125 -4.472656 1.15625 -4.484375 Z M 0.65625 0.03125 L 0.84375 -3.765625 L 1.40625 -3.734375 L 1.21875 0.0625 Z M 0.65625 0.03125 "/></g></g></g><g fill="#000000" fill-opacity="1"><g transform="translate(77.255395, 8.886298)"><g><path d="M 2.140625 0.453125 C 1.773438 0.390625 1.472656 0.257812 1.234375 0.0625 C 1.003906 -0.132812 0.847656 -0.390625 0.765625 -0.703125 C 0.679688 -1.015625 0.675781 -1.378906 0.75 -1.796875 C 0.820312 -2.210938 0.953125 -2.554688 1.140625 -2.828125 C 1.328125 -3.097656 1.5625 -3.28125 1.84375 -3.375 C 2.132812 -3.476562 2.460938 -3.5 2.828125 -3.4375 C 3.171875 -3.375 3.460938 -3.242188 3.703125 -3.046875 C 3.941406 -2.859375 4.101562 -2.601562 4.1875 -2.28125 C 4.28125 -1.96875 4.289062 -1.601562 4.21875 -1.1875 C 4.144531 -0.769531 4.007812 -0.425781 3.8125 -0.15625 C 3.625 0.101562 3.382812 0.285156 3.09375 0.390625 C 2.800781 0.492188 2.484375 0.515625 2.140625 0.453125 Z M 2.234375 -0.0625 C 2.597656 0.0078125 2.898438 -0.046875 3.140625 -0.234375 C 3.390625 -0.429688 3.554688 -0.78125 3.640625 -1.28125 C 3.734375 -1.769531 3.695312 -2.148438 3.53125 -2.421875 C 3.375 -2.703125 3.113281 -2.878906 2.75 -2.953125 C 2.363281 -3.015625 2.050781 -2.941406 1.8125 -2.734375 C 1.570312 -2.535156 1.40625 -2.191406 1.3125 -1.703125 C 1.226562 -1.203125 1.265625 -0.816406 1.421875 -0.546875 C 1.578125 -0.285156 1.847656 -0.125 2.234375 -0.0625 Z M 2.234375 -0.0625 "/></g></g></g><g fill="#000000" fill-opacity="1"><g transform="translate(81.163488, 9.541685)"><g><path d="M 0.609375 0.21875 L 1.921875 -3.34375 L 2.4375 -3.15625 L 2.234375 -2.59375 L 2.28125 -2.5625 C 2.476562 -2.726562 2.6875 -2.832031 2.90625 -2.875 C 3.132812 -2.914062 3.378906 -2.890625 3.640625 -2.796875 C 4.078125 -2.628906 4.351562 -2.398438 4.46875 -2.109375 C 4.582031 -1.828125 4.554688 -1.457031 4.390625 -1 L 3.546875 1.296875 L 3.015625 1.109375 L 3.859375 -1.171875 C 3.929688 -1.390625 3.960938 -1.570312 3.953125 -1.71875 C 3.953125 -1.875 3.90625 -2.003906 3.8125 -2.109375 C 3.726562 -2.210938 3.59375 -2.300781 3.40625 -2.375 C 3.082031 -2.488281 2.78125 -2.472656 2.5 -2.328125 C 2.21875 -2.179688 1.988281 -1.875 1.8125 -1.40625 L 1.140625 0.421875 Z M 0.609375 0.21875 "/></g></g></g><g fill="#000000" fill-opacity="1"><g transform="translate(84.980846, 11.008352)"><g/></g></g><g fill="#000000" fill-opacity="1"><g transform="translate(86.377599, 11.718682)"><g/></g></g><g fill="#000000" fill-opacity="1"><g transform="translate(87.721563, 12.52446)"><g/></g></g><g fill="#000000" fill-opacity="1"><g transform="translate(89.006206, 13.421782)"><g/></g></g><g fill="#000000" fill-opacity="1"><g transform="translate(90.206259, 14.35852)"><g><path d="M 0.609375 0.59375 L 2.9375 -1.796875 L 2.46875 -2.265625 L 2.796875 -2.609375 L 3.265625 -2.140625 C 3.347656 -2.285156 3.441406 -2.410156 3.546875 -2.515625 C 3.722656 -2.691406 3.90625 -2.800781 4.09375 -2.84375 C 4.28125 -2.894531 4.46875 -2.882812 4.65625 -2.8125 C 4.851562 -2.75 5.039062 -2.628906 5.21875 -2.453125 C 5.488281 -2.191406 5.640625 -1.929688 5.671875 -1.671875 L 5.234375 -1.546875 L 5.1875 -1.578125 C 5.164062 -1.765625 5.066406 -1.941406 4.890625 -2.109375 C 4.722656 -2.273438 4.554688 -2.351562 4.390625 -2.34375 C 4.234375 -2.34375 4.085938 -2.269531 3.953125 -2.125 C 3.847656 -2.019531 3.75 -1.894531 3.65625 -1.75 L 4.53125 -0.90625 L 4.203125 -0.5625 L 3.328125 -1.40625 L 1 0.984375 Z M 0.609375 0.59375 "/></g></g></g><g fill="#000000" fill-opacity="1"><g transform="translate(91.971464, 15.962966)"><g><path d="M 1.265625 1.78125 C 1.046875 1.488281 0.914062 1.191406 0.875 0.890625 C 0.832031 0.585938 0.882812 0.289062 1.03125 0 C 1.175781 -0.289062 1.421875 -0.566406 1.765625 -0.828125 C 2.085938 -1.085938 2.410156 -1.25 2.734375 -1.3125 C 3.066406 -1.382812 3.375 -1.359375 3.65625 -1.234375 C 3.9375 -1.117188 4.1875 -0.914062 4.40625 -0.625 C 4.625 -0.34375 4.753906 -0.0546875 4.796875 0.234375 C 4.835938 0.535156 4.78125 0.832031 4.625 1.125 C 4.476562 1.425781 4.242188 1.707031 3.921875 1.96875 C 3.578125 2.226562 3.242188 2.390625 2.921875 2.453125 C 2.597656 2.515625 2.296875 2.488281 2.015625 2.375 C 1.734375 2.257812 1.484375 2.0625 1.265625 1.78125 Z M 1.671875 1.46875 C 1.898438 1.757812 2.171875 1.910156 2.484375 1.921875 C 2.796875 1.941406 3.15625 1.800781 3.5625 1.5 C 3.957031 1.1875 4.1875 0.875 4.25 0.5625 C 4.3125 0.257812 4.226562 -0.0351562 4 -0.328125 C 3.769531 -0.628906 3.5 -0.785156 3.1875 -0.796875 C 2.875 -0.816406 2.519531 -0.671875 2.125 -0.359375 C 1.71875 -0.0546875 1.484375 0.242188 1.421875 0.546875 C 1.359375 0.859375 1.441406 1.164062 1.671875 1.46875 Z M 1.671875 1.46875 "/></g></g></g><g fill="#000000" fill-opacity="1"><g transform="translate(94.403723, 19.16664)"><g><path d="M 0.3125 0.578125 L 3.625 -1.265625 L 3.90625 -0.796875 L 3.390625 -0.515625 L 3.390625 -0.4375 C 3.867188 -0.5 4.226562 -0.316406 4.46875 0.109375 C 4.59375 0.328125 4.644531 0.519531 4.625 0.6875 L 4.125 0.796875 L 4.078125 0.75 C 4.078125 0.582031 4.035156 0.425781 3.953125 0.28125 C 3.804688 0.0195312 3.59375 -0.125 3.3125 -0.15625 C 3.03125 -0.195312 2.664062 -0.09375 2.21875 0.15625 L 0.59375 1.0625 Z M 0.3125 0.578125 "/></g></g></g><g fill="#000000" fill-opacity="1"><g transform="translate(95.713013, 21.546719)"><g/></g></g><g fill="#000000" fill-opacity="1"><g transform="translate(96.350645, 22.978127)"><g/></g></g><g fill="#000000" fill-opacity="1"><g transform="translate(96.887148, 24.450428)"><g/></g></g><g fill="#000000" fill-opacity="1"><g transform="translate(97.319933, 25.956484)"><g/></g></g><g fill="#000000" fill-opacity="1"><g transform="translate(97.646895, 27.489001)"><g/></g></g><g fill="#000000" fill-opacity="1"><g transform="translate(97.941331, 28.912227)"><g><path d="M -0.046875 2.203125 C -0.046875 1.890625 -0.00390625 1.601562 0.078125 1.34375 C 0.160156 1.09375 0.269531 0.878906 0.40625 0.703125 C 0.539062 0.535156 0.691406 0.410156 0.859375 0.328125 L 1.265625 0.65625 L 1.265625 0.734375 C 0.742188 1.054688 0.488281 1.546875 0.5 2.203125 C 0.507812 2.578125 0.59375 2.851562 0.75 3.03125 C 0.90625 3.21875 1.125 3.3125 1.40625 3.3125 C 1.570312 3.300781 1.710938 3.265625 1.828125 3.203125 C 1.941406 3.140625 2.039062 3.035156 2.125 2.890625 C 2.207031 2.753906 2.273438 2.566406 2.328125 2.328125 L 2.46875 1.734375 C 2.5625 1.285156 2.71875 0.957031 2.9375 0.75 C 3.164062 0.539062 3.457031 0.429688 3.8125 0.421875 C 4.0625 0.421875 4.285156 0.484375 4.484375 0.609375 C 4.691406 0.734375 4.851562 0.921875 4.96875 1.171875 C 5.082031 1.421875 5.140625 1.71875 5.140625 2.0625 C 5.148438 2.4375 5.101562 2.753906 5 3.015625 C 4.894531 3.273438 4.738281 3.488281 4.53125 3.65625 L 4.125 3.375 L 4.125 3.28125 C 4.300781 3.132812 4.425781 2.960938 4.5 2.765625 C 4.582031 2.566406 4.625 2.335938 4.625 2.078125 C 4.625 1.722656 4.550781 1.457031 4.40625 1.28125 C 4.269531 1.101562 4.082031 1.015625 3.84375 1.015625 C 3.613281 1.023438 3.429688 1.09375 3.296875 1.21875 C 3.171875 1.351562 3.070312 1.578125 3 1.890625 L 2.859375 2.5 C 2.753906 2.988281 2.582031 3.34375 2.34375 3.5625 C 2.113281 3.789062 1.816406 3.910156 1.453125 3.921875 C 1.171875 3.921875 0.914062 3.859375 0.6875 3.734375 C 0.457031 3.609375 0.28125 3.414062 0.15625 3.15625 C 0.03125 2.894531 -0.0351562 2.578125 -0.046875 2.203125 Z M -0.046875 2.203125 "/></g></g></g><g fill="#000000" fill-opacity="1"><g transform="translate(97.97293, 32.895385)"><g><path d="M 0.28125 2.640625 L -0.15625 2.765625 C -0.238281 2.671875 -0.289062 2.539062 -0.3125 2.375 C -0.34375 2.21875 -0.347656 2.054688 -0.328125 1.890625 C -0.234375 1.171875 0.175781 0.863281 0.90625 0.96875 L 3.203125 1.265625 L 3.296875 0.609375 L 3.765625 0.671875 L 3.671875 1.328125 L 4.46875 1.421875 L 4.46875 1.984375 L 3.59375 1.875 L 3.4375 3.109375 L 2.96875 3.046875 L 3.125 1.8125 L 0.890625 1.515625 C 0.460938 1.460938 0.226562 1.628906 0.1875 2.015625 C 0.15625 2.222656 0.1875 2.40625 0.28125 2.5625 Z M 0.28125 2.640625 "/></g></g></g><g fill="#000000" fill-opacity="1"><g transform="translate(97.718606, 35.445397)"><g><path d="M -0.59375 1.78125 C -0.46875 1.375 -0.269531 1.101562 0 0.96875 C 0.28125 0.832031 0.628906 0.820312 1.046875 0.9375 L 3.484375 1.625 L 3.34375 2.15625 L 0.921875 1.46875 C 0.367188 1.3125 0.015625 1.492188 -0.140625 2.015625 C -0.222656 2.347656 -0.1875 2.640625 -0.03125 2.890625 C 0.125 3.148438 0.453125 3.347656 0.953125 3.484375 L 2.8125 4.015625 L 2.65625 4.546875 L -1 3.515625 L -0.84375 3 L -0.265625 3.15625 L -0.234375 3.125 C -0.429688 2.925781 -0.554688 2.722656 -0.609375 2.515625 C -0.671875 2.304688 -0.664062 2.0625 -0.59375 1.78125 Z M -0.59375 1.78125 "/></g></g></g><g fill="#000000" fill-opacity="1"><g transform="translate(96.698146, 39.225893)"><g><path d="M -0.921875 1.734375 C -0.785156 1.460938 -0.601562 1.253906 -0.375 1.109375 C -0.144531 0.960938 0.128906 0.894531 0.453125 0.90625 C 0.773438 0.914062 1.132812 1.015625 1.53125 1.203125 C 1.914062 1.390625 2.210938 1.609375 2.421875 1.859375 C 2.628906 2.117188 2.742188 2.390625 2.765625 2.671875 C 2.785156 2.960938 2.726562 3.25 2.59375 3.53125 C 2.476562 3.757812 2.332031 3.941406 2.15625 4.078125 C 1.988281 4.222656 1.773438 4.3125 1.515625 4.34375 L 1.5 4.421875 L 3.34375 5.3125 L 3.09375 5.8125 L -1.703125 3.484375 L -1.453125 2.984375 L -0.953125 3.234375 L -0.921875 3.15625 C -1.035156 2.96875 -1.097656 2.75 -1.109375 2.5 C -1.117188 2.257812 -1.054688 2.003906 -0.921875 1.734375 Z M -0.546875 2.109375 C -0.703125 2.429688 -0.71875 2.738281 -0.59375 3.03125 C -0.46875 3.332031 -0.179688 3.59375 0.265625 3.8125 C 0.703125 4.03125 1.078125 4.097656 1.390625 4.015625 C 1.703125 3.929688 1.9375 3.726562 2.09375 3.40625 C 2.25 3.082031 2.265625 2.773438 2.140625 2.484375 C 2.015625 2.203125 1.726562 1.953125 1.28125 1.734375 C 0.394531 1.304688 -0.210938 1.429688 -0.546875 2.109375 Z M -0.546875 2.109375 "/></g></g></g><g fill="#000000" fill-opacity="1"><g transform="translate(94.895871, 42.956546)"><g><path d="M -0.6875 3.96875 L 0.84375 1.859375 C 0.457031 1.585938 0.117188 1.472656 -0.171875 1.515625 C -0.460938 1.566406 -0.710938 1.734375 -0.921875 2.015625 C -1.078125 2.234375 -1.164062 2.4375 -1.1875 2.625 C -1.21875 2.820312 -1.175781 3.023438 -1.0625 3.234375 L -1.109375 3.296875 L -1.5 3.4375 C -1.644531 3.1875 -1.710938 2.914062 -1.703125 2.625 C -1.691406 2.34375 -1.570312 2.039062 -1.34375 1.71875 C -1.132812 1.425781 -0.890625 1.210938 -0.609375 1.078125 C -0.335938 0.953125 -0.0390625 0.921875 0.28125 0.984375 C 0.601562 1.046875 0.941406 1.207031 1.296875 1.46875 C 1.640625 1.71875 1.882812 1.988281 2.03125 2.28125 C 2.1875 2.570312 2.25 2.863281 2.21875 3.15625 C 2.1875 3.457031 2.070312 3.742188 1.875 4.015625 C 1.59375 4.410156 1.257812 4.632812 0.875 4.6875 C 0.488281 4.75 0.078125 4.625 -0.359375 4.3125 C -0.523438 4.1875 -0.640625 4.101562 -0.703125 4.0625 Z M -0.03125 3.875 C 0.289062 4.101562 0.582031 4.203125 0.84375 4.171875 C 1.101562 4.140625 1.320312 4 1.5 3.75 C 1.695312 3.476562 1.769531 3.210938 1.71875 2.953125 C 1.675781 2.691406 1.503906 2.421875 1.203125 2.140625 Z M -0.03125 3.875 "/></g></g></g><g fill="#000000" fill-opacity="1"><g transform="translate(92.786679, 45.954343)"><g><path d="M -0.46875 0.453125 L 2.1875 3.171875 L 1.796875 3.5625 L 1.375 3.125 L 1.328125 3.171875 C 1.398438 3.410156 1.40625 3.640625 1.34375 3.859375 C 1.28125 4.085938 1.148438 4.300781 0.953125 4.5 C 0.628906 4.8125 0.3125 4.957031 0 4.9375 C -0.320312 4.914062 -0.648438 4.734375 -0.984375 4.390625 L -2.703125 2.640625 L -2.296875 2.25 L -0.59375 3.984375 C -0.425781 4.148438 -0.273438 4.257812 -0.140625 4.3125 C -0.00390625 4.375 0.128906 4.382812 0.265625 4.34375 C 0.398438 4.3125 0.535156 4.222656 0.671875 4.078125 C 0.921875 3.835938 1.039062 3.5625 1.03125 3.25 C 1.019531 2.945312 0.835938 2.613281 0.484375 2.25 L -0.875 0.859375 Z M -0.46875 0.453125 "/></g></g></g><g fill="#000000" fill-opacity="1"><g transform="translate(89.880199, 48.759009)"><g><path d="M -1.71875 2.015625 L -2.09375 1.78125 C -2.09375 1.65625 -2.039062 1.53125 -1.9375 1.40625 C -1.84375 1.28125 -1.726562 1.164062 -1.59375 1.0625 C -1.007812 0.632812 -0.5 0.71875 -0.0625 1.3125 L 1.296875 3.1875 L 1.828125 2.796875 L 2.09375 3.171875 L 1.5625 3.5625 L 2.03125 4.21875 L 1.640625 4.609375 L 1.109375 3.890625 L 0.109375 4.625 L -0.15625 4.25 L 0.84375 3.515625 L -0.484375 1.703125 C -0.742188 1.347656 -1.03125 1.285156 -1.34375 1.515625 C -1.507812 1.640625 -1.613281 1.789062 -1.65625 1.96875 Z M -1.71875 2.015625 "/></g></g></g></svg>