<svg xmlns="http://www.w3.org/2000/svg" xmlns:xlink="http://www.w3.org/1999/xlink" width="300" zoomAndPan="magnify" viewBox="0 0 224.87999 225" height="300" preserveAspectRatio="xMidYMid meet" version="1.0"><defs><g/><clipPath id="80b01812fc"><path d="M 0 51.347656 L 103.511719 51.347656 L 103.511719 154.859375 L 0 154.859375 Z M 0 51.347656 " clip-rule="nonzero"/></clipPath><clipPath id="0a5585d16b"><path d="M 51.753906 51.347656 C 23.171875 51.347656 0 74.519531 0 103.101562 C 0 131.6875 23.171875 154.859375 51.753906 154.859375 C 80.339844 154.859375 103.511719 131.6875 103.511719 103.101562 C 103.511719 74.519531 80.339844 51.347656 51.753906 51.347656 Z M 51.753906 51.347656 " clip-rule="nonzero"/></clipPath><clipPath id="af6e299a9d"><path d="M 3.710938 55.058594 L 99.796875 55.058594 L 99.796875 151.144531 L 3.710938 151.144531 Z M 3.710938 55.058594 " clip-rule="nonzero"/></clipPath><clipPath id="ac70a9ef73"><path d="M 51.753906 55.058594 C 25.222656 55.058594 3.710938 76.570312 3.710938 103.101562 C 3.710938 129.636719 25.222656 151.144531 51.753906 151.144531 C 78.289062 151.144531 99.796875 129.636719 99.796875 103.101562 C 99.796875 76.570312 78.289062 55.058594 51.753906 55.058594 Z M 51.753906 55.058594 " clip-rule="nonzero"/></clipPath><clipPath id="19ba48581b"><path d="M 29.269531 78.421875 L 74.238281 78.421875 L 74.238281 123.386719 L 29.269531 123.386719 Z M 29.269531 78.421875 " clip-rule="nonzero"/></clipPath><clipPath id="3b96f0a55e"><path d="M 51.753906 78.421875 C 39.335938 78.421875 29.269531 88.488281 29.269531 100.90625 C 29.269531 113.320312 39.335938 123.386719 51.753906 123.386719 C 64.171875 123.386719 74.238281 113.320312 74.238281 100.90625 C 74.238281 88.488281 64.171875 78.421875 51.753906 78.421875 Z M 51.753906 78.421875 " clip-rule="nonzero"/></clipPath><clipPath id="2f861d2b77"><path d="M 36.902344 86.050781 L 66.609375 86.050781 L 66.609375 115.757812 L 36.902344 115.757812 Z M 36.902344 86.050781 " clip-rule="nonzero"/></clipPath><clipPath id="f4efa4c17e"><path d="M 51.753906 86.050781 C 43.550781 86.050781 36.902344 92.699219 36.902344 100.90625 C 36.902344 109.109375 43.550781 115.757812 51.753906 115.757812 C 59.957031 115.757812 66.609375 109.109375 66.609375 100.90625 C 66.609375 92.699219 59.957031 86.050781 51.753906 86.050781 Z M 51.753906 86.050781 " clip-rule="nonzero"/></clipPath></defs><g clip-path="url(#80b01812fc)"><g clip-path="url(#0a5585d16b)"><path fill="#51998c" d="M 0 51.347656 L 103.511719 51.347656 L 103.511719 154.859375 L 0 154.859375 Z M 0 51.347656 " fill-opacity="1" fill-rule="nonzero"/></g></g><g clip-path="url(#af6e299a9d)"><g clip-path="url(#ac70a9ef73)"><path fill="#90c6cd" d="M 3.710938 55.058594 L 99.796875 55.058594 L 99.796875 151.144531 L 3.710938 151.144531 Z M 3.710938 55.058594 " fill-opacity="1" fill-rule="nonzero"/></g></g><g clip-path="url(#19ba48581b)"><g clip-path="url(#3b96f0a55e)"><path fill="#18abbc" d="M 29.269531 78.421875 L 74.238281 78.421875 L 74.238281 123.386719 L 29.269531 123.386719 Z M 29.269531 78.421875 " fill-opacity="1" fill-rule="nonzero"/></g></g><g clip-path="url(#2f861d2b77)"><g clip-path="url(#f4efa4c17e)"><path fill="#000000" d="M 36.902344 86.050781 L 66.609375 86.050781 L 66.609375 115.757812 L 36.902344 115.757812 Z M 36.902344 86.050781 " fill-opacity="1" fill-rule="nonzero"/></g></g><g fill="#90c6cd" fill-opacity="1"><g transform="translate(145.278704, 115.914702)"><g><path d="M 7.171875 0.34375 C 5.992188 0.34375 4.96875 0.128906 4.09375 -0.296875 C 3.226562 -0.734375 2.5625 -1.367188 2.09375 -2.203125 C 1.632812 -3.046875 1.40625 -4.054688 1.40625 -5.234375 C 1.40625 -6.328125 1.632812 -7.242188 2.09375 -7.984375 C 2.5625 -8.722656 3.285156 -9.328125 4.265625 -9.796875 C 5.242188 -10.265625 6.523438 -10.628906 8.109375 -10.890625 C 9.203125 -11.066406 10.035156 -11.257812 10.609375 -11.46875 C 11.179688 -11.6875 11.566406 -11.925781 11.765625 -12.1875 C 11.972656 -12.457031 12.078125 -12.796875 12.078125 -13.203125 C 12.078125 -13.796875 11.867188 -14.25 11.453125 -14.5625 C 11.046875 -14.875 10.363281 -15.03125 9.40625 -15.03125 C 8.382812 -15.03125 7.410156 -14.800781 6.484375 -14.34375 C 5.566406 -13.882812 4.769531 -13.285156 4.09375 -12.546875 L 3.75 -12.546875 L 1.8125 -15.453125 C 2.75 -16.492188 3.890625 -17.300781 5.234375 -17.875 C 6.578125 -18.457031 8.046875 -18.75 9.640625 -18.75 C 12.078125 -18.75 13.835938 -18.226562 14.921875 -17.1875 C 16.015625 -16.15625 16.5625 -14.691406 16.5625 -12.796875 L 16.5625 -4.796875 C 16.5625 -3.972656 16.921875 -3.5625 17.640625 -3.5625 C 17.921875 -3.5625 18.195312 -3.613281 18.46875 -3.71875 L 18.703125 -3.65625 L 19.03125 -0.4375 C 18.769531 -0.269531 18.410156 -0.128906 17.953125 -0.015625 C 17.503906 0.0859375 17.007812 0.140625 16.46875 0.140625 C 15.363281 0.140625 14.5 -0.0703125 13.875 -0.5 C 13.257812 -0.925781 12.820312 -1.585938 12.5625 -2.484375 L 12.203125 -2.515625 C 11.304688 -0.609375 9.628906 0.34375 7.171875 0.34375 Z M 8.640625 -3.109375 C 9.703125 -3.109375 10.550781 -3.460938 11.1875 -4.171875 C 11.832031 -4.890625 12.15625 -5.890625 12.15625 -7.171875 L 12.15625 -9.046875 L 11.84375 -9.109375 C 11.5625 -8.878906 11.195312 -8.691406 10.75 -8.546875 C 10.300781 -8.398438 9.65625 -8.253906 8.8125 -8.109375 C 7.8125 -7.941406 7.085938 -7.65625 6.640625 -7.25 C 6.203125 -6.84375 5.984375 -6.265625 5.984375 -5.515625 C 5.984375 -4.734375 6.21875 -4.132812 6.6875 -3.71875 C 7.15625 -3.3125 7.804688 -3.109375 8.640625 -3.109375 Z M 8.640625 -3.109375 "/></g></g></g><g fill="#90c6cd" fill-opacity="1"><g transform="translate(164.67752, 115.914702)"><g><path d="M 2.65625 0 L 2.65625 -25.78125 L 7.265625 -25.78125 L 7.265625 -11.46875 L 7.71875 -11.46875 L 13.046875 -18.390625 L 17.734375 -18.390625 L 17.734375 -18.015625 L 11.46875 -9.9375 L 18.421875 -0.421875 L 18.421875 0 L 13.5625 0 L 7.71875 -7.75 L 7.265625 -7.75 L 7.265625 0 Z M 2.65625 0 "/></g></g></g><g fill="#90c6cd" fill-opacity="1"><g transform="translate(183.142258, 115.914702)"><g><path d="M 4.953125 -20.59375 C 4.117188 -20.59375 3.441406 -20.84375 2.921875 -21.34375 C 2.398438 -21.851562 2.140625 -22.507812 2.140625 -23.3125 C 2.140625 -24.101562 2.398438 -24.75 2.921875 -25.25 C 3.441406 -25.757812 4.117188 -26.015625 4.953125 -26.015625 C 5.503906 -26.015625 6 -25.894531 6.4375 -25.65625 C 6.875 -25.425781 7.210938 -25.109375 7.453125 -24.703125 C 7.691406 -24.296875 7.8125 -23.832031 7.8125 -23.3125 C 7.8125 -22.789062 7.691406 -22.320312 7.453125 -21.90625 C 7.210938 -21.5 6.875 -21.175781 6.4375 -20.9375 C 6 -20.707031 5.503906 -20.59375 4.953125 -20.59375 Z M 2.65625 0 L 2.65625 -18.390625 L 7.265625 -18.390625 L 7.265625 0 Z M 2.65625 0 "/></g></g></g><g fill="#90c6cd" fill-opacity="1"><g transform="translate(193.050163, 115.914702)"><g><path d="M 2.65625 0 L 2.65625 -18.390625 L 7.09375 -18.390625 L 7.09375 -15.921875 L 7.4375 -15.859375 C 8.039062 -16.847656 8.742188 -17.578125 9.546875 -18.046875 C 10.347656 -18.515625 11.378906 -18.75 12.640625 -18.75 C 14.023438 -18.75 15.140625 -18.472656 15.984375 -17.921875 C 16.835938 -17.367188 17.457031 -16.566406 17.84375 -15.515625 L 18.203125 -15.515625 C 18.765625 -16.609375 19.492188 -17.421875 20.390625 -17.953125 C 21.285156 -18.484375 22.398438 -18.75 23.734375 -18.75 C 27.546875 -18.75 29.453125 -16.625 29.453125 -12.375 L 29.453125 0 L 24.828125 0 L 24.828125 -11.796875 C 24.828125 -12.867188 24.613281 -13.644531 24.1875 -14.125 C 23.769531 -14.601562 23.097656 -14.84375 22.171875 -14.84375 C 19.628906 -14.84375 18.359375 -13.144531 18.359375 -9.75 L 18.359375 0 L 13.75 0 L 13.75 -11.796875 C 13.75 -12.867188 13.53125 -13.644531 13.09375 -14.125 C 12.664062 -14.601562 11.988281 -14.84375 11.0625 -14.84375 C 9.863281 -14.84375 8.929688 -14.441406 8.265625 -13.640625 C 7.597656 -12.847656 7.265625 -11.585938 7.265625 -9.859375 L 7.265625 0 Z M 2.65625 0 "/></g></g></g><g fill="#000000" fill-opacity="1"><g transform="translate(118.369611, 115.914702)"><g><path d="M 18.90625 -15.203125 L 18.90625 -24.390625 L 23.71875 -24.390625 L 23.71875 0 L 18.90625 0 L 18.90625 -11.109375 L 7.984375 -11.109375 L 7.984375 0 L 3.171875 0 L 3.171875 -24.390625 L 7.984375 -24.390625 L 7.984375 -15.203125 Z M 18.90625 -15.203125 "/></g></g></g><g fill="#000000" fill-opacity="1"><g transform="translate(32.520441, 134.028849)"><g><path d="M -1.640625 -1.375 L -0.953125 -0.796875 L -6.25 5.515625 L -7.359375 4.578125 L -4.765625 -2.359375 L -4.875 -2.4375 L -11.25 1.3125 L -12.3125 0.40625 L -7.015625 -5.90625 L -6.3125 -5.3125 L -10.640625 -0.171875 L -10.53125 -0.0625 L -4.359375 -3.65625 L -3.609375 -3.03125 L -6.078125 3.6875 L -5.96875 3.765625 Z M -1.640625 -1.375 "/></g></g></g><g fill="#000000" fill-opacity="1"><g transform="translate(25.227825, 127.751663)"><g><path d="M -5.921875 -2.890625 L -3.296875 0.46875 C -2.710938 -0.0078125 -2.382812 -0.488281 -2.3125 -0.96875 C -2.238281 -1.445312 -2.382812 -1.921875 -2.75 -2.390625 C -3.019531 -2.734375 -3.300781 -2.960938 -3.59375 -3.078125 C -3.882812 -3.203125 -4.210938 -3.222656 -4.578125 -3.140625 L -4.65625 -3.234375 L -4.734375 -3.921875 C -4.265625 -4.046875 -3.804688 -4.03125 -3.359375 -3.875 C -2.910156 -3.726562 -2.492188 -3.40625 -2.109375 -2.90625 C -1.734375 -2.425781 -1.503906 -1.941406 -1.421875 -1.453125 C -1.347656 -0.960938 -1.429688 -0.476562 -1.671875 0 C -1.910156 0.46875 -2.3125 0.921875 -2.875 1.359375 C -3.425781 1.796875 -3.96875 2.066406 -4.5 2.171875 C -5.03125 2.273438 -5.519531 2.234375 -5.96875 2.046875 C -6.414062 1.859375 -6.804688 1.550781 -7.140625 1.125 C -7.640625 0.488281 -7.847656 -0.140625 -7.765625 -0.765625 C -7.691406 -1.390625 -7.3125 -1.976562 -6.625 -2.53125 C -6.351562 -2.738281 -6.160156 -2.867188 -6.046875 -2.921875 Z M -6.0625 -1.8125 C -6.570312 -1.394531 -6.859375 -0.984375 -6.921875 -0.578125 C -6.984375 -0.179688 -6.851562 0.222656 -6.53125 0.640625 C -6.195312 1.066406 -5.816406 1.304688 -5.390625 1.359375 C -4.960938 1.421875 -4.472656 1.28125 -3.921875 0.9375 Z M -6.0625 -1.8125 "/></g></g></g><g fill="#000000" fill-opacity="1"><g transform="translate(21.484743, 123.097822)"><g><path d="M -1.40625 -2.90625 C -1.164062 -2.457031 -1.0625 -2.007812 -1.09375 -1.5625 C -1.132812 -1.113281 -1.316406 -0.679688 -1.640625 -0.265625 C -1.960938 0.140625 -2.441406 0.515625 -3.078125 0.859375 C -3.703125 1.179688 -4.273438 1.359375 -4.796875 1.390625 C -5.328125 1.421875 -5.789062 1.316406 -6.1875 1.078125 C -6.582031 0.835938 -6.898438 0.488281 -7.140625 0.03125 C -7.335938 -0.332031 -7.445312 -0.695312 -7.46875 -1.0625 C -7.488281 -1.425781 -7.394531 -1.796875 -7.1875 -2.171875 L -7.265625 -2.25 L -10.234375 -0.671875 L -10.65625 -1.484375 L -2.96875 -5.578125 L -2.546875 -4.765625 L -3.34375 -4.34375 L -3.296875 -4.234375 C -2.929688 -4.203125 -2.582031 -4.078125 -2.25 -3.859375 C -1.914062 -3.648438 -1.632812 -3.332031 -1.40625 -2.90625 Z M -2.265625 -2.765625 C -2.546875 -3.273438 -2.941406 -3.585938 -3.453125 -3.703125 C -3.960938 -3.816406 -4.578125 -3.679688 -5.296875 -3.296875 C -6.003906 -2.921875 -6.453125 -2.488281 -6.640625 -2 C -6.828125 -1.519531 -6.78125 -1.023438 -6.5 -0.515625 C -6.21875 0.015625 -5.828125 0.332031 -5.328125 0.4375 C -4.835938 0.539062 -4.234375 0.398438 -3.515625 0.015625 C -2.097656 -0.742188 -1.679688 -1.671875 -2.265625 -2.765625 Z M -2.265625 -2.765625 "/></g></g></g><g fill="#000000" fill-opacity="1"><g transform="translate(18.332548, 116.947496)"><g><path d="M -7.484375 1.15625 C -7.410156 1.34375 -7.410156 1.515625 -7.484375 1.671875 C -7.554688 1.828125 -7.679688 1.941406 -7.859375 2.015625 C -8.035156 2.078125 -8.195312 2.070312 -8.34375 2 C -8.5 1.925781 -8.613281 1.796875 -8.6875 1.609375 C -8.75 1.441406 -8.75 1.273438 -8.6875 1.109375 C -8.625 0.953125 -8.503906 0.84375 -8.328125 0.78125 C -8.148438 0.707031 -7.976562 0.707031 -7.8125 0.78125 C -7.65625 0.863281 -7.546875 0.988281 -7.484375 1.15625 Z M -0.375 -1.015625 L -6.1875 1.171875 L -6.515625 0.3125 L -0.703125 -1.875 Z M -0.375 -1.015625 "/></g></g></g><g fill="#000000" fill-opacity="1"><g transform="translate(17.286989, 114.521865)"><g><path d="M -0.734375 -3.484375 C -0.597656 -2.953125 -0.597656 -2.441406 -0.734375 -1.953125 C -0.878906 -1.472656 -1.160156 -1.054688 -1.578125 -0.703125 C -1.992188 -0.347656 -2.53125 -0.0859375 -3.1875 0.078125 C -3.84375 0.242188 -4.429688 0.265625 -4.953125 0.140625 C -5.484375 0.015625 -5.921875 -0.222656 -6.265625 -0.578125 C -6.617188 -0.941406 -6.863281 -1.390625 -7 -1.921875 C -7.15625 -2.554688 -7.15625 -3.09375 -7 -3.53125 C -6.851562 -3.976562 -6.609375 -4.332031 -6.265625 -4.59375 L -5.65625 -4.09375 L -5.640625 -3.984375 C -5.941406 -3.742188 -6.132812 -3.472656 -6.21875 -3.171875 C -6.3125 -2.878906 -6.304688 -2.53125 -6.203125 -2.125 C -6.109375 -1.75 -5.941406 -1.441406 -5.703125 -1.203125 C -5.460938 -0.972656 -5.144531 -0.820312 -4.75 -0.75 C -4.363281 -0.6875 -3.914062 -0.71875 -3.40625 -0.84375 C -2.90625 -0.96875 -2.5 -1.148438 -2.1875 -1.390625 C -1.882812 -1.640625 -1.675781 -1.921875 -1.5625 -2.234375 C -1.457031 -2.554688 -1.453125 -2.90625 -1.546875 -3.28125 C -1.648438 -3.707031 -1.832031 -4.03125 -2.09375 -4.25 C -2.351562 -4.476562 -2.703125 -4.617188 -3.140625 -4.671875 L -3.171875 -4.796875 L -2.96875 -5.484375 C -2.425781 -5.441406 -1.957031 -5.253906 -1.5625 -4.921875 C -1.164062 -4.585938 -0.890625 -4.109375 -0.734375 -3.484375 Z M -0.734375 -3.484375 "/></g></g></g><g fill="#000000" fill-opacity="1"><g transform="translate(15.843993, 108.903254)"><g><path d="M -0.09375 -2.5625 C -0.0390625 -1.957031 -0.160156 -1.46875 -0.453125 -1.09375 C -0.742188 -0.71875 -1.1875 -0.507812 -1.78125 -0.46875 C -2.132812 -0.4375 -2.445312 -0.484375 -2.71875 -0.609375 C -2.988281 -0.734375 -3.210938 -0.953125 -3.390625 -1.265625 C -3.578125 -1.578125 -3.738281 -1.976562 -3.875 -2.46875 C -3.988281 -2.90625 -4.101562 -3.238281 -4.21875 -3.46875 C -4.332031 -3.695312 -4.445312 -3.847656 -4.5625 -3.921875 C -4.6875 -3.992188 -4.835938 -4.023438 -5.015625 -4.015625 C -5.296875 -3.984375 -5.503906 -3.863281 -5.640625 -3.65625 C -5.773438 -3.457031 -5.820312 -3.144531 -5.78125 -2.71875 C -5.75 -2.3125 -5.640625 -1.972656 -5.453125 -1.703125 C -5.273438 -1.429688 -5.019531 -1.191406 -4.6875 -0.984375 L -4.6875 -0.875 L -5.28125 -0.359375 C -5.644531 -0.597656 -5.941406 -0.910156 -6.171875 -1.296875 C -6.398438 -1.679688 -6.535156 -2.132812 -6.578125 -2.65625 C -6.640625 -3.382812 -6.523438 -3.9375 -6.234375 -4.3125 C -5.941406 -4.6875 -5.515625 -4.894531 -4.953125 -4.9375 L -1.671875 -5.21875 C -1.328125 -5.25 -1.171875 -5.410156 -1.203125 -5.703125 C -1.203125 -5.796875 -1.222656 -5.890625 -1.265625 -5.984375 L -1.25 -6.0625 L -0.625 -6.21875 C -0.570312 -6.15625 -0.53125 -6.066406 -0.5 -5.953125 C -0.46875 -5.847656 -0.445312 -5.738281 -0.4375 -5.625 C -0.40625 -5.28125 -0.457031 -5.015625 -0.59375 -4.828125 C -0.726562 -4.640625 -0.941406 -4.507812 -1.234375 -4.4375 L -1.234375 -4.3125 C -0.890625 -4.164062 -0.625 -3.953125 -0.4375 -3.671875 C -0.25 -3.390625 -0.132812 -3.019531 -0.09375 -2.5625 Z M -0.84375 -2.703125 C -0.875 -3.046875 -0.976562 -3.335938 -1.15625 -3.578125 C -1.34375 -3.816406 -1.582031 -3.988281 -1.875 -4.09375 C -2.175781 -4.207031 -2.515625 -4.25 -2.890625 -4.21875 L -3.671875 -4.15625 L -3.703125 -4.046875 C -3.578125 -3.910156 -3.472656 -3.742188 -3.390625 -3.546875 C -3.316406 -3.359375 -3.238281 -3.085938 -3.15625 -2.734375 C -3.070312 -2.378906 -2.972656 -2.101562 -2.859375 -1.90625 C -2.742188 -1.707031 -2.601562 -1.566406 -2.4375 -1.484375 C -2.28125 -1.410156 -2.085938 -1.382812 -1.859375 -1.40625 C -1.492188 -1.4375 -1.222656 -1.566406 -1.046875 -1.796875 C -0.878906 -2.023438 -0.8125 -2.328125 -0.84375 -2.703125 Z M -0.84375 -2.703125 "/></g></g></g><g fill="#000000" fill-opacity="1"><g transform="translate(15.398305, 102.962052)"><g><path d="M 0.21875 -2.46875 C 0.195312 -2.03125 0.0546875 -1.6875 -0.203125 -1.4375 C -0.460938 -1.195312 -0.84375 -1.085938 -1.34375 -1.109375 L -8.671875 -1.375 L -8.640625 -2.28125 L -1.375 -2.015625 C -1.113281 -2.003906 -0.921875 -2.050781 -0.796875 -2.15625 C -0.679688 -2.257812 -0.617188 -2.414062 -0.609375 -2.625 C -0.609375 -2.75 -0.625 -2.878906 -0.65625 -3.015625 L -0.640625 -3.09375 L 0.09375 -3.171875 C 0.132812 -3.097656 0.164062 -3 0.1875 -2.875 C 0.207031 -2.75 0.21875 -2.613281 0.21875 -2.46875 Z M 0.21875 -2.46875 "/></g></g></g><g fill="#000000" fill-opacity="1"><g transform="translate(15.50797, 99.883258)"><g/></g></g><g fill="#000000" fill-opacity="1"><g transform="translate(15.783972, 97.341498)"><g/></g></g><g fill="#000000" fill-opacity="1"><g transform="translate(16.236129, 94.825102)"><g/></g></g><g fill="#000000" fill-opacity="1"><g transform="translate(16.862251, 92.346263)"><g/></g></g><g fill="#000000" fill-opacity="1"><g transform="translate(17.659303, 89.91697)"><g/></g></g><g fill="#000000" fill-opacity="1"><g transform="translate(18.371561, 87.68017)"><g><path d="M 3.6875 -6.421875 L 3.171875 -5.53125 L 0.828125 -5.984375 L -0.921875 -2.953125 L 0.671875 -1.171875 L 0.15625 -0.28125 L -5.546875 -6.875 L -4.890625 -8.03125 Z M -4.390625 -6.890625 L -1.46875 -3.578125 L 0 -6.15625 L -4.328125 -7.015625 Z M -4.390625 -6.890625 "/></g></g></g><g fill="#000000" fill-opacity="1"><g transform="translate(21.928798, 81.533997)"><g><path d="M 1.890625 -2.109375 C 1.640625 -1.804688 1.367188 -1.5625 1.078125 -1.375 C 0.796875 -1.1875 0.507812 -1.0625 0.21875 -1 C -0.0625 -0.9375 -0.320312 -0.9375 -0.5625 -1 L -0.65625 -1.796875 L -0.578125 -1.875 C -0.210938 -1.84375 0.117188 -1.882812 0.421875 -2 C 0.722656 -2.125 1 -2.335938 1.25 -2.640625 C 1.539062 -2.992188 1.691406 -3.316406 1.703125 -3.609375 C 1.722656 -3.910156 1.609375 -4.164062 1.359375 -4.375 C 1.171875 -4.519531 0.96875 -4.585938 0.75 -4.578125 C 0.53125 -4.566406 0.285156 -4.460938 0.015625 -4.265625 L -0.828125 -3.609375 C -1.285156 -3.265625 -1.707031 -3.082031 -2.09375 -3.0625 C -2.488281 -3.050781 -2.851562 -3.1875 -3.1875 -3.46875 C -3.445312 -3.675781 -3.617188 -3.925781 -3.703125 -4.21875 C -3.785156 -4.507812 -3.773438 -4.828125 -3.671875 -5.171875 C -3.578125 -5.515625 -3.382812 -5.859375 -3.09375 -6.203125 C -2.738281 -6.640625 -2.394531 -6.929688 -2.0625 -7.078125 C -1.726562 -7.222656 -1.394531 -7.28125 -1.0625 -7.25 L -1.015625 -6.546875 L -1.078125 -6.453125 C -1.378906 -6.453125 -1.640625 -6.390625 -1.859375 -6.265625 C -2.085938 -6.148438 -2.300781 -5.96875 -2.5 -5.71875 C -2.769531 -5.394531 -2.914062 -5.101562 -2.9375 -4.84375 C -2.96875 -4.582031 -2.875 -4.363281 -2.65625 -4.1875 C -2.457031 -4.03125 -2.25 -3.960938 -2.03125 -3.984375 C -1.820312 -4.003906 -1.5625 -4.128906 -1.25 -4.359375 L -0.390625 -5 C 0.0546875 -5.34375 0.46875 -5.515625 0.84375 -5.515625 C 1.21875 -5.515625 1.578125 -5.367188 1.921875 -5.078125 C 2.203125 -4.847656 2.394531 -4.578125 2.5 -4.265625 C 2.613281 -3.960938 2.617188 -3.625 2.515625 -3.25 C 2.421875 -2.882812 2.210938 -2.503906 1.890625 -2.109375 Z M 1.890625 -2.109375 "/></g></g></g><g fill="#000000" fill-opacity="1"><g transform="translate(25.197251, 77.484949)"><g><path d="M 2.15625 -1.8125 C 1.875 -1.550781 1.578125 -1.347656 1.265625 -1.203125 C 0.953125 -1.054688 0.648438 -0.972656 0.359375 -0.953125 C 0.0664062 -0.929688 -0.1875 -0.96875 -0.40625 -1.0625 L -0.390625 -1.859375 L -0.3125 -1.9375 C 0.0507812 -1.84375 0.390625 -1.832031 0.703125 -1.90625 C 1.015625 -1.988281 1.316406 -2.160156 1.609375 -2.421875 C 1.953125 -2.734375 2.148438 -3.035156 2.203125 -3.328125 C 2.265625 -3.617188 2.1875 -3.882812 1.96875 -4.125 C 1.800781 -4.300781 1.609375 -4.398438 1.390625 -4.421875 C 1.171875 -4.441406 0.914062 -4.375 0.625 -4.21875 L -0.3125 -3.6875 C -0.8125 -3.414062 -1.253906 -3.296875 -1.640625 -3.328125 C -2.035156 -3.367188 -2.378906 -3.550781 -2.671875 -3.875 C -2.898438 -4.125 -3.035156 -4.398438 -3.078125 -4.703125 C -3.117188 -5.003906 -3.0625 -5.3125 -2.90625 -5.625 C -2.757812 -5.945312 -2.523438 -6.257812 -2.203125 -6.5625 C -1.785156 -6.945312 -1.398438 -7.191406 -1.046875 -7.296875 C -0.703125 -7.398438 -0.363281 -7.414062 -0.03125 -7.34375 L -0.078125 -6.609375 L -0.15625 -6.546875 C -0.457031 -6.578125 -0.726562 -6.546875 -0.96875 -6.453125 C -1.207031 -6.367188 -1.445312 -6.21875 -1.6875 -6 C -1.988281 -5.71875 -2.171875 -5.453125 -2.234375 -5.203125 C -2.296875 -4.953125 -2.234375 -4.722656 -2.046875 -4.515625 C -1.867188 -4.328125 -1.671875 -4.226562 -1.453125 -4.21875 C -1.242188 -4.21875 -0.96875 -4.3125 -0.625 -4.5 L 0.3125 -5.015625 C 0.800781 -5.285156 1.234375 -5.390625 1.609375 -5.328125 C 1.984375 -5.273438 2.320312 -5.085938 2.625 -4.765625 C 2.875 -4.492188 3.03125 -4.195312 3.09375 -3.875 C 3.15625 -3.550781 3.109375 -3.210938 2.953125 -2.859375 C 2.796875 -2.515625 2.53125 -2.164062 2.15625 -1.8125 Z M 2.15625 -1.8125 "/></g></g></g><g fill="#000000" fill-opacity="1"><g transform="translate(28.918219, 73.928857)"><g><path d="M 3.03125 -1.859375 C 2.539062 -1.535156 2.046875 -1.359375 1.546875 -1.328125 C 1.054688 -1.296875 0.582031 -1.414062 0.125 -1.6875 C -0.332031 -1.96875 -0.753906 -2.394531 -1.140625 -2.96875 C -1.515625 -3.53125 -1.738281 -4.078125 -1.8125 -4.609375 C -1.882812 -5.148438 -1.804688 -5.644531 -1.578125 -6.09375 C -1.359375 -6.539062 -1.003906 -6.925781 -0.515625 -7.25 C -0.0234375 -7.570312 0.46875 -7.75 0.96875 -7.78125 C 1.46875 -7.8125 1.945312 -7.6875 2.40625 -7.40625 C 2.863281 -7.132812 3.28125 -6.71875 3.65625 -6.15625 C 4.039062 -5.582031 4.269531 -5.023438 4.34375 -4.484375 C 4.414062 -3.953125 4.335938 -3.460938 4.109375 -3.015625 C 3.878906 -2.566406 3.519531 -2.179688 3.03125 -1.859375 Z M 2.578125 -2.5625 C 3.097656 -2.90625 3.390625 -3.328125 3.453125 -3.828125 C 3.515625 -4.335938 3.316406 -4.9375 2.859375 -5.625 C 2.410156 -6.300781 1.941406 -6.710938 1.453125 -6.859375 C 0.960938 -7.003906 0.457031 -6.90625 -0.0625 -6.5625 C -0.570312 -6.21875 -0.859375 -5.789062 -0.921875 -5.28125 C -0.984375 -4.769531 -0.789062 -4.175781 -0.34375 -3.5 C 0.113281 -2.8125 0.585938 -2.394531 1.078125 -2.25 C 1.566406 -2.113281 2.066406 -2.21875 2.578125 -2.5625 Z M 2.578125 -2.5625 "/></g></g></g><g fill="#000000" fill-opacity="1"><g transform="translate(34.323302, 70.326977)"><g><path d="M 3.296875 -1.328125 C 2.796875 -1.109375 2.296875 -1.023438 1.796875 -1.078125 C 1.304688 -1.128906 0.847656 -1.328125 0.421875 -1.671875 C -0.00390625 -2.015625 -0.359375 -2.5 -0.640625 -3.125 C -0.910156 -3.738281 -1.03125 -4.316406 -1 -4.859375 C -0.96875 -5.398438 -0.800781 -5.875 -0.5 -6.28125 C -0.207031 -6.6875 0.1875 -7 0.6875 -7.21875 C 1.289062 -7.488281 1.820312 -7.585938 2.28125 -7.515625 C 2.738281 -7.441406 3.125 -7.257812 3.4375 -6.96875 L 3.0625 -6.296875 L 2.953125 -6.25 C 2.660156 -6.488281 2.359375 -6.628906 2.046875 -6.671875 C 1.742188 -6.710938 1.398438 -6.644531 1.015625 -6.46875 C 0.671875 -6.3125 0.398438 -6.09375 0.203125 -5.8125 C 0.015625 -5.539062 -0.078125 -5.207031 -0.078125 -4.8125 C -0.078125 -4.425781 0.0234375 -3.992188 0.234375 -3.515625 C 0.453125 -3.035156 0.707031 -2.660156 1 -2.390625 C 1.289062 -2.128906 1.601562 -1.972656 1.9375 -1.921875 C 2.28125 -1.867188 2.625 -1.921875 2.96875 -2.078125 C 3.375 -2.265625 3.660156 -2.503906 3.828125 -2.796875 C 4.003906 -3.085938 4.082031 -3.457031 4.0625 -3.90625 L 4.171875 -3.953125 L 4.875 -3.875 C 4.9375 -3.332031 4.835938 -2.835938 4.578125 -2.390625 C 4.316406 -1.953125 3.890625 -1.597656 3.296875 -1.328125 Z M 3.296875 -1.328125 "/></g></g></g><g fill="#000000" fill-opacity="1"><g transform="translate(39.788367, 67.979066)"><g><path d="M -0.703125 -7.53125 C -0.898438 -7.476562 -1.078125 -7.492188 -1.234375 -7.578125 C -1.390625 -7.660156 -1.492188 -7.789062 -1.546875 -7.96875 C -1.597656 -8.144531 -1.582031 -8.304688 -1.5 -8.453125 C -1.425781 -8.609375 -1.289062 -8.710938 -1.09375 -8.765625 C -0.914062 -8.828125 -0.75 -8.816406 -0.59375 -8.734375 C -0.4375 -8.660156 -0.332031 -8.535156 -0.28125 -8.359375 C -0.226562 -8.179688 -0.238281 -8.015625 -0.3125 -7.859375 C -0.394531 -7.703125 -0.523438 -7.59375 -0.703125 -7.53125 Z M 1.03125 -0.3125 L -0.8125 -6.234375 L 0.0625 -6.515625 L 1.90625 -0.59375 Z M 1.03125 -0.3125 "/></g></g></g><g fill="#000000" fill-opacity="1"><g transform="translate(42.269291, 67.07924)"><g><path d="M 2.53125 -0.34375 C 1.925781 -0.226562 1.425781 -0.296875 1.03125 -0.546875 C 0.632812 -0.804688 0.382812 -1.226562 0.28125 -1.8125 C 0.207031 -2.175781 0.222656 -2.492188 0.328125 -2.765625 C 0.429688 -3.046875 0.628906 -3.289062 0.921875 -3.5 C 1.210938 -3.71875 1.597656 -3.921875 2.078125 -4.109375 C 2.503906 -4.265625 2.820312 -4.410156 3.03125 -4.546875 C 3.25 -4.679688 3.390625 -4.8125 3.453125 -4.9375 C 3.515625 -5.0625 3.53125 -5.210938 3.5 -5.390625 C 3.445312 -5.671875 3.3125 -5.863281 3.09375 -5.96875 C 2.875 -6.082031 2.554688 -6.097656 2.140625 -6.015625 C 1.734375 -5.941406 1.40625 -5.800781 1.15625 -5.59375 C 0.90625 -5.394531 0.691406 -5.117188 0.515625 -4.765625 L 0.40625 -4.75 L -0.15625 -5.296875 C 0.0390625 -5.671875 0.316406 -5.988281 0.671875 -6.25 C 1.035156 -6.519531 1.476562 -6.703125 2 -6.796875 C 2.707031 -6.929688 3.257812 -6.875 3.65625 -6.625 C 4.0625 -6.375 4.316406 -5.972656 4.421875 -5.421875 L 5.03125 -2.1875 C 5.09375 -1.84375 5.269531 -1.695312 5.5625 -1.75 C 5.65625 -1.757812 5.738281 -1.789062 5.8125 -1.84375 L 5.890625 -1.84375 L 6.125 -1.234375 C 6.0625 -1.179688 5.976562 -1.128906 5.875 -1.078125 C 5.78125 -1.035156 5.675781 -1.003906 5.5625 -0.984375 C 5.21875 -0.921875 4.941406 -0.945312 4.734375 -1.0625 C 4.535156 -1.1875 4.390625 -1.382812 4.296875 -1.65625 L 4.171875 -1.65625 C 4.066406 -1.289062 3.878906 -1 3.609375 -0.78125 C 3.335938 -0.570312 2.976562 -0.425781 2.53125 -0.34375 Z M 2.609375 -1.09375 C 2.941406 -1.15625 3.21875 -1.289062 3.4375 -1.5 C 3.664062 -1.707031 3.816406 -1.960938 3.890625 -2.265625 C 3.972656 -2.578125 3.976562 -2.921875 3.90625 -3.296875 L 3.765625 -4.0625 L 3.65625 -4.078125 C 3.539062 -3.953125 3.390625 -3.835938 3.203125 -3.734375 C 3.015625 -3.640625 2.753906 -3.535156 2.421875 -3.421875 C 2.066406 -3.304688 1.796875 -3.175781 1.609375 -3.03125 C 1.421875 -2.894531 1.296875 -2.742188 1.234375 -2.578125 C 1.171875 -2.410156 1.160156 -2.210938 1.203125 -1.984375 C 1.265625 -1.628906 1.421875 -1.375 1.671875 -1.21875 C 1.929688 -1.070312 2.242188 -1.03125 2.609375 -1.09375 Z M 2.609375 -1.09375 "/></g></g></g><g fill="#000000" fill-opacity="1"><g transform="translate(48.069643, 66.02267)"><g><path d="M 4.15625 -1.171875 L 4.484375 -0.53125 C 4.347656 -0.382812 4.160156 -0.265625 3.921875 -0.171875 C 3.679688 -0.0859375 3.421875 -0.0351562 3.140625 -0.015625 C 1.953125 0.0351562 1.332031 -0.539062 1.28125 -1.75 L 1.109375 -5.53125 L 0.03125 -5.484375 L 0 -6.234375 L 1.078125 -6.28125 L 1.015625 -7.578125 L 1.921875 -7.78125 L 2 -6.328125 L 4 -6.421875 L 4.03125 -5.671875 L 2.03125 -5.578125 L 2.203125 -1.890625 C 2.234375 -1.171875 2.554688 -0.828125 3.171875 -0.859375 C 3.515625 -0.867188 3.800781 -0.972656 4.03125 -1.171875 Z M 4.15625 -1.171875 "/></g></g></g><g fill="#000000" fill-opacity="1"><g transform="translate(52.422589, 65.841941)"><g><path d="M 1.921875 -7.3125 C 1.722656 -7.320312 1.566406 -7.390625 1.453125 -7.515625 C 1.335938 -7.648438 1.285156 -7.8125 1.296875 -8 C 1.304688 -8.1875 1.375 -8.335938 1.5 -8.453125 C 1.625 -8.566406 1.785156 -8.617188 1.984375 -8.609375 C 2.171875 -8.597656 2.320312 -8.53125 2.4375 -8.40625 C 2.5625 -8.28125 2.617188 -8.125 2.609375 -7.9375 C 2.597656 -7.75 2.523438 -7.59375 2.390625 -7.46875 C 2.265625 -7.351562 2.109375 -7.300781 1.921875 -7.3125 Z M 1.078125 0.046875 L 1.390625 -6.15625 L 2.3125 -6.109375 L 2 0.09375 Z M 1.078125 0.046875 "/></g></g></g><g fill="#000000" fill-opacity="1"><g transform="translate(55.033388, 65.814377)"><g><path d="M 3.484375 0.75 C 2.910156 0.644531 2.429688 0.429688 2.046875 0.109375 C 1.671875 -0.203125 1.40625 -0.617188 1.25 -1.140625 C 1.101562 -1.660156 1.09375 -2.257812 1.21875 -2.9375 C 1.332031 -3.601562 1.546875 -4.15625 1.859375 -4.59375 C 2.179688 -5.03125 2.578125 -5.332031 3.046875 -5.5 C 3.515625 -5.675781 4.035156 -5.710938 4.609375 -5.609375 C 5.191406 -5.503906 5.671875 -5.289062 6.046875 -4.96875 C 6.429688 -4.65625 6.695312 -4.238281 6.84375 -3.71875 C 7 -3.195312 7.019531 -2.601562 6.90625 -1.9375 C 6.78125 -1.257812 6.554688 -0.703125 6.234375 -0.265625 C 5.921875 0.171875 5.53125 0.472656 5.0625 0.640625 C 4.59375 0.816406 4.066406 0.851562 3.484375 0.75 Z M 3.625 -0.0625 C 4.25 0.0390625 4.753906 -0.0664062 5.140625 -0.390625 C 5.535156 -0.722656 5.804688 -1.296875 5.953125 -2.109375 C 6.085938 -2.910156 6.023438 -3.53125 5.765625 -3.96875 C 5.515625 -4.414062 5.078125 -4.691406 4.453125 -4.796875 C 3.847656 -4.910156 3.347656 -4.800781 2.953125 -4.46875 C 2.554688 -4.144531 2.289062 -3.582031 2.15625 -2.78125 C 2.007812 -1.96875 2.066406 -1.335938 2.328125 -0.890625 C 2.585938 -0.453125 3.019531 -0.175781 3.625 -0.0625 Z M 3.625 -0.0625 "/></g></g></g><g fill="#000000" fill-opacity="1"><g transform="translate(61.409769, 66.883697)"><g><path d="M 1.015625 0.375 L 3.15625 -5.453125 L 3.96875 -5.15625 L 3.625 -4.25 L 3.75 -4.171875 C 4.0625 -4.453125 4.398438 -4.625 4.765625 -4.6875 C 5.128906 -4.75 5.523438 -4.703125 5.953125 -4.546875 C 6.660156 -4.285156 7.109375 -3.921875 7.296875 -3.453125 C 7.484375 -2.984375 7.441406 -2.375 7.171875 -1.625 L 5.796875 2.125 L 4.921875 1.8125 L 6.28125 -1.90625 C 6.414062 -2.257812 6.476562 -2.5625 6.46875 -2.8125 C 6.457031 -3.070312 6.375 -3.28125 6.21875 -3.4375 C 6.070312 -3.601562 5.847656 -3.742188 5.546875 -3.859375 C 5.015625 -4.046875 4.519531 -4.023438 4.0625 -3.796875 C 3.613281 -3.578125 3.25 -3.082031 2.96875 -2.3125 L 1.875 0.6875 Z M 1.015625 0.375 "/></g></g></g><g fill="#000000" fill-opacity="1"><g transform="translate(67.638097, 69.276683)"><g/></g></g><g fill="#000000" fill-opacity="1"><g transform="translate(69.917031, 70.435646)"><g/></g></g><g fill="#000000" fill-opacity="1"><g transform="translate(72.109813, 71.750343)"><g/></g></g><g fill="#000000" fill-opacity="1"><g transform="translate(74.205818, 73.214403)"><g/></g></g><g fill="#000000" fill-opacity="1"><g transform="translate(76.163809, 74.742762)"><g><path d="M 1 0.96875 L 4.8125 -2.953125 L 4.03125 -3.71875 L 4.5625 -4.25 L 5.34375 -3.484375 C 5.476562 -3.734375 5.628906 -3.941406 5.796875 -4.109375 C 6.078125 -4.398438 6.375 -4.582031 6.6875 -4.65625 C 7 -4.738281 7.3125 -4.722656 7.625 -4.609375 C 7.9375 -4.492188 8.238281 -4.296875 8.53125 -4.015625 C 8.96875 -3.585938 9.210938 -3.160156 9.265625 -2.734375 L 8.578125 -2.53125 L 8.453125 -2.578125 C 8.410156 -2.890625 8.253906 -3.179688 7.984375 -3.453125 C 7.722656 -3.703125 7.457031 -3.828125 7.1875 -3.828125 C 6.925781 -3.828125 6.675781 -3.703125 6.4375 -3.453125 C 6.289062 -3.296875 6.140625 -3.09375 5.984375 -2.84375 L 7.40625 -1.46875 L 6.875 -0.9375 L 5.453125 -2.3125 L 1.640625 1.609375 Z M 1 0.96875 "/></g></g></g><g fill="#000000" fill-opacity="1"><g transform="translate(79.043872, 77.360553)"><g><path d="M 2.078125 2.90625 C 1.722656 2.4375 1.507812 1.957031 1.4375 1.46875 C 1.375 0.976562 1.460938 0.488281 1.703125 0 C 1.941406 -0.476562 2.335938 -0.925781 2.890625 -1.34375 C 3.421875 -1.757812 3.945312 -2.019531 4.46875 -2.125 C 5 -2.238281 5.492188 -2.203125 5.953125 -2.015625 C 6.421875 -1.828125 6.832031 -1.5 7.1875 -1.03125 C 7.539062 -0.570312 7.75 -0.09375 7.8125 0.40625 C 7.882812 0.90625 7.800781 1.394531 7.5625 1.875 C 7.320312 2.351562 6.9375 2.800781 6.40625 3.21875 C 5.851562 3.632812 5.3125 3.898438 4.78125 4.015625 C 4.257812 4.128906 3.765625 4.085938 3.296875 3.890625 C 2.835938 3.691406 2.429688 3.363281 2.078125 2.90625 Z M 2.734375 2.40625 C 3.117188 2.894531 3.5625 3.148438 4.0625 3.171875 C 4.570312 3.191406 5.15625 2.953125 5.8125 2.453125 C 6.445312 1.953125 6.820312 1.453125 6.9375 0.953125 C 7.050781 0.453125 6.914062 -0.0390625 6.53125 -0.53125 C 6.15625 -1.019531 5.707031 -1.273438 5.1875 -1.296875 C 4.675781 -1.328125 4.101562 -1.09375 3.46875 -0.59375 C 2.8125 -0.09375 2.429688 0.40625 2.328125 0.90625 C 2.222656 1.414062 2.359375 1.914062 2.734375 2.40625 Z M 2.734375 2.40625 "/></g></g></g><g fill="#000000" fill-opacity="1"><g transform="translate(83.012307, 82.587612)"><g><path d="M 0.53125 0.9375 L 5.953125 -2.09375 L 6.375 -1.328125 L 5.515625 -0.84375 L 5.5625 -0.71875 C 6.3125 -0.8125 6.882812 -0.507812 7.28125 0.1875 C 7.488281 0.5625 7.570312 0.875 7.53125 1.125 L 6.75 1.296875 L 6.671875 1.21875 C 6.648438 0.945312 6.578125 0.691406 6.453125 0.453125 C 6.203125 0.015625 5.847656 -0.222656 5.390625 -0.265625 C 4.941406 -0.316406 4.351562 -0.140625 3.625 0.265625 L 0.96875 1.75 Z M 0.53125 0.9375 "/></g></g></g><g fill="#000000" fill-opacity="1"><g transform="translate(85.148542, 86.470908)"><g/></g></g><g fill="#000000" fill-opacity="1"><g transform="translate(86.188883, 88.806367)"><g/></g></g><g fill="#000000" fill-opacity="1"><g transform="translate(87.064239, 91.208552)"><g/></g></g><g fill="#000000" fill-opacity="1"><g transform="translate(87.770355, 93.665807)"><g/></g></g><g fill="#000000" fill-opacity="1"><g transform="translate(88.303816, 96.16623)"><g/></g></g><g fill="#000000" fill-opacity="1"><g transform="translate(88.784218, 98.488343)"><g><path d="M -0.078125 3.59375 C -0.078125 3.082031 -0.0078125 2.617188 0.125 2.203125 C 0.257812 1.796875 0.4375 1.453125 0.65625 1.171875 C 0.882812 0.890625 1.140625 0.679688 1.421875 0.546875 L 2.0625 1.0625 L 2.0625 1.203125 C 1.207031 1.722656 0.785156 2.515625 0.796875 3.578125 C 0.804688 4.203125 0.941406 4.664062 1.203125 4.96875 C 1.472656 5.269531 1.835938 5.414062 2.296875 5.40625 C 2.566406 5.394531 2.796875 5.335938 2.984375 5.234375 C 3.171875 5.140625 3.328125 4.976562 3.453125 4.75 C 3.585938 4.519531 3.703125 4.203125 3.796875 3.796875 L 4.015625 2.828125 C 4.179688 2.109375 4.445312 1.578125 4.8125 1.234375 C 5.1875 0.890625 5.664062 0.710938 6.25 0.703125 C 6.65625 0.691406 7.019531 0.789062 7.34375 1 C 7.664062 1.207031 7.921875 1.507812 8.109375 1.90625 C 8.296875 2.3125 8.390625 2.796875 8.390625 3.359375 C 8.398438 3.984375 8.320312 4.507812 8.15625 4.9375 C 8 5.363281 7.742188 5.707031 7.390625 5.96875 L 6.75 5.515625 L 6.75 5.375 C 7.03125 5.125 7.234375 4.835938 7.359375 4.515625 C 7.492188 4.191406 7.554688 3.8125 7.546875 3.375 C 7.546875 2.8125 7.429688 2.382812 7.203125 2.09375 C 6.984375 1.800781 6.675781 1.660156 6.28125 1.671875 C 5.914062 1.671875 5.625 1.78125 5.40625 2 C 5.1875 2.21875 5.019531 2.582031 4.90625 3.09375 L 4.6875 4.09375 C 4.507812 4.882812 4.226562 5.460938 3.84375 5.828125 C 3.457031 6.191406 2.960938 6.378906 2.359375 6.390625 C 1.898438 6.390625 1.488281 6.289062 1.125 6.09375 C 0.769531 5.894531 0.484375 5.582031 0.265625 5.15625 C 0.046875 4.738281 -0.0664062 4.21875 -0.078125 3.59375 Z M -0.078125 3.59375 "/></g></g></g><g fill="#000000" fill-opacity="1"><g transform="translate(88.835759, 104.987203)"><g><path d="M 0.421875 4.296875 L -0.25 4.515625 C -0.382812 4.347656 -0.472656 4.140625 -0.515625 3.890625 C -0.566406 3.640625 -0.570312 3.375 -0.53125 3.09375 C -0.375 1.914062 0.300781 1.40625 1.5 1.5625 L 5.25 2.046875 L 5.390625 0.984375 L 6.140625 1.09375 L 6 2.15625 L 7.296875 2.3125 L 7.328125 3.265625 L 5.875 3.078125 L 5.609375 5.0625 L 4.859375 4.953125 L 5.125 2.96875 L 1.46875 2.5 C 0.757812 2.40625 0.363281 2.660156 0.28125 3.265625 C 0.238281 3.609375 0.289062 3.910156 0.4375 4.171875 Z M 0.421875 4.296875 "/></g></g></g><g fill="#000000" fill-opacity="1"><g transform="translate(88.420818, 109.147762)"><g><path d="M -0.953125 2.921875 C -0.765625 2.242188 -0.441406 1.789062 0.015625 1.5625 C 0.472656 1.332031 1.046875 1.316406 1.734375 1.515625 L 5.703125 2.640625 L 5.453125 3.515625 L 1.5 2.390625 C 0.59375 2.140625 0.0195312 2.441406 -0.21875 3.296875 C -0.375 3.835938 -0.316406 4.316406 -0.046875 4.734375 C 0.210938 5.148438 0.742188 5.472656 1.546875 5.703125 L 4.59375 6.5625 L 4.34375 7.4375 L -1.625 5.75 L -1.390625 4.921875 L -0.453125 5.1875 L -0.390625 5.0625 C -0.691406 4.769531 -0.890625 4.453125 -0.984375 4.109375 C -1.085938 3.765625 -1.078125 3.367188 -0.953125 2.921875 Z M -0.953125 2.921875 "/></g></g></g><g fill="#000000" fill-opacity="1"><g transform="translate(86.755863, 115.315954)"><g><path d="M -1.515625 2.828125 C -1.296875 2.378906 -0.992188 2.035156 -0.609375 1.796875 C -0.234375 1.566406 0.210938 1.460938 0.734375 1.484375 C 1.265625 1.503906 1.851562 1.671875 2.5 1.984375 C 3.132812 2.296875 3.617188 2.65625 3.953125 3.0625 C 4.285156 3.46875 4.472656 3.898438 4.515625 4.359375 C 4.554688 4.828125 4.460938 5.289062 4.234375 5.75 C 4.046875 6.125 3.8125 6.425781 3.53125 6.65625 C 3.25 6.882812 2.898438 7.03125 2.484375 7.09375 L 2.421875 7.203125 L 5.453125 8.671875 L 5.0625 9.5 L -2.765625 5.6875 L -2.375 4.859375 L -1.5625 5.25 L -1.484375 5.171875 C -1.671875 4.847656 -1.773438 4.484375 -1.796875 4.078125 C -1.828125 3.679688 -1.734375 3.265625 -1.515625 2.828125 Z M -0.90625 3.453125 C -1.164062 3.984375 -1.191406 4.488281 -0.984375 4.96875 C -0.773438 5.445312 -0.304688 5.863281 0.421875 6.21875 C 1.140625 6.570312 1.75 6.679688 2.25 6.546875 C 2.757812 6.410156 3.144531 6.078125 3.40625 5.546875 C 3.664062 5.015625 3.691406 4.519531 3.484375 4.0625 C 3.285156 3.601562 2.816406 3.191406 2.078125 2.828125 C 0.628906 2.128906 -0.363281 2.335938 -0.90625 3.453125 Z M -0.90625 3.453125 "/></g></g></g><g fill="#000000" fill-opacity="1"><g transform="translate(83.815306, 121.402827)"><g><path d="M -1.125 6.484375 L 1.375 3.03125 C 0.757812 2.613281 0.207031 2.4375 -0.28125 2.5 C -0.769531 2.5625 -1.1875 2.832031 -1.53125 3.3125 C -1.789062 3.664062 -1.929688 4 -1.953125 4.3125 C -1.984375 4.625 -1.90625 4.941406 -1.71875 5.265625 L -1.796875 5.359375 L -2.4375 5.640625 C -2.695312 5.234375 -2.8125 4.789062 -2.78125 4.3125 C -2.757812 3.832031 -2.5625 3.335938 -2.1875 2.828125 C -1.832031 2.335938 -1.429688 1.984375 -0.984375 1.765625 C -0.546875 1.554688 -0.0664062 1.5 0.453125 1.59375 C 0.972656 1.695312 1.523438 1.960938 2.109375 2.390625 C 2.679688 2.796875 3.09375 3.238281 3.34375 3.71875 C 3.59375 4.195312 3.6875 4.675781 3.625 5.15625 C 3.570312 5.644531 3.382812 6.109375 3.0625 6.546875 C 2.59375 7.203125 2.046875 7.578125 1.421875 7.671875 C 0.796875 7.773438 0.128906 7.566406 -0.578125 7.046875 C -0.859375 6.847656 -1.039062 6.707031 -1.125 6.625 Z M -0.046875 6.3125 C 0.492188 6.695312 0.96875 6.863281 1.375 6.8125 C 1.78125 6.757812 2.132812 6.519531 2.4375 6.09375 C 2.757812 5.65625 2.882812 5.222656 2.8125 4.796875 C 2.75 4.367188 2.472656 3.9375 1.984375 3.5 Z M -0.046875 6.3125 "/></g></g></g><g fill="#000000" fill-opacity="1"><g transform="translate(80.373957, 126.293981)"><g><path d="M -0.765625 0.75 L 3.578125 5.1875 L 2.953125 5.796875 L 2.265625 5.09375 L 2.15625 5.171875 C 2.257812 5.566406 2.265625 5.945312 2.171875 6.3125 C 2.078125 6.675781 1.867188 7.019531 1.546875 7.34375 C 1.003906 7.863281 0.484375 8.101562 -0.015625 8.0625 C -0.523438 8.03125 -1.054688 7.734375 -1.609375 7.171875 L -4.40625 4.3125 L -3.75 3.671875 L -0.96875 6.5 C -0.707031 6.769531 -0.457031 6.953125 -0.21875 7.046875 C 0.0078125 7.148438 0.226562 7.164062 0.4375 7.09375 C 0.65625 7.03125 0.878906 6.890625 1.109375 6.671875 C 1.503906 6.273438 1.695312 5.820312 1.6875 5.3125 C 1.675781 4.8125 1.382812 4.269531 0.8125 3.6875 L -1.421875 1.40625 Z M -0.765625 0.75 "/></g></g></g><g fill="#000000" fill-opacity="1"><g transform="translate(75.631811, 130.870023)"><g><path d="M -2.828125 3.265625 L -3.453125 2.90625 C -3.421875 2.707031 -3.328125 2.503906 -3.171875 2.296875 C -3.023438 2.097656 -2.84375 1.914062 -2.625 1.75 C -1.65625 1.050781 -0.8125 1.1875 -0.09375 2.15625 L 2.125 5.21875 L 2.984375 4.59375 L 3.421875 5.203125 L 2.5625 5.828125 L 3.328125 6.890625 L 2.671875 7.5625 L 1.8125 6.375 L 0.1875 7.546875 L -0.25 6.9375 L 1.375 5.765625 L -0.796875 2.78125 C -1.222656 2.195312 -1.6875 2.085938 -2.1875 2.453125 C -2.46875 2.648438 -2.644531 2.894531 -2.71875 3.1875 Z M -2.828125 3.265625 "/></g></g></g></svg>