<svg xmlns="http://www.w3.org/2000/svg" xmlns:xlink="http://www.w3.org/1999/xlink" width="200" zoomAndPan="magnify" viewBox="0 0 150 30.000001" height="40" preserveAspectRatio="xMidYMid meet" version="1.0"><defs><g/><clipPath id="8b5b201eaa"><path d="M 42.601562 10.875 L 48.988281 10.875 L 48.988281 21.90625 L 42.601562 21.90625 Z M 42.601562 10.875 " clip-rule="nonzero"/></clipPath><clipPath id="e1ee047349"><path d="M 69.636719 10.875 L 76.023438 10.875 L 76.023438 21.90625 L 69.636719 21.90625 Z M 69.636719 10.875 " clip-rule="nonzero"/></clipPath></defs><g fill="#45bbcf" fill-opacity="1"><g transform="translate(31.066026, 22.55712)"><g><path d="M 6.265625 0.203125 C 5.285156 0.203125 4.410156 0.0820312 3.640625 -0.15625 C 2.878906 -0.394531 2.242188 -0.710938 1.734375 -1.109375 C 1.234375 -1.503906 0.847656 -1.9375 0.578125 -2.40625 L 2.109375 -4.28125 L 2.34375 -4.28125 C 2.769531 -3.65625 3.3125 -3.15625 3.96875 -2.78125 C 4.625 -2.40625 5.390625 -2.21875 6.265625 -2.21875 C 7.015625 -2.21875 7.578125 -2.375 7.953125 -2.6875 C 8.335938 -3 8.53125 -3.4375 8.53125 -4 C 8.53125 -4.332031 8.46875 -4.609375 8.34375 -4.828125 C 8.226562 -5.054688 8.023438 -5.25 7.734375 -5.40625 C 7.453125 -5.570312 7.070312 -5.710938 6.59375 -5.828125 L 4.765625 -6.25 C 3.492188 -6.539062 2.546875 -7.019531 1.921875 -7.6875 C 1.304688 -8.363281 1 -9.242188 1 -10.328125 C 1 -11.117188 1.195312 -11.816406 1.59375 -12.421875 C 2 -13.035156 2.582031 -13.507812 3.34375 -13.84375 C 4.101562 -14.175781 5.015625 -14.34375 6.078125 -14.34375 C 7.171875 -14.34375 8.101562 -14.195312 8.875 -13.90625 C 9.65625 -13.625 10.316406 -13.1875 10.859375 -12.59375 L 9.46875 -10.703125 L 9.234375 -10.703125 C 8.828125 -11.117188 8.363281 -11.429688 7.84375 -11.640625 C 7.332031 -11.847656 6.742188 -11.953125 6.078125 -11.953125 C 5.316406 -11.953125 4.734375 -11.816406 4.328125 -11.546875 C 3.929688 -11.273438 3.734375 -10.898438 3.734375 -10.421875 C 3.734375 -9.984375 3.875 -9.628906 4.15625 -9.359375 C 4.4375 -9.097656 4.921875 -8.894531 5.609375 -8.75 L 7.46875 -8.359375 C 8.84375 -8.066406 9.835938 -7.570312 10.453125 -6.875 C 11.078125 -6.1875 11.390625 -5.285156 11.390625 -4.171875 C 11.390625 -3.285156 11.195312 -2.515625 10.8125 -1.859375 C 10.4375 -1.203125 9.863281 -0.691406 9.09375 -0.328125 C 8.320312 0.0234375 7.378906 0.203125 6.265625 0.203125 Z M 6.265625 0.203125 "/></g></g></g><g fill="#45bbcf" fill-opacity="1"><g transform="translate(43.216506, 22.55712)"><g/></g></g><g fill="#45bbcf" fill-opacity="1"><g transform="translate(47.889029, 22.55712)"><g><path d="M 0.6875 -1.125 C 0.6875 -1.90625 0.769531 -2.5625 0.9375 -3.09375 C 1.113281 -3.632812 1.394531 -4.125 1.78125 -4.5625 C 2.164062 -5 2.710938 -5.472656 3.421875 -5.984375 L 5.3125 -7.359375 C 5.820312 -7.722656 6.222656 -8.039062 6.515625 -8.3125 C 6.804688 -8.582031 7.019531 -8.863281 7.15625 -9.15625 C 7.300781 -9.457031 7.375 -9.796875 7.375 -10.171875 C 7.375 -10.742188 7.203125 -11.1875 6.859375 -11.5 C 6.515625 -11.8125 5.992188 -11.96875 5.296875 -11.96875 C 4.617188 -11.96875 4.019531 -11.804688 3.5 -11.484375 C 2.976562 -11.171875 2.546875 -10.738281 2.203125 -10.1875 L 2.015625 -10.140625 L 0.484375 -11.859375 C 0.984375 -12.609375 1.640625 -13.207031 2.453125 -13.65625 C 3.265625 -14.113281 4.242188 -14.34375 5.390625 -14.34375 C 6.453125 -14.34375 7.335938 -14.164062 8.046875 -13.8125 C 8.765625 -13.46875 9.296875 -12.992188 9.640625 -12.390625 C 9.984375 -11.796875 10.15625 -11.109375 10.15625 -10.328125 C 10.15625 -9.648438 10.015625 -9.035156 9.734375 -8.484375 C 9.453125 -7.929688 9.0625 -7.414062 8.5625 -6.9375 C 8.070312 -6.46875 7.441406 -5.960938 6.671875 -5.421875 L 4.984375 -4.25 C 4.484375 -3.894531 4.132812 -3.578125 3.9375 -3.296875 C 3.738281 -3.015625 3.640625 -2.695312 3.640625 -2.34375 L 10.015625 -2.34375 L 10.015625 0 L 0.6875 0 Z M 0.6875 -1.125 "/></g></g></g><g fill="#45bbcf" fill-opacity="1"><g transform="translate(58.92701, 22.55712)"><g><path d="M 0.6875 -1.125 C 0.6875 -1.90625 0.769531 -2.5625 0.9375 -3.09375 C 1.113281 -3.632812 1.394531 -4.125 1.78125 -4.5625 C 2.164062 -5 2.710938 -5.472656 3.421875 -5.984375 L 5.3125 -7.359375 C 5.820312 -7.722656 6.222656 -8.039062 6.515625 -8.3125 C 6.804688 -8.582031 7.019531 -8.863281 7.15625 -9.15625 C 7.300781 -9.457031 7.375 -9.796875 7.375 -10.171875 C 7.375 -10.742188 7.203125 -11.1875 6.859375 -11.5 C 6.515625 -11.8125 5.992188 -11.96875 5.296875 -11.96875 C 4.617188 -11.96875 4.019531 -11.804688 3.5 -11.484375 C 2.976562 -11.171875 2.546875 -10.738281 2.203125 -10.1875 L 2.015625 -10.140625 L 0.484375 -11.859375 C 0.984375 -12.609375 1.640625 -13.207031 2.453125 -13.65625 C 3.265625 -14.113281 4.242188 -14.34375 5.390625 -14.34375 C 6.453125 -14.34375 7.335938 -14.164062 8.046875 -13.8125 C 8.765625 -13.46875 9.296875 -12.992188 9.640625 -12.390625 C 9.984375 -11.796875 10.15625 -11.109375 10.15625 -10.328125 C 10.15625 -9.648438 10.015625 -9.035156 9.734375 -8.484375 C 9.453125 -7.929688 9.0625 -7.414062 8.5625 -6.9375 C 8.070312 -6.46875 7.441406 -5.960938 6.671875 -5.421875 L 4.984375 -4.25 C 4.484375 -3.894531 4.132812 -3.578125 3.9375 -3.296875 C 3.738281 -3.015625 3.640625 -2.695312 3.640625 -2.34375 L 10.015625 -2.34375 L 10.015625 0 L 0.6875 0 Z M 0.6875 -1.125 "/></g></g></g><g fill="#45bbcf" fill-opacity="1"><g transform="translate(69.964992, 22.55712)"><g/></g></g><g fill="#45bbcf" fill-opacity="1"><g transform="translate(74.637515, 22.55712)"><g><path d="M 4.40625 0 L 1.84375 0 L 1.84375 -14.140625 L 5.5 -14.140625 L 9.078125 -3.75 L 9.28125 -3.75 L 12.84375 -14.140625 L 16.40625 -14.140625 L 16.40625 0 L 13.75 0 L 13.75 -9.34375 L 13.515625 -9.390625 L 10.25 0 L 7.90625 0 L 4.640625 -9.390625 L 4.40625 -9.34375 Z M 4.40625 0 "/></g></g></g><g fill="#45bbcf" fill-opacity="1"><g transform="translate(92.892262, 22.55712)"><g><path d="M 7.734375 0.203125 C 6.429688 0.203125 5.28125 -0.0664062 4.28125 -0.609375 C 3.289062 -1.148438 2.515625 -1.960938 1.953125 -3.046875 C 1.390625 -4.140625 1.109375 -5.484375 1.109375 -7.078125 C 1.109375 -8.671875 1.390625 -10.007812 1.953125 -11.09375 C 2.515625 -12.175781 3.289062 -12.988281 4.28125 -13.53125 C 5.28125 -14.070312 6.429688 -14.34375 7.734375 -14.34375 C 9.085938 -14.34375 10.238281 -14.078125 11.1875 -13.546875 C 12.144531 -13.015625 12.828125 -12.203125 13.234375 -11.109375 L 11.1875 -9.875 L 10.953125 -9.875 C 10.648438 -10.613281 10.238281 -11.140625 9.71875 -11.453125 C 9.195312 -11.773438 8.535156 -11.9375 7.734375 -11.9375 C 6.554688 -11.9375 5.640625 -11.546875 4.984375 -10.765625 C 4.328125 -9.992188 4 -8.765625 4 -7.078125 C 4 -5.390625 4.328125 -4.15625 4.984375 -3.375 C 5.640625 -2.601562 6.554688 -2.21875 7.734375 -2.21875 C 9.566406 -2.21875 10.691406 -3.109375 11.109375 -4.890625 L 11.34375 -4.890625 L 13.40625 -3.828125 C 13.019531 -2.484375 12.359375 -1.472656 11.421875 -0.796875 C 10.484375 -0.128906 9.253906 0.203125 7.734375 0.203125 Z M 7.734375 0.203125 "/></g></g></g><g fill="#45bbcf" fill-opacity="1"><g transform="translate(106.764705, 22.55712)"><g><path d="M 6.265625 0.203125 C 5.285156 0.203125 4.410156 0.0820312 3.640625 -0.15625 C 2.878906 -0.394531 2.242188 -0.710938 1.734375 -1.109375 C 1.234375 -1.503906 0.847656 -1.9375 0.578125 -2.40625 L 2.109375 -4.28125 L 2.34375 -4.28125 C 2.769531 -3.65625 3.3125 -3.15625 3.96875 -2.78125 C 4.625 -2.40625 5.390625 -2.21875 6.265625 -2.21875 C 7.015625 -2.21875 7.578125 -2.375 7.953125 -2.6875 C 8.335938 -3 8.53125 -3.4375 8.53125 -4 C 8.53125 -4.332031 8.46875 -4.609375 8.34375 -4.828125 C 8.226562 -5.054688 8.023438 -5.25 7.734375 -5.40625 C 7.453125 -5.570312 7.070312 -5.710938 6.59375 -5.828125 L 4.765625 -6.25 C 3.492188 -6.539062 2.546875 -7.019531 1.921875 -7.6875 C 1.304688 -8.363281 1 -9.242188 1 -10.328125 C 1 -11.117188 1.195312 -11.816406 1.59375 -12.421875 C 2 -13.035156 2.582031 -13.507812 3.34375 -13.84375 C 4.101562 -14.175781 5.015625 -14.34375 6.078125 -14.34375 C 7.171875 -14.34375 8.101562 -14.195312 8.875 -13.90625 C 9.65625 -13.625 10.316406 -13.1875 10.859375 -12.59375 L 9.46875 -10.703125 L 9.234375 -10.703125 C 8.828125 -11.117188 8.363281 -11.429688 7.84375 -11.640625 C 7.332031 -11.847656 6.742188 -11.953125 6.078125 -11.953125 C 5.316406 -11.953125 4.734375 -11.816406 4.328125 -11.546875 C 3.929688 -11.273438 3.734375 -10.898438 3.734375 -10.421875 C 3.734375 -9.984375 3.875 -9.628906 4.15625 -9.359375 C 4.4375 -9.097656 4.921875 -8.894531 5.609375 -8.75 L 7.46875 -8.359375 C 8.84375 -8.066406 9.835938 -7.570312 10.453125 -6.875 C 11.078125 -6.1875 11.390625 -5.285156 11.390625 -4.171875 C 11.390625 -3.285156 11.195312 -2.515625 10.8125 -1.859375 C 10.4375 -1.203125 9.863281 -0.691406 9.09375 -0.328125 C 8.320312 0.0234375 7.378906 0.203125 6.265625 0.203125 Z M 6.265625 0.203125 "/></g></g></g><g clip-path="url(#8b5b201eaa)"><path fill="#fbc646" d="M 44.492188 10.878906 L 48.59375 10.878906 L 46.859375 14.117188 L 48.988281 14.117188 L 43.835938 21.90625 L 45.203125 16.167969 L 42.597656 16.167969 L 44.492188 10.878906 " fill-opacity="1" fill-rule="nonzero"/></g><g clip-path="url(#e1ee047349)"><path fill="#fbc646" d="M 71.527344 10.878906 L 75.628906 10.878906 L 73.894531 14.117188 L 76.023438 14.117188 L 70.871094 21.90625 L 72.238281 16.167969 L 69.632812 16.167969 L 71.527344 10.878906 " fill-opacity="1" fill-rule="nonzero"/></g></svg>