<svg xmlns="http://www.w3.org/2000/svg" xmlns:xlink="http://www.w3.org/1999/xlink" width="400" zoomAndPan="magnify" viewBox="0 0 300 74.999997" height="100" preserveAspectRatio="xMidYMid meet" version="1.0"><defs><g/><clipPath id="ac3ca95ed1"><path d="M 81.046875 0 L 144.523438 0 L 144.523438 63.476562 L 81.046875 63.476562 Z M 81.046875 0 " clip-rule="nonzero"/></clipPath><clipPath id="105484d7c3"><path d="M 112.785156 0 C 95.257812 0 81.046875 14.210938 81.046875 31.738281 C 81.046875 49.265625 95.257812 63.476562 112.785156 63.476562 C 130.3125 63.476562 144.523438 49.265625 144.523438 31.738281 C 144.523438 14.210938 130.3125 0 112.785156 0 Z M 112.785156 0 " clip-rule="nonzero"/></clipPath><clipPath id="5838bc4cc3"><path d="M 83.324219 2.277344 L 142.246094 2.277344 L 142.246094 61.199219 L 83.324219 61.199219 Z M 83.324219 2.277344 " clip-rule="nonzero"/></clipPath><clipPath id="fc7c4de528"><path d="M 112.785156 2.277344 C 96.515625 2.277344 83.324219 15.464844 83.324219 31.738281 C 83.324219 48.007812 96.515625 61.199219 112.785156 61.199219 C 129.058594 61.199219 142.246094 48.007812 142.246094 31.738281 C 142.246094 15.464844 129.058594 2.277344 112.785156 2.277344 Z M 112.785156 2.277344 " clip-rule="nonzero"/></clipPath><clipPath id="a4c2865d41"><path d="M 99 16.601562 L 126.574219 16.601562 L 126.574219 44.175781 L 99 44.175781 Z M 99 16.601562 " clip-rule="nonzero"/></clipPath><clipPath id="8dbcc0de7c"><path d="M 112.785156 16.601562 C 105.171875 16.601562 99 22.773438 99 30.390625 C 99 38.003906 105.171875 44.175781 112.785156 44.175781 C 120.402344 44.175781 126.574219 38.003906 126.574219 30.390625 C 126.574219 22.773438 120.402344 16.601562 112.785156 16.601562 Z M 112.785156 16.601562 " clip-rule="nonzero"/></clipPath><clipPath id="b1540ed152"><path d="M 103.675781 21.28125 L 121.894531 21.28125 L 121.894531 39.496094 L 103.675781 39.496094 Z M 103.675781 21.28125 " clip-rule="nonzero"/></clipPath><clipPath id="879f5be48f"><path d="M 112.785156 21.28125 C 107.753906 21.28125 103.675781 25.359375 103.675781 30.390625 C 103.675781 35.417969 107.753906 39.496094 112.785156 39.496094 C 117.816406 39.496094 121.894531 35.417969 121.894531 30.390625 C 121.894531 25.359375 117.816406 21.28125 112.785156 21.28125 Z M 112.785156 21.28125 " clip-rule="nonzero"/></clipPath></defs><g clip-path="url(#ac3ca95ed1)"><g clip-path="url(#105484d7c3)"><path fill="#51998c" d="M 81.046875 0 L 144.523438 0 L 144.523438 63.476562 L 81.046875 63.476562 Z M 81.046875 0 " fill-opacity="1" fill-rule="nonzero"/></g></g><g clip-path="url(#5838bc4cc3)"><g clip-path="url(#fc7c4de528)"><path fill="#90c6cd" d="M 83.324219 2.277344 L 142.246094 2.277344 L 142.246094 61.199219 L 83.324219 61.199219 Z M 83.324219 2.277344 " fill-opacity="1" fill-rule="nonzero"/></g></g><g clip-path="url(#a4c2865d41)"><g clip-path="url(#8dbcc0de7c)"><path fill="#18abbc" d="M 99 16.601562 L 126.574219 16.601562 L 126.574219 44.175781 L 99 44.175781 Z M 99 16.601562 " fill-opacity="1" fill-rule="nonzero"/></g></g><g clip-path="url(#b1540ed152)"><g clip-path="url(#879f5be48f)"><path fill="#000000" d="M 103.675781 21.28125 L 121.894531 21.28125 L 121.894531 39.496094 L 103.675781 39.496094 Z M 103.675781 21.28125 " fill-opacity="1" fill-rule="nonzero"/></g></g><g fill="#90c6cd" fill-opacity="1"><g transform="translate(170.137639, 39.593983)"><g><path d="M 4.40625 0.21875 C 3.675781 0.21875 3.046875 0.0859375 2.515625 -0.171875 C 1.984375 -0.441406 1.570312 -0.832031 1.28125 -1.34375 C 1 -1.863281 0.859375 -2.488281 0.859375 -3.21875 C 0.859375 -3.882812 1 -4.441406 1.28125 -4.890625 C 1.570312 -5.347656 2.015625 -5.722656 2.609375 -6.015625 C 3.210938 -6.304688 4 -6.53125 4.96875 -6.6875 C 5.644531 -6.789062 6.15625 -6.90625 6.5 -7.03125 C 6.851562 -7.164062 7.09375 -7.3125 7.21875 -7.46875 C 7.34375 -7.632812 7.40625 -7.847656 7.40625 -8.109375 C 7.40625 -8.460938 7.28125 -8.734375 7.03125 -8.921875 C 6.78125 -9.117188 6.359375 -9.21875 5.765625 -9.21875 C 5.140625 -9.21875 4.539062 -9.078125 3.96875 -8.796875 C 3.40625 -8.515625 2.914062 -8.144531 2.5 -7.6875 L 2.296875 -7.6875 L 1.109375 -9.484375 C 1.679688 -10.117188 2.378906 -10.613281 3.203125 -10.96875 C 4.035156 -11.320312 4.9375 -11.5 5.90625 -11.5 C 7.40625 -11.5 8.488281 -11.179688 9.15625 -10.546875 C 9.820312 -9.910156 10.15625 -9.007812 10.15625 -7.84375 L 10.15625 -2.953125 C 10.15625 -2.441406 10.378906 -2.1875 10.828125 -2.1875 C 10.992188 -2.1875 11.160156 -2.21875 11.328125 -2.28125 L 11.46875 -2.234375 L 11.671875 -0.265625 C 11.515625 -0.160156 11.296875 -0.078125 11.015625 -0.015625 C 10.734375 0.046875 10.425781 0.078125 10.09375 0.078125 C 9.414062 0.078125 8.890625 -0.0507812 8.515625 -0.3125 C 8.140625 -0.570312 7.867188 -0.976562 7.703125 -1.53125 L 7.484375 -1.546875 C 6.929688 -0.367188 5.90625 0.21875 4.40625 0.21875 Z M 5.296875 -1.90625 C 5.953125 -1.90625 6.472656 -2.125 6.859375 -2.5625 C 7.253906 -3 7.453125 -3.613281 7.453125 -4.40625 L 7.453125 -5.546875 L 7.265625 -5.59375 C 7.097656 -5.445312 6.875 -5.328125 6.59375 -5.234375 C 6.3125 -5.148438 5.914062 -5.0625 5.40625 -4.96875 C 4.789062 -4.863281 4.347656 -4.6875 4.078125 -4.4375 C 3.804688 -4.195312 3.671875 -3.847656 3.671875 -3.390625 C 3.671875 -2.898438 3.8125 -2.53125 4.09375 -2.28125 C 4.382812 -2.03125 4.785156 -1.90625 5.296875 -1.90625 Z M 5.296875 -1.90625 "/></g></g></g><g fill="#90c6cd" fill-opacity="1"><g transform="translate(182.033549, 39.593983)"><g><path d="M 1.625 0 L 1.625 -15.8125 L 4.453125 -15.8125 L 4.453125 -7.03125 L 4.734375 -7.03125 L 8 -11.28125 L 10.875 -11.28125 L 10.875 -11.046875 L 7.03125 -6.09375 L 11.3125 -0.25 L 11.3125 0 L 8.3125 0 L 4.734375 -4.75 L 4.453125 -4.75 L 4.453125 0 Z M 1.625 0 "/></g></g></g><g fill="#90c6cd" fill-opacity="1"><g transform="translate(193.356655, 39.593983)"><g><path d="M 3.03125 -12.640625 C 2.519531 -12.640625 2.101562 -12.789062 1.78125 -13.09375 C 1.46875 -13.40625 1.3125 -13.804688 1.3125 -14.296875 C 1.3125 -14.785156 1.46875 -15.179688 1.78125 -15.484375 C 2.101562 -15.796875 2.519531 -15.953125 3.03125 -15.953125 C 3.375 -15.953125 3.675781 -15.878906 3.9375 -15.734375 C 4.207031 -15.597656 4.414062 -15.40625 4.5625 -15.15625 C 4.707031 -14.90625 4.78125 -14.617188 4.78125 -14.296875 C 4.78125 -13.984375 4.707031 -13.695312 4.5625 -13.4375 C 4.414062 -13.1875 4.207031 -12.988281 3.9375 -12.84375 C 3.675781 -12.707031 3.375 -12.640625 3.03125 -12.640625 Z M 1.625 0 L 1.625 -11.28125 L 4.453125 -11.28125 L 4.453125 0 Z M 1.625 0 "/></g></g></g><g fill="#90c6cd" fill-opacity="1"><g transform="translate(199.432467, 39.593983)"><g><path d="M 1.625 0 L 1.625 -11.28125 L 4.34375 -11.28125 L 4.34375 -9.765625 L 4.5625 -9.734375 C 4.925781 -10.335938 5.351562 -10.78125 5.84375 -11.0625 C 6.34375 -11.351562 6.976562 -11.5 7.75 -11.5 C 8.601562 -11.5 9.289062 -11.328125 9.8125 -10.984375 C 10.332031 -10.648438 10.710938 -10.160156 10.953125 -9.515625 L 11.15625 -9.515625 C 11.507812 -10.191406 11.957031 -10.691406 12.5 -11.015625 C 13.050781 -11.335938 13.738281 -11.5 14.5625 -11.5 C 16.894531 -11.5 18.0625 -10.195312 18.0625 -7.59375 L 18.0625 0 L 15.234375 0 L 15.234375 -7.234375 C 15.234375 -7.890625 15.101562 -8.363281 14.84375 -8.65625 C 14.582031 -8.957031 14.164062 -9.109375 13.59375 -9.109375 C 12.039062 -9.109375 11.265625 -8.066406 11.265625 -5.984375 L 11.265625 0 L 8.4375 0 L 8.4375 -7.234375 C 8.4375 -7.890625 8.300781 -8.363281 8.03125 -8.65625 C 7.769531 -8.957031 7.351562 -9.109375 6.78125 -9.109375 C 6.050781 -9.109375 5.476562 -8.863281 5.0625 -8.375 C 4.65625 -7.882812 4.453125 -7.109375 4.453125 -6.046875 L 4.453125 0 Z M 1.625 0 "/></g></g></g><g fill="#000000" fill-opacity="1"><g transform="translate(153.636205, 39.593983)"><g><path d="M 11.609375 -9.328125 L 11.609375 -14.953125 L 14.546875 -14.953125 L 14.546875 0 L 11.609375 0 L 11.609375 -6.8125 L 4.90625 -6.8125 L 4.90625 0 L 1.9375 0 L 1.9375 -14.953125 L 4.90625 -14.953125 L 4.90625 -9.328125 Z M 11.609375 -9.328125 "/></g></g></g><g fill="#000000" fill-opacity="1"><g transform="translate(100.991039, 50.702098)"><g><path d="M -1 -0.84375 L -0.59375 -0.5 L -3.84375 3.359375 L -4.5 2.796875 L -2.921875 -1.453125 L -2.984375 -1.5 L -6.90625 0.78125 L -7.5625 0.234375 L -4.3125 -3.625 L -3.875 -3.25 L -6.53125 -0.09375 L -6.46875 -0.03125 L -2.671875 -2.234375 L -2.21875 -1.859375 L -3.734375 2.265625 L -3.65625 2.3125 Z M -1 -0.84375 "/></g></g></g><g fill="#000000" fill-opacity="1"><g transform="translate(96.518997, 46.852744)"><g><path d="M -3.640625 -1.765625 L -2.03125 0.296875 C -1.664062 -0.00390625 -1.460938 -0.300781 -1.421875 -0.59375 C -1.378906 -0.894531 -1.46875 -1.179688 -1.6875 -1.453125 C -1.863281 -1.679688 -2.035156 -1.828125 -2.203125 -1.890625 C -2.378906 -1.960938 -2.578125 -1.96875 -2.796875 -1.90625 L -2.84375 -1.96875 L -2.90625 -2.40625 C -2.625 -2.476562 -2.34375 -2.46875 -2.0625 -2.375 C -1.78125 -2.28125 -1.519531 -2.078125 -1.28125 -1.765625 C -1.0625 -1.484375 -0.925781 -1.191406 -0.875 -0.890625 C -0.820312 -0.597656 -0.867188 -0.300781 -1.015625 0 C -1.171875 0.289062 -1.421875 0.570312 -1.765625 0.84375 C -2.109375 1.101562 -2.441406 1.265625 -2.765625 1.328125 C -3.085938 1.398438 -3.382812 1.375 -3.65625 1.25 C -3.9375 1.132812 -4.179688 0.945312 -4.390625 0.6875 C -4.691406 0.300781 -4.816406 -0.0820312 -4.765625 -0.46875 C -4.722656 -0.851562 -4.488281 -1.210938 -4.0625 -1.546875 C -3.882812 -1.679688 -3.765625 -1.769531 -3.703125 -1.8125 Z M -3.71875 -1.09375 C -4.03125 -0.84375 -4.207031 -0.59375 -4.25 -0.34375 C -4.289062 -0.101562 -4.210938 0.140625 -4.015625 0.390625 C -3.804688 0.648438 -3.570312 0.796875 -3.3125 0.828125 C -3.050781 0.867188 -2.753906 0.785156 -2.421875 0.578125 Z M -3.71875 -1.09375 "/></g></g></g><g fill="#000000" fill-opacity="1"><g transform="translate(94.223627, 43.998875)"><g><path d="M -0.875 -1.78125 C -0.726562 -1.507812 -0.660156 -1.234375 -0.671875 -0.953125 C -0.679688 -0.679688 -0.789062 -0.414062 -1 -0.15625 C -1.207031 0.09375 -1.503906 0.316406 -1.890625 0.515625 C -2.273438 0.722656 -2.628906 0.835938 -2.953125 0.859375 C -3.273438 0.878906 -3.554688 0.816406 -3.796875 0.671875 C -4.046875 0.523438 -4.25 0.304688 -4.40625 0.015625 C -4.519531 -0.203125 -4.578125 -0.421875 -4.578125 -0.640625 C -4.585938 -0.867188 -4.53125 -1.101562 -4.40625 -1.34375 L -4.453125 -1.390625 L -6.28125 -0.421875 L -6.546875 -0.921875 L -1.828125 -3.4375 L -1.5625 -2.9375 L -2.0625 -2.671875 L -2.03125 -2.609375 C -1.800781 -2.585938 -1.582031 -2.507812 -1.375 -2.375 C -1.175781 -2.238281 -1.007812 -2.039062 -0.875 -1.78125 Z M -1.40625 -1.703125 C -1.570312 -2.015625 -1.804688 -2.207031 -2.109375 -2.28125 C -2.421875 -2.351562 -2.800781 -2.273438 -3.25 -2.046875 C -3.6875 -1.804688 -3.960938 -1.535156 -4.078125 -1.234375 C -4.191406 -0.929688 -4.164062 -0.625 -4 -0.3125 C -3.820312 0.0078125 -3.582031 0.203125 -3.28125 0.265625 C -2.988281 0.328125 -2.617188 0.238281 -2.171875 0 C -1.304688 -0.457031 -1.050781 -1.023438 -1.40625 -1.703125 Z M -1.40625 -1.703125 "/></g></g></g><g fill="#000000" fill-opacity="1"><g transform="translate(92.290616, 40.227328)"><g><path d="M -4.578125 0.71875 C -4.535156 0.832031 -4.535156 0.929688 -4.578125 1.015625 C -4.617188 1.109375 -4.703125 1.179688 -4.828125 1.234375 C -4.929688 1.273438 -5.03125 1.269531 -5.125 1.21875 C -5.21875 1.175781 -5.285156 1.097656 -5.328125 0.984375 C -5.367188 0.878906 -5.367188 0.78125 -5.328125 0.6875 C -5.285156 0.601562 -5.210938 0.539062 -5.109375 0.5 C -4.984375 0.445312 -4.875 0.441406 -4.78125 0.484375 C -4.6875 0.535156 -4.617188 0.613281 -4.578125 0.71875 Z M -0.234375 -0.609375 L -3.796875 0.734375 L -4 0.1875 L -0.4375 -1.15625 Z M -0.234375 -0.609375 "/></g></g></g><g fill="#000000" fill-opacity="1"><g transform="translate(91.64944, 38.739854)"><g><path d="M -0.453125 -2.140625 C -0.367188 -1.816406 -0.367188 -1.503906 -0.453125 -1.203125 C -0.535156 -0.898438 -0.707031 -0.640625 -0.96875 -0.421875 C -1.226562 -0.203125 -1.554688 -0.046875 -1.953125 0.046875 C -2.359375 0.148438 -2.722656 0.164062 -3.046875 0.09375 C -3.367188 0.0195312 -3.640625 -0.128906 -3.859375 -0.359375 C -4.078125 -0.585938 -4.226562 -0.863281 -4.3125 -1.1875 C -4.40625 -1.582031 -4.40625 -1.910156 -4.3125 -2.171875 C -4.21875 -2.441406 -4.0625 -2.660156 -3.84375 -2.828125 L -3.484375 -2.515625 L -3.46875 -2.453125 C -3.644531 -2.296875 -3.757812 -2.128906 -3.8125 -1.953125 C -3.875 -1.773438 -3.875 -1.5625 -3.8125 -1.3125 C -3.75 -1.082031 -3.640625 -0.894531 -3.484375 -0.75 C -3.335938 -0.601562 -3.144531 -0.507812 -2.90625 -0.46875 C -2.675781 -0.425781 -2.40625 -0.445312 -2.09375 -0.53125 C -1.78125 -0.601562 -1.53125 -0.710938 -1.34375 -0.859375 C -1.15625 -1.015625 -1.023438 -1.1875 -0.953125 -1.375 C -0.890625 -1.570312 -0.890625 -1.785156 -0.953125 -2.015625 C -1.015625 -2.265625 -1.125 -2.460938 -1.28125 -2.609375 C -1.4375 -2.753906 -1.648438 -2.84375 -1.921875 -2.875 L -1.9375 -2.953125 L -1.8125 -3.359375 C -1.488281 -3.335938 -1.203125 -3.222656 -0.953125 -3.015625 C -0.710938 -2.816406 -0.546875 -2.523438 -0.453125 -2.140625 Z M -0.453125 -2.140625 "/></g></g></g><g fill="#000000" fill-opacity="1"><g transform="translate(90.764557, 35.294364)"><g><path d="M -0.0625 -1.578125 C -0.03125 -1.203125 -0.101562 -0.898438 -0.28125 -0.671875 C -0.457031 -0.441406 -0.726562 -0.3125 -1.09375 -0.28125 C -1.320312 -0.257812 -1.515625 -0.289062 -1.671875 -0.375 C -1.835938 -0.457031 -1.972656 -0.59375 -2.078125 -0.78125 C -2.191406 -0.96875 -2.285156 -1.21875 -2.359375 -1.53125 C -2.441406 -1.789062 -2.515625 -1.988281 -2.578125 -2.125 C -2.648438 -2.257812 -2.722656 -2.347656 -2.796875 -2.390625 C -2.878906 -2.441406 -2.972656 -2.460938 -3.078125 -2.453125 C -3.253906 -2.441406 -3.378906 -2.375 -3.453125 -2.25 C -3.535156 -2.125 -3.566406 -1.9375 -3.546875 -1.6875 C -3.523438 -1.4375 -3.457031 -1.222656 -3.34375 -1.046875 C -3.238281 -0.878906 -3.085938 -0.734375 -2.890625 -0.609375 L -2.875 -0.546875 L -3.25 -0.21875 C -3.457031 -0.363281 -3.632812 -0.554688 -3.78125 -0.796875 C -3.925781 -1.035156 -4.015625 -1.316406 -4.046875 -1.640625 C -4.078125 -2.078125 -4.003906 -2.410156 -3.828125 -2.640625 C -3.648438 -2.867188 -3.382812 -3 -3.03125 -3.03125 L -1.03125 -3.203125 C -0.820312 -3.222656 -0.722656 -3.320312 -0.734375 -3.5 C -0.742188 -3.5625 -0.757812 -3.613281 -0.78125 -3.65625 L -0.78125 -3.71875 L -0.390625 -3.8125 C -0.359375 -3.769531 -0.328125 -3.710938 -0.296875 -3.640625 C -0.273438 -3.578125 -0.265625 -3.507812 -0.265625 -3.4375 C -0.242188 -3.226562 -0.273438 -3.066406 -0.359375 -2.953125 C -0.441406 -2.847656 -0.570312 -2.769531 -0.75 -2.71875 L -0.765625 -2.640625 C -0.546875 -2.554688 -0.378906 -2.425781 -0.265625 -2.25 C -0.148438 -2.070312 -0.0820312 -1.847656 -0.0625 -1.578125 Z M -0.515625 -1.671875 C -0.535156 -1.878906 -0.601562 -2.050781 -0.71875 -2.1875 C -0.832031 -2.332031 -0.976562 -2.4375 -1.15625 -2.5 C -1.34375 -2.570312 -1.550781 -2.601562 -1.78125 -2.59375 L -2.265625 -2.546875 L -2.28125 -2.484375 C -2.207031 -2.390625 -2.144531 -2.285156 -2.09375 -2.171875 C -2.050781 -2.054688 -2.003906 -1.894531 -1.953125 -1.6875 C -1.898438 -1.46875 -1.835938 -1.296875 -1.765625 -1.171875 C -1.691406 -1.046875 -1.601562 -0.957031 -1.5 -0.90625 C -1.394531 -0.863281 -1.273438 -0.847656 -1.140625 -0.859375 C -0.910156 -0.878906 -0.742188 -0.957031 -0.640625 -1.09375 C -0.535156 -1.238281 -0.492188 -1.429688 -0.515625 -1.671875 Z M -0.515625 -1.671875 "/></g></g></g><g fill="#000000" fill-opacity="1"><g transform="translate(90.491252, 31.651048)"><g><path d="M 0.125 -1.515625 C 0.125 -1.242188 0.0390625 -1.035156 -0.125 -0.890625 C -0.289062 -0.742188 -0.523438 -0.675781 -0.828125 -0.6875 L -5.328125 -0.84375 L -5.296875 -1.40625 L -0.828125 -1.25 C -0.671875 -1.238281 -0.554688 -1.257812 -0.484375 -1.3125 C -0.421875 -1.375 -0.382812 -1.472656 -0.375 -1.609375 C -0.375 -1.679688 -0.382812 -1.757812 -0.40625 -1.84375 L -0.390625 -1.890625 L 0.046875 -1.9375 C 0.078125 -1.894531 0.0976562 -1.835938 0.109375 -1.765625 C 0.128906 -1.691406 0.132812 -1.609375 0.125 -1.515625 Z M 0.125 -1.515625 "/></g></g></g><g fill="#000000" fill-opacity="1"><g transform="translate(90.558501, 29.763049)"><g/></g></g><g fill="#000000" fill-opacity="1"><g transform="translate(90.727758, 28.204366)"><g/></g></g><g fill="#000000" fill-opacity="1"><g transform="translate(91.005027, 26.66124)"><g/></g></g><g fill="#000000" fill-opacity="1"><g transform="translate(91.388985, 25.141138)"><g/></g></g><g fill="#000000" fill-opacity="1"><g transform="translate(91.877756, 23.651434)"><g/></g></g><g fill="#000000" fill-opacity="1"><g transform="translate(92.314538, 22.279758)"><g><path d="M 2.265625 -3.9375 L 1.9375 -3.390625 L 0.515625 -3.6875 L -0.5625 -1.8125 L 0.40625 -0.71875 L 0.09375 -0.171875 L -3.390625 -4.21875 L -2.984375 -4.921875 Z M -2.6875 -4.21875 L -0.921875 -2.203125 L -0.015625 -3.78125 L -2.640625 -4.296875 Z M -2.6875 -4.21875 "/></g></g></g><g fill="#000000" fill-opacity="1"><g transform="translate(94.495941, 18.510751)"><g><path d="M 1.15625 -1.296875 C 1.007812 -1.109375 0.84375 -0.957031 0.65625 -0.84375 C 0.476562 -0.726562 0.300781 -0.648438 0.125 -0.609375 C -0.0390625 -0.566406 -0.191406 -0.570312 -0.328125 -0.625 L -0.40625 -1.09375 L -0.359375 -1.140625 C -0.140625 -1.117188 0.0625 -1.144531 0.25 -1.21875 C 0.4375 -1.300781 0.601562 -1.4375 0.75 -1.625 C 0.925781 -1.84375 1.019531 -2.039062 1.03125 -2.21875 C 1.039062 -2.394531 0.972656 -2.539062 0.828125 -2.65625 C 0.710938 -2.757812 0.585938 -2.804688 0.453125 -2.796875 C 0.316406 -2.796875 0.171875 -2.738281 0.015625 -2.625 L -0.515625 -2.21875 C -0.796875 -2 -1.054688 -1.882812 -1.296875 -1.875 C -1.535156 -1.875 -1.757812 -1.957031 -1.96875 -2.125 C -2.125 -2.257812 -2.226562 -2.414062 -2.28125 -2.59375 C -2.332031 -2.78125 -2.328125 -2.972656 -2.265625 -3.171875 C -2.210938 -3.378906 -2.097656 -3.59375 -1.921875 -3.8125 C -1.703125 -4.070312 -1.488281 -4.25 -1.28125 -4.34375 C -1.070312 -4.445312 -0.863281 -4.484375 -0.65625 -4.453125 L -0.609375 -4.015625 L -0.65625 -3.953125 C -0.84375 -3.941406 -1.003906 -3.90625 -1.140625 -3.84375 C -1.285156 -3.78125 -1.421875 -3.671875 -1.546875 -3.515625 C -1.703125 -3.316406 -1.785156 -3.132812 -1.796875 -2.96875 C -1.804688 -2.800781 -1.75 -2.664062 -1.625 -2.5625 C -1.5 -2.46875 -1.375 -2.425781 -1.25 -2.4375 C -1.125 -2.445312 -0.957031 -2.53125 -0.75 -2.6875 L -0.25 -3.078125 C 0.0195312 -3.285156 0.269531 -3.382812 0.5 -3.375 C 0.738281 -3.375 0.960938 -3.285156 1.171875 -3.109375 C 1.347656 -2.960938 1.46875 -2.796875 1.53125 -2.609375 C 1.59375 -2.429688 1.59375 -2.226562 1.53125 -2 C 1.476562 -1.769531 1.351562 -1.535156 1.15625 -1.296875 Z M 1.15625 -1.296875 "/></g></g></g><g fill="#000000" fill-opacity="1"><g transform="translate(96.500244, 16.027758)"><g><path d="M 1.328125 -1.109375 C 1.148438 -0.953125 0.960938 -0.828125 0.765625 -0.734375 C 0.578125 -0.648438 0.390625 -0.597656 0.203125 -0.578125 C 0.0234375 -0.566406 -0.117188 -0.59375 -0.234375 -0.65625 L -0.234375 -1.140625 L -0.1875 -1.171875 C 0.03125 -1.128906 0.234375 -1.132812 0.421875 -1.1875 C 0.617188 -1.238281 0.804688 -1.34375 0.984375 -1.5 C 1.191406 -1.6875 1.3125 -1.867188 1.34375 -2.046875 C 1.375 -2.222656 1.328125 -2.378906 1.203125 -2.515625 C 1.097656 -2.628906 0.976562 -2.691406 0.84375 -2.703125 C 0.71875 -2.722656 0.566406 -2.679688 0.390625 -2.578125 L -0.1875 -2.265625 C -0.5 -2.097656 -0.773438 -2.023438 -1.015625 -2.046875 C -1.253906 -2.078125 -1.460938 -2.191406 -1.640625 -2.390625 C -1.773438 -2.546875 -1.859375 -2.710938 -1.890625 -2.890625 C -1.921875 -3.078125 -1.890625 -3.265625 -1.796875 -3.453125 C -1.703125 -3.648438 -1.550781 -3.84375 -1.34375 -4.03125 C -1.09375 -4.257812 -0.859375 -4.40625 -0.640625 -4.46875 C -0.429688 -4.539062 -0.222656 -4.550781 -0.015625 -4.5 L -0.046875 -4.0625 L -0.109375 -4 C -0.285156 -4.019531 -0.445312 -4.003906 -0.59375 -3.953125 C -0.738281 -3.910156 -0.882812 -3.820312 -1.03125 -3.6875 C -1.21875 -3.519531 -1.328125 -3.351562 -1.359375 -3.1875 C -1.398438 -3.03125 -1.363281 -2.890625 -1.25 -2.765625 C -1.144531 -2.648438 -1.023438 -2.585938 -0.890625 -2.578125 C -0.765625 -2.578125 -0.59375 -2.640625 -0.375 -2.765625 L 0.1875 -3.078125 C 0.488281 -3.242188 0.753906 -3.304688 0.984375 -3.265625 C 1.210938 -3.234375 1.421875 -3.117188 1.609375 -2.921875 C 1.765625 -2.753906 1.859375 -2.570312 1.890625 -2.375 C 1.929688 -2.175781 1.90625 -1.96875 1.8125 -1.75 C 1.71875 -1.53125 1.554688 -1.316406 1.328125 -1.109375 Z M 1.328125 -1.109375 "/></g></g></g><g fill="#000000" fill-opacity="1"><g transform="translate(98.78205, 13.847058)"><g><path d="M 1.875 -1.140625 C 1.570312 -0.941406 1.265625 -0.832031 0.953125 -0.8125 C 0.640625 -0.800781 0.34375 -0.878906 0.0625 -1.046875 C -0.207031 -1.210938 -0.457031 -1.472656 -0.6875 -1.828125 C -0.914062 -2.171875 -1.054688 -2.503906 -1.109375 -2.828125 C -1.160156 -3.160156 -1.113281 -3.460938 -0.96875 -3.734375 C -0.832031 -4.015625 -0.613281 -4.253906 -0.3125 -4.453125 C -0.0078125 -4.660156 0.289062 -4.769531 0.59375 -4.78125 C 0.90625 -4.800781 1.203125 -4.722656 1.484375 -4.546875 C 1.765625 -4.378906 2.019531 -4.125 2.25 -3.78125 C 2.476562 -3.425781 2.613281 -3.085938 2.65625 -2.765625 C 2.707031 -2.441406 2.664062 -2.140625 2.53125 -1.859375 C 2.394531 -1.585938 2.175781 -1.347656 1.875 -1.140625 Z M 1.59375 -1.5625 C 1.914062 -1.78125 2.085938 -2.046875 2.109375 -2.359375 C 2.140625 -2.671875 2.019531 -3.035156 1.75 -3.453125 C 1.46875 -3.867188 1.179688 -4.117188 0.890625 -4.203125 C 0.597656 -4.296875 0.289062 -4.234375 -0.03125 -4.015625 C -0.34375 -3.804688 -0.519531 -3.546875 -0.5625 -3.234375 C -0.601562 -2.929688 -0.484375 -2.570312 -0.203125 -2.15625 C 0.0664062 -1.738281 0.351562 -1.484375 0.65625 -1.390625 C 0.96875 -1.296875 1.28125 -1.351562 1.59375 -1.5625 Z M 1.59375 -1.5625 "/></g></g></g><g fill="#000000" fill-opacity="1"><g transform="translate(102.096604, 11.638284)"><g><path d="M 2.03125 -0.8125 C 1.726562 -0.675781 1.421875 -0.625 1.109375 -0.65625 C 0.796875 -0.695312 0.507812 -0.820312 0.25 -1.03125 C 0 -1.238281 -0.207031 -1.535156 -0.375 -1.921875 C -0.550781 -2.296875 -0.628906 -2.648438 -0.609375 -2.984375 C -0.597656 -3.316406 -0.5 -3.609375 -0.3125 -3.859375 C -0.125 -4.117188 0.117188 -4.316406 0.421875 -4.453125 C 0.796875 -4.617188 1.125 -4.675781 1.40625 -4.625 C 1.6875 -4.570312 1.925781 -4.453125 2.125 -4.265625 L 1.875 -3.859375 L 1.8125 -3.84375 C 1.632812 -4 1.453125 -4.082031 1.265625 -4.09375 C 1.078125 -4.113281 0.863281 -4.070312 0.625 -3.96875 C 0.40625 -3.863281 0.238281 -3.726562 0.125 -3.5625 C 0.0078125 -3.394531 -0.046875 -3.191406 -0.046875 -2.953125 C -0.046875 -2.710938 0.0195312 -2.445312 0.15625 -2.15625 C 0.28125 -1.851562 0.429688 -1.625 0.609375 -1.46875 C 0.796875 -1.3125 0.988281 -1.21875 1.1875 -1.1875 C 1.394531 -1.15625 1.609375 -1.191406 1.828125 -1.296875 C 2.066406 -1.398438 2.238281 -1.539062 2.34375 -1.71875 C 2.457031 -1.90625 2.507812 -2.128906 2.5 -2.390625 L 2.578125 -2.421875 L 3 -2.375 C 3.019531 -2.039062 2.953125 -1.734375 2.796875 -1.453125 C 2.648438 -1.179688 2.394531 -0.96875 2.03125 -0.8125 Z M 2.03125 -0.8125 "/></g></g></g><g fill="#000000" fill-opacity="1"><g transform="translate(105.447938, 10.198478)"><g><path d="M -0.4375 -4.625 C -0.550781 -4.59375 -0.65625 -4.597656 -0.75 -4.640625 C -0.84375 -4.679688 -0.910156 -4.765625 -0.953125 -4.890625 C -0.984375 -4.992188 -0.972656 -5.09375 -0.921875 -5.1875 C -0.867188 -5.289062 -0.785156 -5.359375 -0.671875 -5.390625 C -0.554688 -5.421875 -0.453125 -5.410156 -0.359375 -5.359375 C -0.273438 -5.304688 -0.21875 -5.226562 -0.1875 -5.125 C -0.144531 -5 -0.144531 -4.890625 -0.1875 -4.796875 C -0.238281 -4.710938 -0.320312 -4.65625 -0.4375 -4.625 Z M 0.625 -0.1875 L -0.5 -3.828125 L 0.046875 -4 L 1.171875 -0.359375 Z M 0.625 -0.1875 "/></g></g></g><g fill="#000000" fill-opacity="1"><g transform="translate(106.969317, 9.646679)"><g><path d="M 1.5625 -0.203125 C 1.195312 -0.140625 0.890625 -0.179688 0.640625 -0.328125 C 0.398438 -0.484375 0.25 -0.742188 0.1875 -1.109375 C 0.144531 -1.328125 0.148438 -1.519531 0.203125 -1.6875 C 0.265625 -1.863281 0.382812 -2.019531 0.5625 -2.15625 C 0.75 -2.289062 0.988281 -2.410156 1.28125 -2.515625 C 1.539062 -2.617188 1.734375 -2.707031 1.859375 -2.78125 C 1.992188 -2.863281 2.078125 -2.945312 2.109375 -3.03125 C 2.148438 -3.113281 2.164062 -3.207031 2.15625 -3.3125 C 2.113281 -3.488281 2.023438 -3.609375 1.890625 -3.671875 C 1.753906 -3.734375 1.5625 -3.738281 1.3125 -3.6875 C 1.0625 -3.644531 0.859375 -3.5625 0.703125 -3.4375 C 0.554688 -3.3125 0.425781 -3.144531 0.3125 -2.9375 L 0.25 -2.921875 L -0.109375 -3.265625 C 0.015625 -3.484375 0.1875 -3.675781 0.40625 -3.84375 C 0.625 -4.007812 0.894531 -4.125 1.21875 -4.1875 C 1.65625 -4.269531 1.992188 -4.226562 2.234375 -4.0625 C 2.484375 -3.90625 2.644531 -3.65625 2.71875 -3.3125 L 3.078125 -1.328125 C 3.117188 -1.128906 3.226562 -1.046875 3.40625 -1.078125 C 3.46875 -1.097656 3.523438 -1.117188 3.578125 -1.140625 L 3.625 -1.140625 L 3.75 -0.765625 C 3.71875 -0.722656 3.664062 -0.6875 3.59375 -0.65625 C 3.53125 -0.632812 3.460938 -0.613281 3.390625 -0.59375 C 3.191406 -0.5625 3.03125 -0.582031 2.90625 -0.65625 C 2.789062 -0.726562 2.703125 -0.847656 2.640625 -1.015625 L 2.5625 -1.015625 C 2.488281 -0.796875 2.367188 -0.617188 2.203125 -0.484375 C 2.046875 -0.347656 1.832031 -0.253906 1.5625 -0.203125 Z M 1.609375 -0.6875 C 1.816406 -0.726562 1.984375 -0.804688 2.109375 -0.921875 C 2.242188 -1.046875 2.335938 -1.203125 2.390625 -1.390625 C 2.441406 -1.585938 2.445312 -1.796875 2.40625 -2.015625 L 2.3125 -2.5 L 2.25 -2.5 C 2.164062 -2.425781 2.066406 -2.359375 1.953125 -2.296875 C 1.847656 -2.234375 1.691406 -2.171875 1.484375 -2.109375 C 1.273438 -2.035156 1.113281 -1.953125 1 -1.859375 C 0.882812 -1.773438 0.804688 -1.679688 0.765625 -1.578125 C 0.722656 -1.472656 0.71875 -1.351562 0.75 -1.21875 C 0.789062 -0.988281 0.882812 -0.832031 1.03125 -0.75 C 1.1875 -0.664062 1.378906 -0.644531 1.609375 -0.6875 Z M 1.609375 -0.6875 "/></g></g></g><g fill="#000000" fill-opacity="1"><g transform="translate(110.526254, 8.99876)"><g><path d="M 2.546875 -0.734375 L 2.75 -0.328125 C 2.664062 -0.234375 2.550781 -0.160156 2.40625 -0.109375 C 2.257812 -0.0546875 2.097656 -0.0234375 1.921875 -0.015625 C 1.203125 0.015625 0.828125 -0.335938 0.796875 -1.078125 L 0.6875 -3.40625 L 0.015625 -3.375 L 0 -3.828125 L 0.671875 -3.859375 L 0.625 -4.671875 L 1.1875 -4.78125 L 1.234375 -3.875 L 2.453125 -3.9375 L 2.46875 -3.484375 L 1.25 -3.421875 L 1.359375 -1.15625 C 1.378906 -0.71875 1.578125 -0.507812 1.953125 -0.53125 C 2.160156 -0.539062 2.332031 -0.601562 2.46875 -0.71875 Z M 2.546875 -0.734375 "/></g></g></g><g fill="#000000" fill-opacity="1"><g transform="translate(113.195608, 8.88793)"><g><path d="M 1.171875 -4.5 C 1.046875 -4.507812 0.945312 -4.550781 0.875 -4.625 C 0.8125 -4.695312 0.785156 -4.796875 0.796875 -4.921875 C 0.796875 -5.035156 0.832031 -5.128906 0.90625 -5.203125 C 0.988281 -5.273438 1.09375 -5.304688 1.21875 -5.296875 C 1.332031 -5.285156 1.421875 -5.242188 1.484375 -5.171875 C 1.554688 -5.097656 1.59375 -5.003906 1.59375 -4.890625 C 1.582031 -4.765625 1.535156 -4.664062 1.453125 -4.59375 C 1.378906 -4.519531 1.285156 -4.488281 1.171875 -4.5 Z M 0.65625 0.03125 L 0.84375 -3.78125 L 1.421875 -3.75 L 1.234375 0.0625 Z M 0.65625 0.03125 "/></g></g></g><g fill="#000000" fill-opacity="1"><g transform="translate(114.796616, 8.871029)"><g><path d="M 2.140625 0.453125 C 1.785156 0.398438 1.488281 0.269531 1.25 0.0625 C 1.007812 -0.144531 0.847656 -0.398438 0.765625 -0.703125 C 0.679688 -1.015625 0.675781 -1.378906 0.75 -1.796875 C 0.820312 -2.210938 0.953125 -2.554688 1.140625 -2.828125 C 1.328125 -3.097656 1.566406 -3.28125 1.859375 -3.375 C 2.148438 -3.476562 2.472656 -3.503906 2.828125 -3.453125 C 3.179688 -3.378906 3.476562 -3.242188 3.71875 -3.046875 C 3.957031 -2.859375 4.117188 -2.601562 4.203125 -2.28125 C 4.285156 -1.96875 4.289062 -1.601562 4.21875 -1.1875 C 4.144531 -0.769531 4.015625 -0.429688 3.828125 -0.171875 C 3.640625 0.0859375 3.398438 0.273438 3.109375 0.390625 C 2.816406 0.503906 2.492188 0.523438 2.140625 0.453125 Z M 2.234375 -0.0625 C 2.609375 0.0078125 2.914062 -0.0507812 3.15625 -0.25 C 3.394531 -0.445312 3.554688 -0.789062 3.640625 -1.28125 C 3.734375 -1.769531 3.703125 -2.148438 3.546875 -2.421875 C 3.390625 -2.703125 3.125 -2.878906 2.75 -2.953125 C 2.375 -3.015625 2.066406 -2.941406 1.828125 -2.734375 C 1.585938 -2.535156 1.421875 -2.191406 1.328125 -1.703125 C 1.242188 -1.210938 1.28125 -0.832031 1.4375 -0.5625 C 1.59375 -0.289062 1.859375 -0.125 2.234375 -0.0625 Z M 2.234375 -0.0625 "/></g></g></g><g fill="#000000" fill-opacity="1"><g transform="translate(118.706809, 9.526766)"><g><path d="M 0.609375 0.21875 L 1.921875 -3.359375 L 2.4375 -3.171875 L 2.234375 -2.609375 L 2.296875 -2.5625 C 2.492188 -2.726562 2.703125 -2.832031 2.921875 -2.875 C 3.148438 -2.925781 3.398438 -2.898438 3.671875 -2.796875 C 4.109375 -2.640625 4.378906 -2.414062 4.484375 -2.125 C 4.585938 -1.84375 4.554688 -1.46875 4.390625 -1 L 3.546875 1.296875 L 3.015625 1.109375 L 3.859375 -1.171875 C 3.929688 -1.390625 3.96875 -1.570312 3.96875 -1.71875 C 3.96875 -1.875 3.921875 -2.003906 3.828125 -2.109375 C 3.734375 -2.210938 3.59375 -2.300781 3.40625 -2.375 C 3.082031 -2.488281 2.78125 -2.472656 2.5 -2.328125 C 2.226562 -2.191406 2.003906 -1.882812 1.828125 -1.40625 L 1.15625 0.421875 Z M 0.609375 0.21875 "/></g></g></g><g fill="#000000" fill-opacity="1"><g transform="translate(122.526196, 10.994216)"><g/></g></g><g fill="#000000" fill-opacity="1"><g transform="translate(123.92371, 11.704925)"><g/></g></g><g fill="#000000" fill-opacity="1"><g transform="translate(125.268369, 12.511133)"><g/></g></g><g fill="#000000" fill-opacity="1"><g transform="translate(126.553698, 13.408933)"><g/></g></g><g fill="#000000" fill-opacity="1"><g transform="translate(127.754391, 14.346171)"><g><path d="M 0.609375 0.59375 L 2.953125 -1.8125 L 2.484375 -2.28125 L 2.796875 -2.609375 L 3.265625 -2.140625 C 3.347656 -2.285156 3.441406 -2.410156 3.546875 -2.515625 C 3.722656 -2.691406 3.910156 -2.800781 4.109375 -2.84375 C 4.304688 -2.894531 4.5 -2.890625 4.6875 -2.828125 C 4.875 -2.765625 5.054688 -2.644531 5.234375 -2.46875 C 5.503906 -2.207031 5.65625 -1.941406 5.6875 -1.671875 L 5.25 -1.53125 L 5.203125 -1.578125 C 5.179688 -1.765625 5.082031 -1.941406 4.90625 -2.109375 C 4.738281 -2.273438 4.570312 -2.359375 4.40625 -2.359375 C 4.25 -2.359375 4.097656 -2.28125 3.953125 -2.125 C 3.859375 -2.03125 3.757812 -1.90625 3.65625 -1.75 L 4.53125 -0.90625 L 4.21875 -0.578125 L 3.34375 -1.421875 L 1 0.984375 Z M 0.609375 0.59375 "/></g></g></g><g fill="#000000" fill-opacity="1"><g transform="translate(129.520537, 15.951473)"><g><path d="M 1.265625 1.78125 C 1.054688 1.5 0.929688 1.203125 0.890625 0.890625 C 0.847656 0.585938 0.894531 0.289062 1.03125 0 C 1.175781 -0.289062 1.421875 -0.566406 1.765625 -0.828125 C 2.085938 -1.085938 2.410156 -1.25 2.734375 -1.3125 C 3.066406 -1.382812 3.375 -1.359375 3.65625 -1.234375 C 3.945312 -1.117188 4.195312 -0.921875 4.40625 -0.640625 C 4.632812 -0.347656 4.769531 -0.0507812 4.8125 0.25 C 4.851562 0.550781 4.796875 0.847656 4.640625 1.140625 C 4.484375 1.429688 4.242188 1.707031 3.921875 1.96875 C 3.578125 2.226562 3.25 2.390625 2.9375 2.453125 C 2.625 2.523438 2.320312 2.503906 2.03125 2.390625 C 1.75 2.273438 1.492188 2.070312 1.265625 1.78125 Z M 1.671875 1.46875 C 1.910156 1.769531 2.1875 1.925781 2.5 1.9375 C 2.8125 1.945312 3.164062 1.800781 3.5625 1.5 C 3.957031 1.1875 4.1875 0.878906 4.25 0.578125 C 4.320312 0.273438 4.238281 -0.0234375 4 -0.328125 C 3.769531 -0.628906 3.5 -0.785156 3.1875 -0.796875 C 2.882812 -0.804688 2.535156 -0.65625 2.140625 -0.34375 C 1.742188 -0.0390625 1.507812 0.257812 1.4375 0.5625 C 1.363281 0.863281 1.441406 1.164062 1.671875 1.46875 Z M 1.671875 1.46875 "/></g></g></g><g fill="#000000" fill-opacity="1"><g transform="translate(131.954102, 19.156857)"><g><path d="M 0.3125 0.578125 L 3.640625 -1.28125 L 3.921875 -0.8125 L 3.40625 -0.515625 L 3.40625 -0.453125 C 3.875 -0.503906 4.226562 -0.316406 4.46875 0.109375 C 4.59375 0.335938 4.644531 0.53125 4.625 0.6875 L 4.15625 0.796875 L 4.09375 0.75 C 4.09375 0.570312 4.050781 0.410156 3.96875 0.265625 C 3.820312 0.00390625 3.609375 -0.132812 3.328125 -0.15625 C 3.054688 -0.1875 2.695312 -0.0820312 2.25 0.15625 L 0.609375 1.078125 Z M 0.3125 0.578125 "/></g></g></g><g fill="#000000" fill-opacity="1"><g transform="translate(133.264091, 21.538206)"><g/></g></g><g fill="#000000" fill-opacity="1"><g transform="translate(133.90207, 22.970377)"><g/></g></g><g fill="#000000" fill-opacity="1"><g transform="translate(134.438852, 24.443465)"><g/></g></g><g fill="#000000" fill-opacity="1"><g transform="translate(134.871868, 25.950324)"><g/></g></g><g fill="#000000" fill-opacity="1"><g transform="translate(135.199005, 27.483659)"><g/></g></g><g fill="#000000" fill-opacity="1"><g transform="translate(135.493597, 28.907645)"><g><path d="M -0.046875 2.203125 C -0.046875 1.890625 -0.00390625 1.601562 0.078125 1.34375 C 0.160156 1.09375 0.269531 0.878906 0.40625 0.703125 C 0.539062 0.535156 0.691406 0.410156 0.859375 0.328125 L 1.265625 0.65625 L 1.265625 0.734375 C 0.742188 1.066406 0.488281 1.554688 0.5 2.203125 C 0.507812 2.585938 0.59375 2.867188 0.75 3.046875 C 0.90625 3.222656 1.125 3.3125 1.40625 3.3125 C 1.570312 3.300781 1.710938 3.265625 1.828125 3.203125 C 1.941406 3.148438 2.039062 3.050781 2.125 2.90625 C 2.207031 2.769531 2.273438 2.582031 2.328125 2.34375 L 2.46875 1.75 C 2.5625 1.289062 2.722656 0.957031 2.953125 0.75 C 3.179688 0.539062 3.472656 0.429688 3.828125 0.421875 C 4.078125 0.421875 4.300781 0.484375 4.5 0.609375 C 4.707031 0.734375 4.867188 0.921875 4.984375 1.171875 C 5.097656 1.421875 5.15625 1.71875 5.15625 2.0625 C 5.164062 2.445312 5.113281 2.769531 5 3.03125 C 4.894531 3.289062 4.742188 3.503906 4.546875 3.671875 L 4.140625 3.375 L 4.140625 3.296875 C 4.316406 3.148438 4.441406 2.976562 4.515625 2.78125 C 4.597656 2.582031 4.640625 2.347656 4.640625 2.078125 C 4.640625 1.734375 4.566406 1.46875 4.421875 1.28125 C 4.285156 1.101562 4.097656 1.015625 3.859375 1.015625 C 3.628906 1.023438 3.445312 1.09375 3.3125 1.21875 C 3.175781 1.351562 3.078125 1.578125 3.015625 1.890625 L 2.875 2.5 C 2.769531 2.988281 2.597656 3.34375 2.359375 3.5625 C 2.128906 3.789062 1.828125 3.910156 1.453125 3.921875 C 1.171875 3.921875 0.914062 3.859375 0.6875 3.734375 C 0.457031 3.617188 0.28125 3.429688 0.15625 3.171875 C 0.03125 2.910156 -0.0351562 2.585938 -0.046875 2.203125 Z M -0.046875 2.203125 "/></g></g></g><g fill="#000000" fill-opacity="1"><g transform="translate(135.525214, 32.892928)"><g><path d="M 0.28125 2.640625 L -0.15625 2.78125 C -0.238281 2.675781 -0.289062 2.546875 -0.3125 2.390625 C -0.34375 2.234375 -0.347656 2.066406 -0.328125 1.890625 C -0.234375 1.179688 0.175781 0.878906 0.90625 0.984375 L 3.21875 1.28125 L 3.3125 0.609375 L 3.765625 0.671875 L 3.671875 1.34375 L 4.484375 1.4375 L 4.484375 2 L 3.59375 1.890625 L 3.4375 3.109375 L 2.984375 3.046875 L 3.140625 1.828125 L 0.890625 1.53125 C 0.460938 1.476562 0.226562 1.640625 0.1875 2.015625 C 0.15625 2.222656 0.1875 2.40625 0.28125 2.5625 Z M 0.28125 2.640625 "/></g></g></g><g fill="#000000" fill-opacity="1"><g transform="translate(135.270746, 35.4443)"><g><path d="M -0.59375 1.796875 C -0.46875 1.378906 -0.269531 1.101562 0 0.96875 C 0.28125 0.832031 0.628906 0.820312 1.046875 0.9375 L 3.5 1.625 L 3.359375 2.15625 L 0.921875 1.46875 C 0.367188 1.3125 0.015625 1.492188 -0.140625 2.015625 C -0.222656 2.347656 -0.1875 2.644531 -0.03125 2.90625 C 0.125 3.164062 0.453125 3.363281 0.953125 3.5 L 2.828125 4.03125 L 2.671875 4.5625 L -1 3.53125 L -0.859375 3.015625 L -0.28125 3.171875 L -0.234375 3.125 C -0.429688 2.925781 -0.554688 2.722656 -0.609375 2.515625 C -0.671875 2.304688 -0.664062 2.066406 -0.59375 1.796875 Z M -0.59375 1.796875 "/></g></g></g><g fill="#000000" fill-opacity="1"><g transform="translate(134.249749, 39.226814)"><g><path d="M -0.9375 1.75 C -0.789062 1.46875 -0.601562 1.253906 -0.375 1.109375 C -0.144531 0.960938 0.128906 0.894531 0.453125 0.90625 C 0.773438 0.914062 1.132812 1.015625 1.53125 1.203125 C 1.914062 1.398438 2.210938 1.625 2.421875 1.875 C 2.640625 2.132812 2.757812 2.40625 2.78125 2.6875 C 2.800781 2.96875 2.742188 3.253906 2.609375 3.546875 C 2.492188 3.765625 2.347656 3.941406 2.171875 4.078125 C 1.992188 4.222656 1.773438 4.316406 1.515625 4.359375 L 1.5 4.421875 L 3.34375 5.328125 L 3.09375 5.84375 L -1.703125 3.5 L -1.453125 2.984375 L -0.953125 3.234375 L -0.921875 3.171875 C -1.035156 2.972656 -1.097656 2.75 -1.109375 2.5 C -1.117188 2.257812 -1.0625 2.007812 -0.9375 1.75 Z M -0.546875 2.125 C -0.703125 2.445312 -0.71875 2.753906 -0.59375 3.046875 C -0.46875 3.335938 -0.179688 3.59375 0.265625 3.8125 C 0.710938 4.03125 1.085938 4.097656 1.390625 4.015625 C 1.703125 3.941406 1.9375 3.742188 2.09375 3.421875 C 2.25 3.097656 2.265625 2.789062 2.140625 2.5 C 2.023438 2.21875 1.738281 1.960938 1.28125 1.734375 C 0.394531 1.304688 -0.210938 1.4375 -0.546875 2.125 Z M -0.546875 2.125 "/></g></g></g><g fill="#000000" fill-opacity="1"><g transform="translate(132.446513, 42.959458)"><g><path d="M -0.6875 3.984375 L 0.84375 1.875 C 0.457031 1.59375 0.117188 1.472656 -0.171875 1.515625 C -0.460938 1.566406 -0.710938 1.734375 -0.921875 2.015625 C -1.085938 2.242188 -1.179688 2.453125 -1.203125 2.640625 C -1.222656 2.828125 -1.175781 3.023438 -1.0625 3.234375 L -1.109375 3.296875 L -1.5 3.453125 C -1.65625 3.203125 -1.722656 2.929688 -1.703125 2.640625 C -1.691406 2.347656 -1.570312 2.039062 -1.34375 1.71875 C -1.132812 1.425781 -0.890625 1.210938 -0.609375 1.078125 C -0.335938 0.953125 -0.0390625 0.921875 0.28125 0.984375 C 0.601562 1.046875 0.941406 1.207031 1.296875 1.46875 C 1.640625 1.71875 1.890625 1.988281 2.046875 2.28125 C 2.203125 2.582031 2.265625 2.878906 2.234375 3.171875 C 2.203125 3.472656 2.085938 3.757812 1.890625 4.03125 C 1.609375 4.425781 1.273438 4.65625 0.890625 4.71875 C 0.503906 4.78125 0.09375 4.648438 -0.34375 4.328125 C -0.519531 4.203125 -0.640625 4.113281 -0.703125 4.0625 Z M -0.015625 3.875 C 0.304688 4.113281 0.59375 4.21875 0.84375 4.1875 C 1.09375 4.15625 1.3125 4.007812 1.5 3.75 C 1.695312 3.476562 1.769531 3.210938 1.71875 2.953125 C 1.675781 2.691406 1.507812 2.421875 1.21875 2.140625 Z M -0.015625 3.875 "/></g></g></g><g fill="#000000" fill-opacity="1"><g transform="translate(130.336188, 45.958854)"><g><path d="M -0.46875 0.453125 L 2.203125 3.171875 L 1.8125 3.5625 L 1.390625 3.140625 L 1.328125 3.171875 C 1.390625 3.421875 1.390625 3.65625 1.328125 3.875 C 1.273438 4.101562 1.144531 4.316406 0.9375 4.515625 C 0.613281 4.835938 0.300781 4.984375 0 4.953125 C -0.3125 4.929688 -0.640625 4.742188 -0.984375 4.390625 L -2.703125 2.640625 L -2.296875 2.25 L -0.59375 3.984375 C -0.425781 4.148438 -0.273438 4.257812 -0.140625 4.3125 C -0.00390625 4.375 0.128906 4.382812 0.265625 4.34375 C 0.398438 4.3125 0.535156 4.222656 0.671875 4.078125 C 0.921875 3.835938 1.039062 3.5625 1.03125 3.25 C 1.03125 2.945312 0.847656 2.613281 0.484375 2.25 L -0.875 0.859375 Z M -0.46875 0.453125 "/></g></g></g><g fill="#000000" fill-opacity="1"><g transform="translate(127.428164, 48.765017)"><g><path d="M -1.71875 2.015625 L -2.109375 1.796875 C -2.097656 1.660156 -2.046875 1.53125 -1.953125 1.40625 C -1.859375 1.28125 -1.738281 1.164062 -1.59375 1.0625 C -1.019531 0.644531 -0.515625 0.734375 -0.078125 1.328125 L 1.28125 3.21875 L 1.828125 2.8125 L 2.09375 3.171875 L 1.546875 3.578125 L 2.03125 4.234375 L 1.640625 4.640625 L 1.09375 3.90625 L 0.109375 4.625 L -0.15625 4.265625 L 0.828125 3.546875 L -0.5 1.71875 C -0.757812 1.363281 -1.039062 1.296875 -1.34375 1.515625 C -1.507812 1.640625 -1.613281 1.789062 -1.65625 1.96875 Z M -1.71875 2.015625 "/></g></g></g></svg>