<svg xmlns="http://www.w3.org/2000/svg" xmlns:xlink="http://www.w3.org/1999/xlink" width="300" zoomAndPan="magnify" viewBox="0 0 224.87999 74.999997" height="100" preserveAspectRatio="xMidYMid meet" version="1.0"><defs><g/><clipPath id="dd168d78a2"><path d="M 36.824219 0.0195312 L 110.375 0.0195312 L 110.375 73.570312 L 36.824219 73.570312 Z M 36.824219 0.0195312 " clip-rule="nonzero"/></clipPath><clipPath id="38e947e265"><path d="M 73.601562 0.0195312 C 53.289062 0.0195312 36.824219 16.484375 36.824219 36.796875 C 36.824219 57.105469 53.289062 73.570312 73.601562 73.570312 C 93.910156 73.570312 110.375 57.105469 110.375 36.796875 C 110.375 16.484375 93.910156 0.0195312 73.601562 0.0195312 Z M 73.601562 0.0195312 " clip-rule="nonzero"/></clipPath><clipPath id="fbb29db1d7"><path d="M 38.761719 1.816406 L 108.4375 1.816406 L 108.4375 71.496094 L 38.761719 71.496094 Z M 38.761719 1.816406 " clip-rule="nonzero"/></clipPath><clipPath id="8dfdc7c473"><path d="M 73.601562 1.816406 C 54.359375 1.816406 38.761719 17.417969 38.761719 36.65625 C 38.761719 55.898438 54.359375 71.496094 73.601562 71.496094 C 92.839844 71.496094 108.4375 55.898438 108.4375 36.65625 C 108.4375 17.417969 92.839844 1.816406 73.601562 1.816406 Z M 73.601562 1.816406 " clip-rule="nonzero"/></clipPath><clipPath id="6e7127adec"><path d="M 57.378906 18.929688 L 93.113281 18.929688 L 93.113281 54.660156 L 57.378906 54.660156 Z M 57.378906 18.929688 " clip-rule="nonzero"/></clipPath><clipPath id="22035693f3"><path d="M 75.246094 18.929688 C 65.378906 18.929688 57.378906 26.929688 57.378906 36.796875 C 57.378906 46.664062 65.378906 54.660156 75.246094 54.660156 C 85.113281 54.660156 93.113281 46.664062 93.113281 36.796875 C 93.113281 26.929688 85.113281 18.929688 75.246094 18.929688 Z M 75.246094 18.929688 " clip-rule="nonzero"/></clipPath><clipPath id="968a71a497"><path d="M 66.140625 27.554688 L 84.351562 27.554688 L 84.351562 45.761719 L 66.140625 45.761719 Z M 66.140625 27.554688 " clip-rule="nonzero"/></clipPath><clipPath id="62bbd947bd"><path d="M 75.246094 27.554688 C 70.21875 27.554688 66.140625 31.628906 66.140625 36.65625 C 66.140625 41.683594 70.21875 45.761719 75.246094 45.761719 C 80.273438 45.761719 84.351562 41.683594 84.351562 36.65625 C 84.351562 31.628906 80.273438 27.554688 75.246094 27.554688 Z M 75.246094 27.554688 " clip-rule="nonzero"/></clipPath></defs><g clip-path="url(#dd168d78a2)"><g clip-path="url(#38e947e265)"><path fill="#51998c" d="M 36.824219 0.0195312 L 110.375 0.0195312 L 110.375 73.570312 L 36.824219 73.570312 Z M 36.824219 0.0195312 " fill-opacity="1" fill-rule="nonzero"/></g></g><g clip-path="url(#fbb29db1d7)"><g clip-path="url(#8dfdc7c473)"><path fill="#90c6cd" d="M 38.761719 1.816406 L 108.4375 1.816406 L 108.4375 71.496094 L 38.761719 71.496094 Z M 38.761719 1.816406 " fill-opacity="1" fill-rule="nonzero"/></g></g><g clip-path="url(#6e7127adec)"><g clip-path="url(#22035693f3)"><path fill="#18abbc" d="M 57.378906 18.929688 L 93.113281 18.929688 L 93.113281 54.660156 L 57.378906 54.660156 Z M 57.378906 18.929688 " fill-opacity="1" fill-rule="nonzero"/></g></g><g clip-path="url(#968a71a497)"><g clip-path="url(#62bbd947bd)"><path fill="#000000" d="M 66.140625 27.554688 L 84.351562 27.554688 L 84.351562 45.761719 L 66.140625 45.761719 Z M 66.140625 27.554688 " fill-opacity="1" fill-rule="nonzero"/></g></g><g fill="#90c6cd" fill-opacity="1"><g transform="translate(139.365913, 49.118795)"><g><path d="M 6.703125 0.328125 C 5.597656 0.328125 4.640625 0.125 3.828125 -0.28125 C 3.023438 -0.6875 2.40625 -1.28125 1.96875 -2.0625 C 1.53125 -2.851562 1.3125 -3.796875 1.3125 -4.890625 C 1.3125 -5.910156 1.53125 -6.765625 1.96875 -7.453125 C 2.40625 -8.148438 3.078125 -8.71875 3.984375 -9.15625 C 4.898438 -9.601562 6.097656 -9.945312 7.578125 -10.1875 C 8.609375 -10.351562 9.390625 -10.535156 9.921875 -10.734375 C 10.460938 -10.929688 10.828125 -11.15625 11.015625 -11.40625 C 11.203125 -11.65625 11.296875 -11.96875 11.296875 -12.34375 C 11.296875 -12.894531 11.101562 -13.316406 10.71875 -13.609375 C 10.332031 -13.898438 9.691406 -14.046875 8.796875 -14.046875 C 7.835938 -14.046875 6.925781 -13.832031 6.0625 -13.40625 C 5.195312 -12.976562 4.453125 -12.421875 3.828125 -11.734375 L 3.515625 -11.734375 L 1.703125 -14.453125 C 2.578125 -15.421875 3.640625 -16.175781 4.890625 -16.71875 C 6.148438 -17.257812 7.523438 -17.53125 9.015625 -17.53125 C 11.285156 -17.53125 12.929688 -17.046875 13.953125 -16.078125 C 14.972656 -15.109375 15.484375 -13.738281 15.484375 -11.96875 L 15.484375 -4.484375 C 15.484375 -3.722656 15.820312 -3.34375 16.5 -3.34375 C 16.757812 -3.34375 17.015625 -3.390625 17.265625 -3.484375 L 17.484375 -3.421875 L 17.796875 -0.40625 C 17.554688 -0.25 17.222656 -0.117188 16.796875 -0.015625 C 16.367188 0.078125 15.898438 0.125 15.390625 0.125 C 14.359375 0.125 13.550781 -0.0703125 12.96875 -0.46875 C 12.394531 -0.863281 11.988281 -1.484375 11.75 -2.328125 L 11.421875 -2.359375 C 10.578125 -0.566406 9.003906 0.328125 6.703125 0.328125 Z M 8.078125 -2.90625 C 9.078125 -2.90625 9.875 -3.238281 10.46875 -3.90625 C 11.070312 -4.570312 11.375 -5.503906 11.375 -6.703125 L 11.375 -8.453125 L 11.078125 -8.515625 C 10.816406 -8.304688 10.472656 -8.128906 10.046875 -7.984375 C 9.628906 -7.847656 9.023438 -7.710938 8.234375 -7.578125 C 7.296875 -7.421875 6.617188 -7.148438 6.203125 -6.765625 C 5.796875 -6.390625 5.59375 -5.851562 5.59375 -5.15625 C 5.59375 -4.414062 5.8125 -3.851562 6.25 -3.46875 C 6.6875 -3.09375 7.296875 -2.90625 8.078125 -2.90625 Z M 8.078125 -2.90625 "/></g></g></g><g fill="#90c6cd" fill-opacity="1"><g transform="translate(157.497055, 49.118795)"><g><path d="M 2.484375 0 L 2.484375 -24.109375 L 6.796875 -24.109375 L 6.796875 -10.734375 L 7.21875 -10.734375 L 12.1875 -17.203125 L 16.578125 -17.203125 L 16.578125 -16.84375 L 10.734375 -9.296875 L 17.234375 -0.390625 L 17.234375 0 L 12.671875 0 L 7.21875 -7.25 L 6.796875 -7.25 L 6.796875 0 Z M 2.484375 0 "/></g></g></g><g fill="#90c6cd" fill-opacity="1"><g transform="translate(174.75516, 49.118795)"><g><path d="M 4.625 -19.265625 C 3.851562 -19.265625 3.222656 -19.5 2.734375 -19.96875 C 2.242188 -20.4375 2 -21.046875 2 -21.796875 C 2 -22.535156 2.242188 -23.140625 2.734375 -23.609375 C 3.222656 -24.085938 3.851562 -24.328125 4.625 -24.328125 C 5.144531 -24.328125 5.609375 -24.21875 6.015625 -24 C 6.421875 -23.78125 6.734375 -23.476562 6.953125 -23.09375 C 7.179688 -22.71875 7.296875 -22.285156 7.296875 -21.796875 C 7.296875 -21.304688 7.179688 -20.867188 6.953125 -20.484375 C 6.734375 -20.109375 6.421875 -19.8125 6.015625 -19.59375 C 5.609375 -19.375 5.144531 -19.265625 4.625 -19.265625 Z M 2.484375 0 L 2.484375 -17.203125 L 6.796875 -17.203125 L 6.796875 0 Z M 2.484375 0 "/></g></g></g><g fill="#90c6cd" fill-opacity="1"><g transform="translate(184.015606, 49.118795)"><g><path d="M 2.484375 0 L 2.484375 -17.203125 L 6.625 -17.203125 L 6.625 -14.890625 L 6.953125 -14.828125 C 7.515625 -15.753906 8.171875 -16.4375 8.921875 -16.875 C 9.679688 -17.3125 10.648438 -17.53125 11.828125 -17.53125 C 13.117188 -17.53125 14.160156 -17.269531 14.953125 -16.75 C 15.742188 -16.238281 16.320312 -15.488281 16.6875 -14.5 L 17.015625 -14.5 C 17.546875 -15.53125 18.226562 -16.289062 19.0625 -16.78125 C 19.894531 -17.28125 20.9375 -17.53125 22.1875 -17.53125 C 25.757812 -17.53125 27.546875 -15.546875 27.546875 -11.578125 L 27.546875 0 L 23.21875 0 L 23.21875 -11.03125 C 23.21875 -12.03125 23.019531 -12.753906 22.625 -13.203125 C 22.226562 -13.648438 21.59375 -13.875 20.71875 -13.875 C 18.351562 -13.875 17.171875 -12.289062 17.171875 -9.125 L 17.171875 0 L 12.84375 0 L 12.84375 -11.03125 C 12.84375 -12.03125 12.644531 -12.753906 12.25 -13.203125 C 11.851562 -13.648438 11.21875 -13.875 10.34375 -13.875 C 9.226562 -13.875 8.359375 -13.503906 7.734375 -12.765625 C 7.109375 -12.023438 6.796875 -10.84375 6.796875 -9.21875 L 6.796875 0 Z M 2.484375 0 "/></g></g></g><g fill="#000000" fill-opacity="1"><g transform="translate(114.603934, 49.118795)"><g><path d="M 17.6875 -14.21875 L 17.6875 -22.796875 L 22.171875 -22.796875 L 22.171875 0 L 17.6875 0 L 17.6875 -10.390625 L 7.46875 -10.390625 L 7.46875 0 L 2.96875 0 L 2.96875 -22.796875 L 7.46875 -22.796875 L 7.46875 -14.21875 Z M 17.6875 -14.21875 "/></g></g></g><g fill="#000000" fill-opacity="1"><g transform="translate(58.734727, 56.624154)"><g><path d="M -1.078125 -1 L -0.625 -0.578125 L -4.484375 3.578125 L -5.203125 2.90625 L -3.203125 -1.78125 L -3.265625 -1.84375 L -7.796875 0.5 L -8.5 -0.15625 L -4.640625 -4.3125 L -4.171875 -3.875 L -7.328125 -0.46875 L -7.25 -0.40625 L -2.875 -2.671875 L -2.375 -2.21875 L -4.3125 2.328125 L -4.234375 2.40625 Z M -1.078125 -1 "/></g></g></g><g fill="#000000" fill-opacity="1"><g transform="translate(53.915535, 52.040013)"><g><path d="M -3.984375 -2.171875 L -2.28125 0.21875 C -1.875 -0.09375 -1.632812 -0.410156 -1.5625 -0.734375 C -1.5 -1.066406 -1.582031 -1.398438 -1.8125 -1.734375 C -1.988281 -1.984375 -2.175781 -2.148438 -2.375 -2.234375 C -2.570312 -2.328125 -2.796875 -2.347656 -3.046875 -2.296875 L -3.09375 -2.359375 L -3.140625 -2.84375 C -2.816406 -2.914062 -2.503906 -2.890625 -2.203125 -2.765625 C -1.898438 -2.648438 -1.617188 -2.414062 -1.359375 -2.0625 C -1.117188 -1.71875 -0.976562 -1.378906 -0.9375 -1.046875 C -0.894531 -0.710938 -0.960938 -0.378906 -1.140625 -0.046875 C -1.316406 0.273438 -1.609375 0.578125 -2.015625 0.859375 C -2.410156 1.140625 -2.789062 1.304688 -3.15625 1.359375 C -3.53125 1.410156 -3.867188 1.363281 -4.171875 1.21875 C -4.484375 1.070312 -4.75 0.847656 -4.96875 0.546875 C -5.28125 0.0859375 -5.394531 -0.351562 -5.3125 -0.78125 C -5.238281 -1.207031 -4.957031 -1.59375 -4.46875 -1.9375 C -4.269531 -2.082031 -4.140625 -2.171875 -4.078125 -2.203125 Z M -4.109375 -1.421875 C -4.472656 -1.148438 -4.6875 -0.878906 -4.75 -0.609375 C -4.8125 -0.335938 -4.738281 -0.0507812 -4.53125 0.25 C -4.3125 0.550781 -4.050781 0.726562 -3.75 0.78125 C -3.457031 0.832031 -3.117188 0.75 -2.734375 0.53125 Z M -4.109375 -1.421875 "/></g></g></g><g fill="#000000" fill-opacity="1"><g transform="translate(51.477803, 48.70584)"><g><path d="M -0.875 -2.03125 C -0.726562 -1.71875 -0.671875 -1.410156 -0.703125 -1.109375 C -0.742188 -0.804688 -0.878906 -0.515625 -1.109375 -0.234375 C -1.347656 0.046875 -1.691406 0.289062 -2.140625 0.5 C -2.578125 0.71875 -2.976562 0.828125 -3.34375 0.828125 C -3.71875 0.828125 -4.035156 0.738281 -4.296875 0.5625 C -4.554688 0.394531 -4.769531 0.144531 -4.9375 -0.1875 C -5.050781 -0.4375 -5.109375 -0.6875 -5.109375 -0.9375 C -5.117188 -1.195312 -5.046875 -1.453125 -4.890625 -1.703125 L -4.9375 -1.765625 L -7.015625 -0.765625 L -7.296875 -1.34375 L -1.890625 -3.9375 L -1.609375 -3.359375 L -2.171875 -3.09375 L -2.15625 -3.015625 C -1.90625 -2.972656 -1.664062 -2.875 -1.4375 -2.71875 C -1.207031 -2.5625 -1.019531 -2.332031 -0.875 -2.03125 Z M -1.484375 -1.984375 C -1.648438 -2.335938 -1.910156 -2.5625 -2.265625 -2.65625 C -2.617188 -2.75 -3.046875 -2.675781 -3.546875 -2.4375 C -4.046875 -2.1875 -4.363281 -1.894531 -4.5 -1.5625 C -4.644531 -1.238281 -4.632812 -0.898438 -4.46875 -0.546875 C -4.289062 -0.171875 -4.035156 0.0546875 -3.703125 0.140625 C -3.367188 0.222656 -2.945312 0.140625 -2.4375 -0.109375 C -1.4375 -0.585938 -1.117188 -1.210938 -1.484375 -1.984375 Z M -1.484375 -1.984375 "/></g></g></g><g fill="#000000" fill-opacity="1"><g transform="translate(49.478537, 44.367955)"><g><path d="M -5.171875 0.59375 C -5.128906 0.726562 -5.132812 0.847656 -5.1875 0.953125 C -5.25 1.054688 -5.34375 1.128906 -5.46875 1.171875 C -5.582031 1.210938 -5.691406 1.207031 -5.796875 1.15625 C -5.898438 1.101562 -5.972656 1.007812 -6.015625 0.875 C -6.066406 0.75 -6.066406 0.632812 -6.015625 0.53125 C -5.960938 0.425781 -5.878906 0.351562 -5.765625 0.3125 C -5.640625 0.269531 -5.519531 0.273438 -5.40625 0.328125 C -5.300781 0.378906 -5.222656 0.46875 -5.171875 0.59375 Z M -0.234375 -0.71875 L -4.296875 0.625 L -4.5 0.03125 L -0.4375 -1.3125 Z M -0.234375 -0.71875 "/></g></g></g><g fill="#000000" fill-opacity="1"><g transform="translate(48.82348, 42.660544)"><g><path d="M -0.421875 -2.421875 C -0.347656 -2.046875 -0.363281 -1.691406 -0.46875 -1.359375 C -0.570312 -1.035156 -0.769531 -0.753906 -1.0625 -0.515625 C -1.351562 -0.273438 -1.726562 -0.109375 -2.1875 -0.015625 C -2.644531 0.078125 -3.054688 0.0703125 -3.421875 -0.03125 C -3.785156 -0.132812 -4.082031 -0.3125 -4.3125 -0.5625 C -4.539062 -0.820312 -4.691406 -1.140625 -4.765625 -1.515625 C -4.859375 -1.960938 -4.851562 -2.332031 -4.75 -2.625 C -4.644531 -2.914062 -4.457031 -3.148438 -4.1875 -3.328125 L -3.796875 -2.96875 L -3.78125 -2.890625 C -3.988281 -2.734375 -4.128906 -2.550781 -4.203125 -2.34375 C -4.273438 -2.144531 -4.28125 -1.90625 -4.21875 -1.625 C -4.164062 -1.363281 -4.054688 -1.148438 -3.890625 -0.984375 C -3.722656 -0.816406 -3.503906 -0.703125 -3.234375 -0.640625 C -2.972656 -0.585938 -2.671875 -0.597656 -2.328125 -0.671875 C -1.984375 -0.742188 -1.695312 -0.859375 -1.46875 -1.015625 C -1.25 -1.179688 -1.097656 -1.375 -1.015625 -1.59375 C -0.929688 -1.8125 -0.914062 -2.050781 -0.96875 -2.3125 C -1.03125 -2.601562 -1.148438 -2.828125 -1.328125 -2.984375 C -1.503906 -3.140625 -1.742188 -3.25 -2.046875 -3.3125 L -2.0625 -3.390625 L -1.90625 -3.84375 C -1.53125 -3.8125 -1.210938 -3.675781 -0.953125 -3.4375 C -0.691406 -3.195312 -0.515625 -2.859375 -0.421875 -2.421875 Z M -0.421875 -2.421875 "/></g></g></g><g fill="#000000" fill-opacity="1"><g transform="translate(47.971304, 38.740639)"><g><path d="M -0.015625 -1.765625 C 0.00390625 -1.347656 -0.0820312 -1.015625 -0.28125 -0.765625 C -0.488281 -0.515625 -0.796875 -0.378906 -1.203125 -0.359375 C -1.460938 -0.347656 -1.679688 -0.390625 -1.859375 -0.484375 C -2.035156 -0.578125 -2.1875 -0.726562 -2.3125 -0.9375 C -2.4375 -1.15625 -2.535156 -1.445312 -2.609375 -1.8125 C -2.679688 -2.101562 -2.75 -2.328125 -2.8125 -2.484375 C -2.882812 -2.648438 -2.960938 -2.757812 -3.046875 -2.8125 C -3.140625 -2.863281 -3.25 -2.882812 -3.375 -2.875 C -3.5625 -2.863281 -3.703125 -2.789062 -3.796875 -2.65625 C -3.898438 -2.519531 -3.941406 -2.300781 -3.921875 -2 C -3.910156 -1.726562 -3.84375 -1.5 -3.71875 -1.3125 C -3.601562 -1.125 -3.4375 -0.953125 -3.21875 -0.796875 L -3.21875 -0.71875 L -3.640625 -0.375 C -3.878906 -0.539062 -4.070312 -0.757812 -4.21875 -1.03125 C -4.375 -1.3125 -4.457031 -1.628906 -4.46875 -1.984375 C -4.5 -2.492188 -4.410156 -2.875 -4.203125 -3.125 C -3.992188 -3.375 -3.691406 -3.507812 -3.296875 -3.53125 L -1.03125 -3.640625 C -0.789062 -3.648438 -0.675781 -3.753906 -0.6875 -3.953125 C -0.6875 -4.015625 -0.703125 -4.078125 -0.734375 -4.140625 L -0.71875 -4.203125 L -0.28125 -4.3125 C -0.25 -4.257812 -0.222656 -4.191406 -0.203125 -4.109375 C -0.179688 -4.035156 -0.171875 -3.960938 -0.171875 -3.890625 C -0.160156 -3.648438 -0.203125 -3.46875 -0.296875 -3.34375 C -0.390625 -3.21875 -0.535156 -3.132812 -0.734375 -3.09375 L -0.75 -3.015625 C -0.507812 -2.898438 -0.328125 -2.738281 -0.203125 -2.53125 C -0.0859375 -2.332031 -0.0234375 -2.078125 -0.015625 -1.765625 Z M -0.515625 -1.890625 C -0.523438 -2.128906 -0.585938 -2.332031 -0.703125 -2.5 C -0.828125 -2.664062 -0.988281 -2.789062 -1.1875 -2.875 C -1.394531 -2.957031 -1.632812 -2.988281 -1.90625 -2.96875 L -2.4375 -2.9375 L -2.453125 -2.875 C -2.378906 -2.78125 -2.316406 -2.664062 -2.265625 -2.53125 C -2.210938 -2.394531 -2.164062 -2.203125 -2.125 -1.953125 C -2.082031 -1.722656 -2.019531 -1.535156 -1.9375 -1.390625 C -1.851562 -1.242188 -1.753906 -1.140625 -1.640625 -1.078125 C -1.535156 -1.023438 -1.40625 -1.003906 -1.25 -1.015625 C -1 -1.023438 -0.8125 -1.109375 -0.6875 -1.265625 C -0.5625 -1.421875 -0.503906 -1.628906 -0.515625 -1.890625 Z M -0.515625 -1.890625 "/></g></g></g><g fill="#000000" fill-opacity="1"><g transform="translate(47.801441, 34.626056)"><g><path d="M 0.1875 -1.703125 C 0.164062 -1.398438 0.0664062 -1.164062 -0.109375 -1 C -0.296875 -0.84375 -0.5625 -0.773438 -0.90625 -0.796875 L -5.9375 -1.140625 L -5.890625 -1.765625 L -0.890625 -1.421875 C -0.710938 -1.410156 -0.582031 -1.4375 -0.5 -1.5 C -0.414062 -1.5625 -0.367188 -1.664062 -0.359375 -1.8125 C -0.359375 -1.90625 -0.367188 -1.992188 -0.390625 -2.078125 L -0.375 -2.140625 L 0.125 -2.1875 C 0.15625 -2.132812 0.175781 -2.066406 0.1875 -1.984375 C 0.195312 -1.898438 0.195312 -1.804688 0.1875 -1.703125 Z M 0.1875 -1.703125 "/></g></g></g><g fill="#000000" fill-opacity="1"><g transform="translate(47.944012, 32.500626)"><g/></g></g><g fill="#000000" fill-opacity="1"><g transform="translate(48.187348, 30.749288)"><g/></g></g><g fill="#000000" fill-opacity="1"><g transform="translate(48.549477, 29.018601)"><g/></g></g><g fill="#000000" fill-opacity="1"><g transform="translate(49.028708, 27.316619)"><g/></g></g><g fill="#000000" fill-opacity="1"><g transform="translate(49.62282, 25.651256)"><g/></g></g><g fill="#000000" fill-opacity="1"><g transform="translate(50.156855, 24.115152)"><g><path d="M 2.640625 -4.375 L 2.265625 -3.765625 L 0.65625 -4.125 L -0.59375 -2.0625 L 0.46875 -0.796875 L 0.109375 -0.1875 L -3.71875 -4.8125 L -3.25 -5.59375 Z M -2.921875 -4.8125 L -0.96875 -2.5 L 0.09375 -4.25 L -2.875 -4.890625 Z M -2.921875 -4.8125 "/></g></g></g><g fill="#000000" fill-opacity="1"><g transform="translate(52.706713, 19.919841)"><g><path d="M 1.328125 -1.4375 C 1.148438 -1.226562 0.960938 -1.054688 0.765625 -0.921875 C 0.566406 -0.796875 0.367188 -0.710938 0.171875 -0.671875 C -0.0234375 -0.640625 -0.207031 -0.644531 -0.375 -0.6875 L -0.4375 -1.234375 L -0.375 -1.3125 C -0.125 -1.269531 0.101562 -1.285156 0.3125 -1.359375 C 0.519531 -1.441406 0.710938 -1.585938 0.890625 -1.796875 C 1.085938 -2.035156 1.191406 -2.257812 1.203125 -2.46875 C 1.222656 -2.675781 1.148438 -2.847656 0.984375 -2.984375 C 0.859375 -3.097656 0.722656 -3.148438 0.578125 -3.140625 C 0.429688 -3.140625 0.265625 -3.066406 0.078125 -2.921875 L -0.53125 -2.5 C -0.851562 -2.269531 -1.144531 -2.148438 -1.40625 -2.140625 C -1.675781 -2.140625 -1.925781 -2.234375 -2.15625 -2.421875 C -2.332031 -2.578125 -2.445312 -2.753906 -2.5 -2.953125 C -2.550781 -3.160156 -2.539062 -3.378906 -2.46875 -3.609375 C -2.394531 -3.835938 -2.257812 -4.070312 -2.0625 -4.3125 C -1.8125 -4.601562 -1.570312 -4.800781 -1.34375 -4.90625 C -1.113281 -5.007812 -0.878906 -5.046875 -0.640625 -5.015625 L -0.609375 -4.53125 L -0.65625 -4.46875 C -0.863281 -4.457031 -1.046875 -4.410156 -1.203125 -4.328125 C -1.359375 -4.253906 -1.507812 -4.132812 -1.65625 -3.96875 C -1.84375 -3.75 -1.941406 -3.550781 -1.953125 -3.375 C -1.972656 -3.195312 -1.910156 -3.050781 -1.765625 -2.9375 C -1.640625 -2.820312 -1.5 -2.769531 -1.34375 -2.78125 C -1.195312 -2.789062 -1.019531 -2.875 -0.8125 -3.03125 L -0.203125 -3.46875 C 0.109375 -3.6875 0.390625 -3.789062 0.640625 -3.78125 C 0.898438 -3.78125 1.148438 -3.675781 1.390625 -3.46875 C 1.578125 -3.3125 1.707031 -3.125 1.78125 -2.90625 C 1.863281 -2.695312 1.863281 -2.460938 1.78125 -2.203125 C 1.695312 -1.953125 1.546875 -1.695312 1.328125 -1.4375 Z M 1.328125 -1.4375 "/></g></g></g><g fill="#000000" fill-opacity="1"><g transform="translate(55.017891, 17.161718)"><g><path d="M 1.5 -1.234375 C 1.300781 -1.054688 1.09375 -0.914062 0.875 -0.8125 C 0.664062 -0.71875 0.460938 -0.664062 0.265625 -0.65625 C 0.0664062 -0.644531 -0.109375 -0.675781 -0.265625 -0.75 L -0.265625 -1.28125 L -0.1875 -1.34375 C 0.0507812 -1.28125 0.28125 -1.269531 0.5 -1.3125 C 0.71875 -1.363281 0.925781 -1.476562 1.125 -1.65625 C 1.363281 -1.863281 1.503906 -2.066406 1.546875 -2.265625 C 1.585938 -2.472656 1.535156 -2.660156 1.390625 -2.828125 C 1.285156 -2.953125 1.15625 -3.019531 1 -3.03125 C 0.851562 -3.050781 0.679688 -3.003906 0.484375 -2.890625 L -0.171875 -2.5625 C -0.523438 -2.375 -0.832031 -2.289062 -1.09375 -2.3125 C -1.363281 -2.34375 -1.597656 -2.472656 -1.796875 -2.703125 C -1.953125 -2.867188 -2.039062 -3.054688 -2.0625 -3.265625 C -2.09375 -3.484375 -2.054688 -3.695312 -1.953125 -3.90625 C -1.847656 -4.125 -1.679688 -4.335938 -1.453125 -4.546875 C -1.160156 -4.804688 -0.890625 -4.972656 -0.640625 -5.046875 C -0.398438 -5.117188 -0.164062 -5.117188 0.0625 -5.046875 L 0.03125 -4.5625 L -0.03125 -4.5 C -0.238281 -4.53125 -0.425781 -4.519531 -0.59375 -4.46875 C -0.769531 -4.414062 -0.941406 -4.316406 -1.109375 -4.171875 C -1.328125 -3.984375 -1.453125 -3.800781 -1.484375 -3.625 C -1.515625 -3.445312 -1.46875 -3.285156 -1.34375 -3.140625 C -1.226562 -3.015625 -1.097656 -2.945312 -0.953125 -2.9375 C -0.816406 -2.925781 -0.628906 -2.984375 -0.390625 -3.109375 L 0.265625 -3.453125 C 0.609375 -3.628906 0.90625 -3.695312 1.15625 -3.65625 C 1.414062 -3.613281 1.648438 -3.476562 1.859375 -3.25 C 2.023438 -3.0625 2.128906 -2.851562 2.171875 -2.625 C 2.210938 -2.40625 2.175781 -2.175781 2.0625 -1.9375 C 1.945312 -1.695312 1.757812 -1.460938 1.5 -1.234375 Z M 1.5 -1.234375 "/></g></g></g><g fill="#000000" fill-opacity="1"><g transform="translate(57.630036, 14.742972)"><g><path d="M 2.109375 -1.265625 C 1.773438 -1.046875 1.429688 -0.925781 1.078125 -0.90625 C 0.734375 -0.894531 0.40625 -0.976562 0.09375 -1.15625 C -0.21875 -1.34375 -0.503906 -1.640625 -0.765625 -2.046875 C -1.023438 -2.441406 -1.175781 -2.828125 -1.21875 -3.203125 C -1.269531 -3.578125 -1.210938 -3.914062 -1.046875 -4.21875 C -0.878906 -4.519531 -0.628906 -4.78125 -0.296875 -5 C 0.046875 -5.21875 0.390625 -5.335938 0.734375 -5.359375 C 1.078125 -5.390625 1.40625 -5.300781 1.71875 -5.09375 C 2.039062 -4.894531 2.332031 -4.597656 2.59375 -4.203125 C 2.851562 -3.796875 3.003906 -3.414062 3.046875 -3.0625 C 3.085938 -2.707031 3.023438 -2.375 2.859375 -2.0625 C 2.703125 -1.75 2.453125 -1.484375 2.109375 -1.265625 Z M 1.796875 -1.734375 C 2.148438 -1.960938 2.347656 -2.253906 2.390625 -2.609375 C 2.441406 -2.960938 2.316406 -3.375 2.015625 -3.84375 C 1.710938 -4.320312 1.390625 -4.609375 1.046875 -4.703125 C 0.703125 -4.804688 0.351562 -4.742188 0 -4.515625 C -0.351562 -4.285156 -0.550781 -4 -0.59375 -3.65625 C -0.632812 -3.3125 -0.503906 -2.898438 -0.203125 -2.421875 C 0.0976562 -1.953125 0.414062 -1.660156 0.75 -1.546875 C 1.09375 -1.441406 1.441406 -1.503906 1.796875 -1.734375 Z M 1.796875 -1.734375 "/></g></g></g><g fill="#000000" fill-opacity="1"><g transform="translate(61.397279, 12.298083)"><g><path d="M 2.28125 -0.890625 C 1.9375 -0.742188 1.59375 -0.691406 1.25 -0.734375 C 0.90625 -0.773438 0.585938 -0.910156 0.296875 -1.140625 C 0.00390625 -1.378906 -0.234375 -1.71875 -0.421875 -2.15625 C -0.597656 -2.582031 -0.675781 -2.984375 -0.65625 -3.359375 C -0.632812 -3.734375 -0.519531 -4.054688 -0.3125 -4.328125 C -0.101562 -4.609375 0.171875 -4.820312 0.515625 -4.96875 C 0.929688 -5.15625 1.296875 -5.222656 1.609375 -5.171875 C 1.921875 -5.128906 2.191406 -5 2.421875 -4.78125 L 2.15625 -4.328125 L 2.078125 -4.296875 C 1.878906 -4.472656 1.671875 -4.570312 1.453125 -4.59375 C 1.242188 -4.625 1.003906 -4.578125 0.734375 -4.453125 C 0.492188 -4.359375 0.304688 -4.210938 0.171875 -4.015625 C 0.046875 -3.816406 -0.015625 -3.582031 -0.015625 -3.3125 C -0.015625 -3.039062 0.0507812 -2.742188 0.1875 -2.421875 C 0.332031 -2.085938 0.503906 -1.828125 0.703125 -1.640625 C 0.898438 -1.453125 1.113281 -1.34375 1.34375 -1.3125 C 1.582031 -1.28125 1.820312 -1.3125 2.0625 -1.40625 C 2.34375 -1.53125 2.539062 -1.691406 2.65625 -1.890625 C 2.78125 -2.097656 2.835938 -2.359375 2.828125 -2.671875 L 2.890625 -2.703125 L 3.390625 -2.640625 C 3.421875 -2.265625 3.34375 -1.925781 3.15625 -1.625 C 2.976562 -1.320312 2.6875 -1.078125 2.28125 -0.890625 Z M 2.28125 -0.890625 "/></g></g></g><g fill="#000000" fill-opacity="1"><g transform="translate(65.187993, 10.706833)"><g><path d="M -0.46875 -5.203125 C -0.59375 -5.160156 -0.707031 -5.164062 -0.8125 -5.21875 C -0.925781 -5.269531 -1 -5.363281 -1.03125 -5.5 C -1.070312 -5.613281 -1.0625 -5.722656 -1 -5.828125 C -0.945312 -5.929688 -0.859375 -6.003906 -0.734375 -6.046875 C -0.597656 -6.085938 -0.476562 -6.078125 -0.375 -6.015625 C -0.269531 -5.960938 -0.195312 -5.878906 -0.15625 -5.765625 C -0.125 -5.628906 -0.132812 -5.507812 -0.1875 -5.40625 C -0.238281 -5.3125 -0.332031 -5.242188 -0.46875 -5.203125 Z M 0.71875 -0.21875 L -0.53125 -4.3125 L 0.0625 -4.5 L 1.3125 -0.40625 Z M 0.71875 -0.21875 "/></g></g></g><g fill="#000000" fill-opacity="1"><g transform="translate(66.910277, 10.096617)"><g><path d="M 1.75 -0.234375 C 1.34375 -0.160156 1 -0.207031 0.71875 -0.375 C 0.445312 -0.550781 0.273438 -0.84375 0.203125 -1.25 C 0.160156 -1.5 0.171875 -1.71875 0.234375 -1.90625 C 0.304688 -2.09375 0.441406 -2.257812 0.640625 -2.40625 C 0.835938 -2.550781 1.109375 -2.6875 1.453125 -2.8125 C 1.742188 -2.914062 1.960938 -3.015625 2.109375 -3.109375 C 2.253906 -3.203125 2.347656 -3.296875 2.390625 -3.390625 C 2.429688 -3.484375 2.441406 -3.59375 2.421875 -3.71875 C 2.390625 -3.894531 2.296875 -4.019531 2.140625 -4.09375 C 1.992188 -4.175781 1.773438 -4.191406 1.484375 -4.140625 C 1.210938 -4.097656 0.988281 -4.003906 0.8125 -3.859375 C 0.644531 -3.710938 0.5 -3.523438 0.375 -3.296875 L 0.296875 -3.28125 L -0.09375 -3.640625 C 0.0390625 -3.898438 0.234375 -4.117188 0.484375 -4.296875 C 0.734375 -4.484375 1.035156 -4.609375 1.390625 -4.671875 C 1.890625 -4.765625 2.273438 -4.722656 2.546875 -4.546875 C 2.828125 -4.378906 3 -4.101562 3.0625 -3.71875 L 3.46875 -1.484375 C 3.507812 -1.242188 3.628906 -1.144531 3.828125 -1.1875 C 3.890625 -1.195312 3.953125 -1.21875 4.015625 -1.25 L 4.078125 -1.25 L 4.234375 -0.828125 C 4.191406 -0.796875 4.128906 -0.765625 4.046875 -0.734375 C 3.972656 -0.703125 3.898438 -0.679688 3.828125 -0.671875 C 3.585938 -0.617188 3.398438 -0.632812 3.265625 -0.71875 C 3.140625 -0.800781 3.039062 -0.9375 2.96875 -1.125 L 2.890625 -1.125 C 2.804688 -0.882812 2.671875 -0.691406 2.484375 -0.546875 C 2.304688 -0.398438 2.0625 -0.296875 1.75 -0.234375 Z M 1.796875 -0.765625 C 2.035156 -0.804688 2.226562 -0.894531 2.375 -1.03125 C 2.519531 -1.164062 2.625 -1.335938 2.6875 -1.546875 C 2.75 -1.765625 2.753906 -2.003906 2.703125 -2.265625 L 2.609375 -2.796875 L 2.546875 -2.796875 C 2.453125 -2.722656 2.335938 -2.648438 2.203125 -2.578125 C 2.078125 -2.503906 1.898438 -2.429688 1.671875 -2.359375 C 1.429688 -2.285156 1.25 -2.195312 1.125 -2.09375 C 1 -2 0.914062 -1.890625 0.875 -1.765625 C 0.832031 -1.648438 0.820312 -1.515625 0.84375 -1.359375 C 0.894531 -1.109375 1 -0.929688 1.15625 -0.828125 C 1.320312 -0.734375 1.535156 -0.710938 1.796875 -0.765625 Z M 1.796875 -0.765625 "/></g></g></g><g fill="#000000" fill-opacity="1"><g transform="translate(70.92308, 9.381353)"><g><path d="M 2.859375 -0.796875 L 3.078125 -0.359375 C 2.992188 -0.265625 2.867188 -0.1875 2.703125 -0.125 C 2.535156 -0.0625 2.359375 -0.0234375 2.171875 -0.015625 C 1.347656 0.015625 0.921875 -0.378906 0.890625 -1.203125 L 0.765625 -3.8125 L 0.015625 -3.78125 L 0 -4.296875 L 0.75 -4.328125 L 0.703125 -5.234375 L 1.34375 -5.375 L 1.390625 -4.359375 L 2.765625 -4.421875 L 2.78125 -3.90625 L 1.40625 -3.84375 L 1.515625 -1.296875 C 1.546875 -0.804688 1.773438 -0.566406 2.203125 -0.578125 C 2.429688 -0.585938 2.625 -0.660156 2.78125 -0.796875 Z M 2.859375 -0.796875 "/></g></g></g><g fill="#000000" fill-opacity="1"><g transform="translate(73.93239, 9.259178)"><g><path d="M 1.3125 -5.0625 C 1.175781 -5.0625 1.066406 -5.101562 0.984375 -5.1875 C 0.910156 -5.28125 0.875 -5.394531 0.875 -5.53125 C 0.882812 -5.65625 0.929688 -5.753906 1.015625 -5.828125 C 1.109375 -5.910156 1.222656 -5.953125 1.359375 -5.953125 C 1.492188 -5.941406 1.597656 -5.890625 1.671875 -5.796875 C 1.753906 -5.710938 1.789062 -5.609375 1.78125 -5.484375 C 1.78125 -5.347656 1.734375 -5.238281 1.640625 -5.15625 C 1.554688 -5.082031 1.445312 -5.050781 1.3125 -5.0625 Z M 0.75 0.03125 L 0.953125 -4.25 L 1.578125 -4.21875 L 1.375 0.0625 Z M 0.75 0.03125 "/></g></g></g><g fill="#000000" fill-opacity="1"><g transform="translate(75.740387, 9.241256)"><g><path d="M 2.40625 0.5 C 2.007812 0.425781 1.675781 0.273438 1.40625 0.046875 C 1.144531 -0.171875 0.960938 -0.453125 0.859375 -0.796875 C 0.765625 -1.148438 0.753906 -1.5625 0.828125 -2.03125 C 0.910156 -2.488281 1.054688 -2.867188 1.265625 -3.171875 C 1.484375 -3.484375 1.753906 -3.695312 2.078125 -3.8125 C 2.410156 -3.925781 2.773438 -3.945312 3.171875 -3.875 C 3.566406 -3.800781 3.894531 -3.65625 4.15625 -3.4375 C 4.425781 -3.226562 4.613281 -2.941406 4.71875 -2.578125 C 4.820312 -2.210938 4.832031 -1.800781 4.75 -1.34375 C 4.675781 -0.875 4.53125 -0.492188 4.3125 -0.203125 C 4.09375 0.0859375 3.816406 0.296875 3.484375 0.421875 C 3.160156 0.546875 2.800781 0.570312 2.40625 0.5 Z M 2.5 -0.0625 C 2.914062 0.0078125 3.257812 -0.0664062 3.53125 -0.296875 C 3.800781 -0.523438 3.984375 -0.914062 4.078125 -1.46875 C 4.179688 -2.019531 4.144531 -2.445312 3.96875 -2.75 C 3.789062 -3.050781 3.492188 -3.238281 3.078125 -3.3125 C 2.648438 -3.382812 2.300781 -3.304688 2.03125 -3.078125 C 1.769531 -2.859375 1.585938 -2.472656 1.484375 -1.921875 C 1.390625 -1.367188 1.425781 -0.9375 1.59375 -0.625 C 1.769531 -0.320312 2.070312 -0.132812 2.5 -0.0625 Z M 2.5 -0.0625 "/></g></g></g><g fill="#000000" fill-opacity="1"><g transform="translate(80.151942, 9.966592)"><g><path d="M 0.703125 0.25 L 2.140625 -3.78125 L 2.703125 -3.578125 L 2.484375 -2.9375 L 2.5625 -2.90625 C 2.78125 -3.09375 3.015625 -3.207031 3.265625 -3.25 C 3.515625 -3.300781 3.789062 -3.273438 4.09375 -3.171875 C 4.582031 -2.992188 4.890625 -2.742188 5.015625 -2.421875 C 5.140625 -2.097656 5.109375 -1.675781 4.921875 -1.15625 L 4 1.4375 L 3.40625 1.21875 L 4.328125 -1.359375 C 4.410156 -1.597656 4.445312 -1.800781 4.4375 -1.96875 C 4.4375 -2.144531 4.378906 -2.289062 4.265625 -2.40625 C 4.160156 -2.519531 4.003906 -2.613281 3.796875 -2.6875 C 3.429688 -2.820312 3.09375 -2.804688 2.78125 -2.640625 C 2.476562 -2.484375 2.234375 -2.140625 2.046875 -1.609375 L 1.296875 0.46875 Z M 0.703125 0.25 "/></g></g></g><g fill="#000000" fill-opacity="1"><g transform="translate(84.468555, 11.588466)"><g/></g></g><g fill="#000000" fill-opacity="1"><g transform="translate(86.05217, 12.374959)"><g/></g></g><g fill="#000000" fill-opacity="1"><g transform="translate(87.578499, 13.267549)"><g/></g></g><g fill="#000000" fill-opacity="1"><g transform="translate(89.040454, 14.262086)"><g/></g></g><g fill="#000000" fill-opacity="1"><g transform="translate(90.409379, 15.301576)"><g><path d="M 0.6875 0.65625 L 3.265625 -2.078125 L 2.71875 -2.59375 L 3.078125 -2.96875 L 3.625 -2.453125 C 3.71875 -2.617188 3.820312 -2.765625 3.9375 -2.890625 C 4.132812 -3.097656 4.335938 -3.226562 4.546875 -3.28125 C 4.765625 -3.34375 4.984375 -3.332031 5.203125 -3.25 C 5.421875 -3.175781 5.628906 -3.046875 5.828125 -2.859375 C 6.140625 -2.566406 6.316406 -2.273438 6.359375 -1.984375 L 5.859375 -1.828125 L 5.8125 -1.875 C 5.78125 -2.082031 5.664062 -2.28125 5.46875 -2.46875 C 5.289062 -2.632812 5.109375 -2.710938 4.921875 -2.703125 C 4.742188 -2.703125 4.570312 -2.613281 4.40625 -2.4375 C 4.300781 -2.332031 4.195312 -2.191406 4.09375 -2.015625 L 5.078125 -1.078125 L 4.71875 -0.703125 L 3.734375 -1.640625 L 1.15625 1.09375 Z M 0.6875 0.65625 "/></g></g></g><g fill="#000000" fill-opacity="1"><g transform="translate(92.428749, 17.083345)"><g><path d="M 1.46875 1.96875 C 1.21875 1.65625 1.066406 1.328125 1.015625 0.984375 C 0.960938 0.648438 1.015625 0.316406 1.171875 -0.015625 C 1.328125 -0.359375 1.59375 -0.679688 1.96875 -0.984375 C 2.332031 -1.273438 2.695312 -1.457031 3.0625 -1.53125 C 3.425781 -1.613281 3.765625 -1.585938 4.078125 -1.453125 C 4.398438 -1.328125 4.6875 -1.109375 4.9375 -0.796875 C 5.1875 -0.484375 5.34375 -0.160156 5.40625 0.171875 C 5.46875 0.515625 5.414062 0.851562 5.25 1.1875 C 5.082031 1.53125 4.816406 1.847656 4.453125 2.140625 C 4.078125 2.441406 3.710938 2.628906 3.359375 2.703125 C 3.003906 2.785156 2.660156 2.757812 2.328125 2.625 C 2.003906 2.5 1.71875 2.28125 1.46875 1.96875 Z M 1.90625 1.625 C 2.175781 1.957031 2.488281 2.125 2.84375 2.125 C 3.195312 2.132812 3.59375 1.960938 4.03125 1.609375 C 4.46875 1.265625 4.722656 0.914062 4.796875 0.5625 C 4.867188 0.21875 4.769531 -0.117188 4.5 -0.453125 C 4.226562 -0.785156 3.914062 -0.953125 3.5625 -0.953125 C 3.21875 -0.960938 2.828125 -0.796875 2.390625 -0.453125 C 1.953125 -0.0976562 1.691406 0.25 1.609375 0.59375 C 1.535156 0.945312 1.632812 1.289062 1.90625 1.625 Z M 1.90625 1.625 "/></g></g></g><g fill="#000000" fill-opacity="1"><g transform="translate(95.239106, 20.644965)"><g><path d="M 0.375 0.640625 L 4.0625 -1.53125 L 4.375 -1.015625 L 3.796875 -0.671875 L 3.8125 -0.59375 C 4.34375 -0.65625 4.75 -0.453125 5.03125 0.015625 C 5.175781 0.273438 5.234375 0.492188 5.203125 0.671875 L 4.671875 0.796875 L 4.609375 0.734375 C 4.609375 0.554688 4.554688 0.382812 4.453125 0.21875 C 4.285156 -0.0703125 4.046875 -0.234375 3.734375 -0.265625 C 3.421875 -0.296875 3.015625 -0.164062 2.515625 0.125 L 0.703125 1.1875 Z M 0.375 0.640625 "/></g></g></g><g fill="#000000" fill-opacity="1"><g transform="translate(96.773711, 23.296654)"><g/></g></g><g fill="#000000" fill-opacity="1"><g transform="translate(97.530784, 24.894543)"><g/></g></g><g fill="#000000" fill-opacity="1"><g transform="translate(98.177191, 26.540313)"><g/></g></g><g fill="#000000" fill-opacity="1"><g transform="translate(98.709933, 28.226309)"><g/></g></g><g fill="#000000" fill-opacity="1"><g transform="translate(99.126536, 29.944692)"><g/></g></g><g fill="#000000" fill-opacity="1"><g transform="translate(99.503239, 31.543436)"><g><path d="M 0.03125 2.484375 C 0.0195312 2.128906 0.0507812 1.804688 0.125 1.515625 C 0.207031 1.222656 0.328125 0.976562 0.484375 0.78125 C 0.640625 0.59375 0.804688 0.445312 0.984375 0.34375 L 1.4375 0.6875 L 1.453125 0.78125 C 0.867188 1.15625 0.59375 1.710938 0.625 2.453125 C 0.644531 2.878906 0.75 3.191406 0.9375 3.390625 C 1.132812 3.597656 1.390625 3.691406 1.703125 3.671875 C 1.890625 3.671875 2.046875 3.628906 2.171875 3.546875 C 2.304688 3.472656 2.414062 3.351562 2.5 3.1875 C 2.582031 3.03125 2.648438 2.8125 2.703125 2.53125 L 2.828125 1.875 C 2.929688 1.363281 3.109375 0.984375 3.359375 0.734375 C 3.609375 0.492188 3.929688 0.363281 4.328125 0.34375 C 4.609375 0.332031 4.863281 0.394531 5.09375 0.53125 C 5.320312 0.664062 5.503906 0.867188 5.640625 1.140625 C 5.773438 1.421875 5.851562 1.753906 5.875 2.140625 C 5.894531 2.566406 5.847656 2.929688 5.734375 3.234375 C 5.628906 3.535156 5.460938 3.773438 5.234375 3.953125 L 4.78125 3.65625 L 4.765625 3.546875 C 4.960938 3.378906 5.101562 3.179688 5.1875 2.953125 C 5.269531 2.722656 5.300781 2.457031 5.28125 2.15625 C 5.257812 1.757812 5.171875 1.46875 5.015625 1.28125 C 4.859375 1.09375 4.644531 1.003906 4.375 1.015625 C 4.125 1.023438 3.921875 1.109375 3.765625 1.265625 C 3.617188 1.421875 3.515625 1.675781 3.453125 2.03125 L 3.328125 2.703125 C 3.222656 3.265625 3.039062 3.675781 2.78125 3.9375 C 2.519531 4.195312 2.179688 4.335938 1.765625 4.359375 C 1.441406 4.378906 1.15625 4.320312 0.90625 4.1875 C 0.65625 4.050781 0.453125 3.835938 0.296875 3.546875 C 0.140625 3.265625 0.0507812 2.910156 0.03125 2.484375 Z M 0.03125 2.484375 "/></g></g></g><g fill="#000000" fill-opacity="1"><g transform="translate(99.681416, 36.032623)"><g><path d="M 0.390625 2.9375 L -0.078125 3.09375 C -0.160156 2.988281 -0.21875 2.851562 -0.25 2.6875 C -0.289062 2.519531 -0.300781 2.34375 -0.28125 2.15625 C -0.207031 1.34375 0.238281 0.972656 1.0625 1.046875 L 3.65625 1.296875 L 3.734375 0.546875 L 4.25 0.59375 L 4.171875 1.34375 L 5.0625 1.4375 L 5.109375 2.078125 L 4.109375 1.984375 L 3.984375 3.34375 L 3.46875 3.296875 L 3.59375 1.9375 L 1.0625 1.6875 C 0.570312 1.644531 0.304688 1.832031 0.265625 2.25 C 0.242188 2.476562 0.289062 2.679688 0.40625 2.859375 Z M 0.390625 2.9375 "/></g></g></g><g fill="#000000" fill-opacity="1"><g transform="translate(99.491763, 38.919278)"><g><path d="M -0.578125 2.03125 C -0.460938 1.570312 -0.253906 1.253906 0.046875 1.078125 C 0.359375 0.898438 0.75 0.867188 1.21875 0.984375 L 4 1.65625 L 3.84375 2.28125 L 1.078125 1.625 C 0.453125 1.46875 0.0664062 1.6875 -0.078125 2.28125 C -0.160156 2.65625 -0.101562 2.984375 0.09375 3.265625 C 0.289062 3.546875 0.660156 3.75 1.203125 3.875 L 3.34375 4.390625 L 3.1875 5.015625 L -0.96875 4.015625 L -0.828125 3.421875 L -0.171875 3.578125 L -0.140625 3.5 C -0.359375 3.289062 -0.503906 3.070312 -0.578125 2.84375 C -0.648438 2.625 -0.648438 2.351562 -0.578125 2.03125 Z M -0.578125 2.03125 "/></g></g></g><g fill="#000000" fill-opacity="1"><g transform="translate(98.499778, 43.224471)"><g><path d="M -0.96875 2 C -0.832031 1.6875 -0.632812 1.441406 -0.375 1.265625 C -0.125 1.085938 0.179688 0.992188 0.546875 0.984375 C 0.910156 0.984375 1.320312 1.082031 1.78125 1.28125 C 2.226562 1.476562 2.570312 1.710938 2.8125 1.984375 C 3.050781 2.265625 3.191406 2.5625 3.234375 2.875 C 3.273438 3.195312 3.222656 3.523438 3.078125 3.859375 C 2.960938 4.109375 2.8125 4.316406 2.625 4.484375 C 2.4375 4.660156 2.191406 4.769531 1.890625 4.8125 L 1.875 4.90625 L 4 5.828125 L 3.75 6.40625 L -1.75 4 L -1.5 3.421875 L -0.921875 3.671875 L -0.875 3.59375 C -1.007812 3.382812 -1.09375 3.140625 -1.125 2.859375 C -1.15625 2.585938 -1.101562 2.300781 -0.96875 2 Z M -0.53125 2.40625 C -0.6875 2.769531 -0.6875 3.117188 -0.53125 3.453125 C -0.375 3.785156 -0.0390625 4.0625 0.46875 4.28125 C 0.976562 4.507812 1.40625 4.566406 1.75 4.453125 C 2.101562 4.335938 2.359375 4.097656 2.515625 3.734375 C 2.679688 3.347656 2.6875 3.003906 2.53125 2.703125 C 2.375 2.398438 2.035156 2.132812 1.515625 1.90625 C 0.492188 1.457031 -0.1875 1.625 -0.53125 2.40625 Z M -0.53125 2.40625 "/></g></g></g><g fill="#000000" fill-opacity="1"><g transform="translate(96.640915, 47.512935)"><g><path d="M -0.5625 4.5 L 1.046875 2.046875 C 0.597656 1.785156 0.210938 1.679688 -0.109375 1.734375 C -0.441406 1.785156 -0.722656 1.984375 -0.953125 2.328125 C -1.117188 2.578125 -1.207031 2.8125 -1.21875 3.03125 C -1.226562 3.25 -1.164062 3.46875 -1.03125 3.6875 L -1.078125 3.75 L -1.515625 3.953125 C -1.703125 3.679688 -1.789062 3.378906 -1.78125 3.046875 C -1.78125 2.722656 -1.660156 2.378906 -1.421875 2.015625 C -1.191406 1.671875 -0.925781 1.414062 -0.625 1.25 C -0.332031 1.09375 -0.00390625 1.035156 0.359375 1.078125 C 0.734375 1.128906 1.125 1.289062 1.53125 1.5625 C 1.945312 1.832031 2.242188 2.128906 2.421875 2.453125 C 2.597656 2.785156 2.675781 3.113281 2.65625 3.4375 C 2.632812 3.769531 2.519531 4.097656 2.3125 4.421875 C 2.007812 4.878906 1.644531 5.148438 1.21875 5.234375 C 0.789062 5.328125 0.320312 5.207031 -0.1875 4.875 C -0.382812 4.738281 -0.515625 4.644531 -0.578125 4.59375 Z M 0.15625 4.359375 C 0.539062 4.597656 0.875 4.695312 1.15625 4.65625 C 1.4375 4.613281 1.675781 4.441406 1.875 4.140625 C 2.082031 3.816406 2.15625 3.507812 2.09375 3.21875 C 2.03125 2.925781 1.820312 2.640625 1.46875 2.359375 Z M 0.15625 4.359375 "/></g></g></g><g fill="#000000" fill-opacity="1"><g transform="translate(94.413249, 50.997566)"><g><path d="M -0.515625 0.546875 L 2.625 3.453125 L 2.234375 3.890625 L 1.734375 3.4375 L 1.671875 3.484375 C 1.753906 3.765625 1.765625 4.03125 1.703125 4.28125 C 1.648438 4.539062 1.519531 4.785156 1.3125 5.015625 C 0.957031 5.390625 0.601562 5.570312 0.25 5.5625 C -0.09375 5.550781 -0.46875 5.359375 -0.875 4.984375 L -2.890625 3.109375 L -2.46875 2.65625 L -0.46875 4.515625 C -0.269531 4.691406 -0.09375 4.804688 0.0625 4.859375 C 0.226562 4.921875 0.382812 4.925781 0.53125 4.875 C 0.675781 4.820312 0.828125 4.710938 0.984375 4.546875 C 1.242188 4.265625 1.359375 3.953125 1.328125 3.609375 C 1.304688 3.265625 1.085938 2.898438 0.671875 2.515625 L -0.9375 1.015625 Z M -0.515625 0.546875 "/></g></g></g><g fill="#000000" fill-opacity="1"><g transform="translate(91.291523, 54.315405)"><g><path d="M -1.828125 2.328125 L -2.265625 2.109375 C -2.253906 1.984375 -2.195312 1.847656 -2.09375 1.703125 C -2 1.554688 -1.878906 1.421875 -1.734375 1.296875 C -1.097656 0.785156 -0.519531 0.851562 0 1.5 L 1.640625 3.515625 L 2.234375 3.046875 L 2.546875 3.453125 L 1.953125 3.921875 L 2.53125 4.625 L 2.09375 5.109375 L 1.453125 4.3125 L 0.390625 5.1875 L 0.078125 4.78125 L 1.140625 3.90625 L -0.46875 1.9375 C -0.78125 1.550781 -1.097656 1.492188 -1.421875 1.765625 C -1.609375 1.910156 -1.722656 2.082031 -1.765625 2.28125 Z M -1.828125 2.328125 "/></g></g></g></svg>