<svg xmlns="http://www.w3.org/2000/svg" xmlns:xlink="http://www.w3.org/1999/xlink" width="40" zoomAndPan="magnify" viewBox="0 0 30 30.000001" height="40" preserveAspectRatio="xMidYMid meet" version="1.0"><defs><g/><clipPath id="107fed70d2"><path d="M 0.484375 10.183594 L 7.015625 10.183594 L 7.015625 21.070312 L 0.484375 21.070312 Z M 0.484375 10.183594 " clip-rule="nonzero"/></clipPath><clipPath id="4d3715e7a6"><path d="M 22.695312 9.183594 L 29.226562 9.183594 L 29.226562 20.796875 L 22.695312 20.796875 Z M 22.695312 9.183594 " clip-rule="nonzero"/></clipPath></defs><g clip-path="url(#107fed70d2)"><path fill="#fbc646" d="M 2.421875 10.183594 L 6.613281 10.183594 L 4.839844 13.378906 L 7.015625 13.378906 L 1.75 21.070312 L 3.144531 15.40625 L 0.484375 15.40625 L 2.421875 10.183594 " fill-opacity="1" fill-rule="nonzero"/></g><g fill="#45bbcf" fill-opacity="1"><g transform="translate(2.857582, 20.501021)"><g><path d="M 0.703125 -1.140625 C 0.703125 -1.929688 0.785156 -2.597656 0.953125 -3.140625 C 1.128906 -3.691406 1.414062 -4.191406 1.8125 -4.640625 C 2.207031 -5.085938 2.765625 -5.570312 3.484375 -6.09375 L 5.40625 -7.484375 C 5.925781 -7.859375 6.332031 -8.179688 6.625 -8.453125 C 6.914062 -8.734375 7.132812 -9.019531 7.28125 -9.3125 C 7.4375 -9.613281 7.515625 -9.960938 7.515625 -10.359375 C 7.515625 -10.941406 7.335938 -11.390625 6.984375 -11.703125 C 6.628906 -12.023438 6.097656 -12.1875 5.390625 -12.1875 C 4.703125 -12.1875 4.09375 -12.019531 3.5625 -11.6875 C 3.03125 -11.363281 2.59375 -10.921875 2.25 -10.359375 L 2.0625 -10.3125 L 0.484375 -12.0625 C 1.003906 -12.820312 1.675781 -13.429688 2.5 -13.890625 C 3.320312 -14.359375 4.316406 -14.59375 5.484375 -14.59375 C 6.566406 -14.59375 7.46875 -14.414062 8.1875 -14.0625 C 8.914062 -13.707031 9.453125 -13.222656 9.796875 -12.609375 C 10.148438 -11.992188 10.328125 -11.289062 10.328125 -10.5 C 10.328125 -9.820312 10.1875 -9.195312 9.90625 -8.625 C 9.625 -8.0625 9.226562 -7.539062 8.71875 -7.0625 C 8.21875 -6.582031 7.570312 -6.066406 6.78125 -5.515625 L 5.078125 -4.328125 C 4.566406 -3.960938 4.207031 -3.632812 4 -3.34375 C 3.800781 -3.0625 3.703125 -2.738281 3.703125 -2.375 L 10.203125 -2.375 L 10.203125 0 L 0.703125 0 Z M 0.703125 -1.140625 "/></g></g></g><g fill="#45bbcf" fill-opacity="1"><g transform="translate(14.085085, 20.501021)"><g><path d="M 0.703125 -1.140625 C 0.703125 -1.929688 0.785156 -2.597656 0.953125 -3.140625 C 1.128906 -3.691406 1.414062 -4.191406 1.8125 -4.640625 C 2.207031 -5.085938 2.765625 -5.570312 3.484375 -6.09375 L 5.40625 -7.484375 C 5.925781 -7.859375 6.332031 -8.179688 6.625 -8.453125 C 6.914062 -8.734375 7.132812 -9.019531 7.28125 -9.3125 C 7.4375 -9.613281 7.515625 -9.960938 7.515625 -10.359375 C 7.515625 -10.941406 7.335938 -11.390625 6.984375 -11.703125 C 6.628906 -12.023438 6.097656 -12.1875 5.390625 -12.1875 C 4.703125 -12.1875 4.09375 -12.019531 3.5625 -11.6875 C 3.03125 -11.363281 2.59375 -10.921875 2.25 -10.359375 L 2.0625 -10.3125 L 0.484375 -12.0625 C 1.003906 -12.820312 1.675781 -13.429688 2.5 -13.890625 C 3.320312 -14.359375 4.316406 -14.59375 5.484375 -14.59375 C 6.566406 -14.59375 7.46875 -14.414062 8.1875 -14.0625 C 8.914062 -13.707031 9.453125 -13.222656 9.796875 -12.609375 C 10.148438 -11.992188 10.328125 -11.289062 10.328125 -10.5 C 10.328125 -9.820312 10.1875 -9.195312 9.90625 -8.625 C 9.625 -8.0625 9.226562 -7.539062 8.71875 -7.0625 C 8.21875 -6.582031 7.570312 -6.066406 6.78125 -5.515625 L 5.078125 -4.328125 C 4.566406 -3.960938 4.207031 -3.632812 4 -3.34375 C 3.800781 -3.0625 3.703125 -2.738281 3.703125 -2.375 L 10.203125 -2.375 L 10.203125 0 L 0.703125 0 Z M 0.703125 -1.140625 "/></g></g></g><g fill="#45bbcf" fill-opacity="1"><g transform="translate(25.317094, 20.501021)"><g/></g></g><g clip-path="url(#4d3715e7a6)"><path fill="#fbc646" d="M 24.632812 9.183594 L 28.824219 9.183594 L 27.050781 12.59375 L 29.226562 12.59375 L 23.960938 20.796875 L 25.359375 14.753906 L 22.695312 14.753906 L 24.632812 9.183594 " fill-opacity="1" fill-rule="nonzero"/></g></svg>