<svg xmlns="http://www.w3.org/2000/svg" xmlns:xlink="http://www.w3.org/1999/xlink" width="1366" zoomAndPan="magnify" viewBox="0 0 1024.5 576" height="768" preserveAspectRatio="xMidYMid meet" version="1.0"><defs><clipPath id="55d8e6b806"><path d="M 0 0.140625 L 1024 0.140625 L 1024 575.859375 L 0 575.859375 Z M 0 0.140625 " clip-rule="nonzero"/></clipPath><clipPath id="71b6191e9f"><path d="M 605.5 0.140625 L 1024 0.140625 L 1024 388.796875 L 605.5 388.796875 Z M 605.5 0.140625 " clip-rule="nonzero"/></clipPath><clipPath id="06b524c930"><path d="M 863.628906 -127.464844 C 721.070312 -127.464844 605.5 -11.894531 605.5 130.664062 C 605.5 273.226562 721.070312 388.796875 863.628906 388.796875 C 1006.191406 388.796875 1121.761719 273.226562 1121.761719 130.664062 C 1121.761719 -11.894531 1006.191406 -127.464844 863.628906 -127.464844 Z M 863.628906 -127.464844 " clip-rule="nonzero"/></clipPath><clipPath id="bbc4f51456"><path d="M 790.410156 213.71875 L 1024 213.71875 L 1024 575.859375 L 790.410156 575.859375 Z M 790.410156 213.71875 " clip-rule="nonzero"/></clipPath><clipPath id="551292c969"><path d="M 989.511719 213.71875 C 879.550781 213.71875 790.410156 302.863281 790.410156 412.824219 C 790.410156 522.785156 879.550781 611.929688 989.511719 611.929688 C 1099.476562 611.929688 1188.617188 522.785156 1188.617188 412.824219 C 1188.617188 302.863281 1099.476562 213.71875 989.511719 213.71875 Z M 989.511719 213.71875 " clip-rule="nonzero"/></clipPath></defs><g clip-path="url(#55d8e6b806)"><path fill="#ffffff" d="M 0 0.140625 L 1024 0.140625 L 1024 575.859375 L 0 575.859375 Z M 0 0.140625 " fill-opacity="1" fill-rule="nonzero"/><path fill="#ffffff" d="M 0 0.140625 L 1024 0.140625 L 1024 575.859375 L 0 575.859375 Z M 0 0.140625 " fill-opacity="1" fill-rule="nonzero"/><path fill="#1cbccf" d="M 0 0.140625 L 1023.25 0.140625 L 1023.25 575.859375 L 0 575.859375 Z M 0 0.140625 " fill-opacity="1" fill-rule="nonzero"/></g><g clip-path="url(#71b6191e9f)"><g clip-path="url(#06b524c930)"><path fill="#30c3d3" d="M 605.5 -127.464844 L 1121.761719 -127.464844 L 1121.761719 388.796875 L 605.5 388.796875 Z M 605.5 -127.464844 " fill-opacity="1" fill-rule="nonzero"/></g></g><g clip-path="url(#bbc4f51456)"><g clip-path="url(#551292c969)"><path fill="#24b5c5" d="M 790.410156 213.71875 L 1188.617188 213.71875 L 1188.617188 611.929688 L 790.410156 611.929688 Z M 790.410156 213.71875 " fill-opacity="1" fill-rule="nonzero"/></g></g></svg>